<svg width="30" height="34" viewBox="0 0 30 34" fill="none" xmlns="http://www.w3.org/2000/svg">
<g clip-path="url(#clip0_3_1087)">
<path d="M26.7953 13.6203C28.3835 13.6203 29.6756 12.3186 29.6756 10.7187V5.95006C29.6756 4.6268 28.7873 3.47147 27.5154 3.14059L15.8702 0.110998C15.3015 -0.0369993 14.7001 -0.0369993 14.1312 0.110998L2.48601 3.14059C1.21419 3.4714 0.325928 4.62673 0.325928 5.95006V10.7187C0.325928 12.3186 1.61803 13.6203 3.2062 13.6203H3.75975V26.6928H3.04772C1.54693 26.6928 0.325928 27.9228 0.325928 29.4347V31.2581C0.325928 32.77 1.54693 34.0001 3.04772 34.0001H26.9538C28.4546 34.0001 29.6756 32.77 29.6756 31.2581V29.4347C29.6756 27.9228 28.4546 26.6928 26.9538 26.6928H26.2418V13.6203H26.7953ZM2.50336 10.7187V5.95006C2.50336 5.62713 2.72016 5.34519 3.03051 5.26451C15.5406 2.00994 14.8725 2.11708 15.3259 2.23499L26.9711 5.26451C27.2814 5.34526 27.4982 5.6272 27.4982 5.95006V10.7187C27.4982 11.1091 27.1829 11.4267 26.7954 11.4267C26.4778 11.4267 3.5188 11.4267 3.20627 11.4267C2.81868 11.4267 2.50336 11.1091 2.50336 10.7187ZM17.881 26.6927V13.6203H20.4812V26.6928H17.881V26.6927ZM9.52036 26.6927V13.6203H12.1205V26.6928H9.52036V26.6927ZM14.2979 13.6203H15.7036V26.6928H14.2979V13.6203ZM5.93718 13.6203H7.34292V26.6928H5.93718V13.6203ZM27.4982 29.4347V31.2581C27.4982 31.5604 27.2539 31.8064 26.9538 31.8064H3.04772C2.74758 31.8064 2.50336 31.5604 2.50336 31.2581V29.4347C2.50336 29.1323 2.74758 28.8863 3.04772 28.8863H26.9538C27.2539 28.8863 27.4982 29.1323 27.4982 29.4347ZM24.0643 26.6927H22.6586V13.6203H24.0643V26.6927ZM15.0008 10.2821C16.7787 10.2821 18.2252 8.82487 18.2252 7.03375C18.2252 5.24264 16.7787 3.78543 15.0008 3.78543C13.2228 3.78543 11.7763 5.24264 11.7763 7.03375C11.7763 8.82487 13.2228 10.2821 15.0008 10.2821ZM15.0008 5.97892C15.5781 5.97892 16.0478 6.45212 16.0478 7.03369C16.0478 7.61526 15.5781 8.08845 15.0008 8.08845C14.4235 8.08845 13.9538 7.61526 13.9538 7.03369C13.9538 6.45212 14.4235 5.97892 15.0008 5.97892Z" fill="white"/>
</g>
<defs>
<clipPath id="clip0_3_1087">
<rect width="30" height="34" fill="white"/>
</clipPath>
</defs>
</svg>
