<svg width="77" height="42" viewBox="0 0 77 42" fill="none" xmlns="http://www.w3.org/2000/svg">
<mask id="mask0_3_704" style="mask-type:alpha" maskUnits="userSpaceOnUse" x="0" y="0" width="77" height="42">
<path d="M0.917969 3.34717C0.917969 1.69032 2.26111 0.347168 3.91797 0.347168H76.7614V41.4911H3.91796C2.26111 41.4911 0.917969 40.148 0.917969 38.4911V3.34717Z" fill="#F7F9FC"/>
</mask>
<g mask="url(#mask0_3_704)">
<rect x="0.917969" y="0.347168" width="244.702" height="41.144" rx="3" fill="#F7F9FC"/>
<path d="M39.2361 25.2778C41.8773 25.2778 43.8771 24.0955 44.9713 22.0957L45.16 25.064H46.9208V15.7568H40.519V17.5554H44.7449L44.6946 18.7125C44.267 21.7058 42.2421 23.2906 39.2361 23.2906C34.985 23.2906 33.199 20.0708 33.199 16.0713C33.199 12.0214 35.1611 9.00286 39.2738 9.00286C41.915 9.00286 43.8016 10.1851 44.7198 12.7886L46.6944 11.9585C45.3486 8.73874 42.7955 7.05339 39.299 7.05339C33.7147 7.05339 30.998 11.0152 30.998 16.1593C30.998 21.2908 33.7524 25.2778 39.2361 25.2778ZM51.021 25.064H53.0836V19.0143C53.0836 15.6814 54.9073 14.3608 56.492 14.3608C56.9951 14.3608 57.4731 14.4991 57.9007 14.7381L58.8817 12.9773C58.3157 12.4993 57.5485 12.2855 56.8065 12.2855C55.3349 12.2855 53.6999 13.1533 53.0962 14.9645V12.4993H51.021V25.064ZM65.5476 12.2855C63.246 12.2855 61.7367 13.254 60.5168 14.9267L62.1518 16.109C62.9064 14.9393 63.9755 14.1469 65.5728 14.1469C67.9499 14.1469 68.7548 15.2915 68.7674 17.744H65.2081C62.1141 17.744 60.0262 18.7376 60.0262 21.3411C60.0262 23.8314 61.8877 25.2778 64.4408 25.2778C66.1639 25.2778 67.8996 24.4603 68.7926 22.8252L68.9309 25.064H70.7043V17.4044C70.7043 14.2853 68.8429 12.2855 65.5476 12.2855ZM64.8559 23.4541C63.1454 23.4541 62.2147 22.6366 62.2147 21.4166C62.2147 20.1463 63.2209 19.3036 65.3338 19.3036H68.7674V20.1211C68.3524 22.0077 66.9814 23.4541 64.8559 23.4541ZM74.5907 30.2709H76.7917V22.8001C77.6092 24.3848 79.1814 25.2778 80.9548 25.2778C84.4009 25.2778 86.3252 22.3347 86.3252 18.7879C86.3252 15.2537 84.4009 12.2855 80.9925 12.2855C79.2317 12.2855 77.6092 13.1785 76.7917 14.7632V12.4993H74.5907V30.2709ZM80.4768 23.3409C78.0243 23.3409 76.603 21.3663 76.603 18.7879C76.603 16.197 78.0243 14.2601 80.4768 14.2601C82.9294 14.2601 84.1871 16.2348 84.1871 18.7879C84.1871 21.3411 82.9294 23.3409 80.4768 23.3409ZM89.5827 25.064H91.746V18.1591C91.746 15.87 92.9157 14.2224 95.0664 14.2224C97.1416 14.2224 97.8711 15.6185 97.8711 17.6308V25.064H100.034V17.2409C99.9967 14.5494 98.6132 12.2855 95.5569 12.2855C94.0351 12.2855 92.6013 12.9773 91.746 14.4111V7.29236H89.5827V25.064ZM103.87 9.95873H106.097V7.29236H103.87V9.95873ZM103.921 25.064H106.046V12.4993H103.921V25.064ZM115.001 25.2778C117.378 25.2778 119.24 23.9697 120.032 21.7184L118.095 20.9889C117.643 22.4227 116.485 23.3409 114.976 23.3409C112.461 23.3409 111.367 21.165 111.367 18.8005C111.367 16.4737 112.461 14.2224 114.976 14.2224C116.473 14.2224 117.63 15.1531 118.133 16.6121L120.158 15.8197C119.227 13.4803 117.328 12.2855 114.976 12.2855C111.09 12.2855 109.203 15.5053 109.203 18.8005C109.203 22.2844 111.228 25.2778 115.001 25.2778ZM126.736 25.2778C129.163 25.2778 131.352 23.9949 131.352 21.3537C131.352 16.6121 124.321 18.3226 124.321 15.6059C124.321 14.6626 125.214 13.9834 126.635 13.9834C128.107 13.9834 129.037 14.8261 129.591 15.8323L131.239 14.9393C130.333 13.2665 128.748 12.2855 126.711 12.2855C124.296 12.2855 122.284 13.5181 122.284 15.8826C122.284 20.3978 129.251 18.4735 129.251 21.4543C129.251 22.5611 128.371 23.4918 126.635 23.4918C124.786 23.4918 123.73 22.3347 123.302 21.1399L121.579 21.8945C122.208 23.8062 124.195 25.2778 126.736 25.2778ZM141.577 25.064H146.469C152.343 25.064 155.613 21.8568 155.613 16.3102C155.613 10.5247 152.431 7.29236 146.495 7.29236H141.577V25.064ZM143.791 23.0265V9.32987H146.457C151.236 9.32987 153.4 11.5183 153.4 16.2222C153.4 20.9889 150.721 23.0265 146.256 23.0265H143.791ZM164.191 25.2778C166.241 25.2778 167.75 24.6238 169.146 23.1271L167.662 21.8316C166.618 22.9384 165.587 23.3409 164.203 23.3409C161.851 23.3409 160.581 21.8316 160.418 19.4168H169.461C169.511 19.2281 169.561 18.725 169.561 18.2597C169.561 15.6688 168.19 12.2855 163.977 12.2855C160.128 12.2855 158.166 15.3795 158.166 18.8382C158.166 22.3724 160.216 25.2778 164.191 25.2778ZM160.418 17.8572C160.657 15.6562 161.839 14.0841 163.964 14.0841C166.077 14.0841 167.184 15.5053 167.398 17.0649C167.448 17.3164 167.448 17.5805 167.448 17.8572H160.418ZM176.441 25.2778C178.868 25.2778 181.057 23.9949 181.057 21.3537C181.057 16.6121 174.026 18.3226 174.026 15.6059C174.026 14.6626 174.919 13.9834 176.34 13.9834C177.812 13.9834 178.743 14.8261 179.296 15.8323L180.944 14.9393C180.038 13.2665 178.453 12.2855 176.416 12.2855C174.001 12.2855 171.989 13.5181 171.989 15.8826C171.989 20.3978 178.956 18.4735 178.956 21.4543C178.956 22.5611 178.076 23.4918 176.34 23.4918C174.492 23.4918 173.435 22.3347 173.007 21.1399L171.284 21.8945C171.913 23.8062 173.9 25.2778 176.441 25.2778ZM184.239 9.95873H186.465V7.29236H184.239V9.95873ZM184.289 25.064H186.415V12.4993H184.289V25.064ZM195.659 23.4038C193.42 23.0893 191.747 22.951 191.747 21.6807C191.747 21.1902 191.999 20.838 192.527 20.5865C193.269 20.9638 194.137 21.1776 195.093 21.1776C197.785 21.1776 199.935 19.4671 199.935 16.8133C199.935 15.9455 199.709 15.1531 199.306 14.4991L201.029 13.0653L199.923 11.6818L198.137 13.2288C197.294 12.6251 196.212 12.2855 195.03 12.2855C192.313 12.2855 190.138 14.0966 190.138 16.7001C190.138 17.8195 190.528 18.8005 191.207 19.5677C190.364 20.184 189.911 20.9638 189.911 22.0454C189.911 23.2906 190.54 24.0201 191.408 24.4728L189.672 26.0198C189.647 26.1833 189.635 26.3343 189.635 26.5732C189.635 29.0887 191.71 30.8998 195.407 30.8998C198.489 30.8998 200.753 29.5415 200.753 26.9505C200.753 24.1961 198.137 23.7685 195.659 23.4038ZM195.106 13.9457C196.791 13.9457 197.822 15.0902 197.822 16.7253C197.822 18.31 196.804 19.4294 195.093 19.4294C193.37 19.4294 192.339 18.31 192.339 16.7127C192.339 15.1028 193.408 13.9457 195.106 13.9457ZM195.395 29.227C193.37 29.227 191.836 28.4347 191.584 26.8499L191.546 26.4726L192.729 24.9256C193.458 25.0891 194.225 25.1772 194.917 25.2652C197.219 25.5545 198.728 25.7934 198.728 27.1769C198.728 28.485 197.42 29.227 195.395 29.227ZM203.759 25.064H205.884V17.8195C205.884 15.455 207.155 14.2601 209.154 14.2601C211.054 14.2601 212.047 15.5556 212.047 17.6308V25.064H214.173V17.2409C214.135 14.5494 212.789 12.2855 209.733 12.2855C208.211 12.2855 206.752 12.9773 205.884 14.4111V12.4993H203.759V25.064Z" fill="#222D39"/>
</g>
</svg>
