<svg width="291" height="292" viewBox="0 0 291 292" fill="none" xmlns="http://www.w3.org/2000/svg">
<g filter="url(#filter0_bdi_3_364)">
<rect x="27.8477" y="17.1392" width="234.007" height="234.007" rx="117.003" transform="rotate(-0.561514 27.8477 17.1392)" fill="url(#paint0_linear_3_364)" fill-opacity="0.93" shape-rendering="crispEdges"/>
</g>
<path d="M146 24.999C128.011 24.999 110.312 29.5344 94.5404 38.1858C78.7685 46.8373 65.4322 59.3255 55.7648 74.496C46.0973 89.6664 40.4106 107.029 39.2305 124.98C38.0504 142.93 41.4149 160.888 49.013 177.193C56.6112 193.499 68.1976 207.626 82.7012 218.268C97.2047 228.909 114.157 235.723 131.991 238.078C149.825 240.433 167.966 238.254 184.734 231.742C201.503 225.23 216.36 214.595 227.93 200.821L146 131.999L146 24.999Z" fill="#4ADCF1"/>
<path d="M106.706 32.4753C89.736 39.1754 74.7612 50.1034 63.2043 64.2209C51.6474 78.3384 43.8923 95.1766 40.6759 113.135L146 131.999L106.706 32.4753Z" fill="#56EAFF"/>
<path d="M224.769 183.532C235.26 170.841 241.837 155.309 243.736 138.733C245.636 122.156 242.781 105.213 235.503 89.8619C228.224 74.5113 216.819 61.3811 202.607 51.9904C188.395 42.5996 171.957 37.3321 155.194 36.7971L155.531 125.53L224.769 183.532Z" fill="#625FFB"/>
<defs>
<filter id="filter0_bdi_3_364" x="0.988525" y="-5.45166" width="290.007" height="297.446" filterUnits="userSpaceOnUse" color-interpolation-filters="sRGB">
<feFlood flood-opacity="0" result="BackgroundImageFix"/>
<feGaussianBlur in="BackgroundImageFix" stdDeviation="10.7192"/>
<feComposite in2="SourceAlpha" operator="in" result="effect1_backgroundBlur_3_364"/>
<feColorMatrix in="SourceAlpha" type="matrix" values="0 0 0 0 0 0 0 0 0 0 0 0 0 0 0 0 0 0 127 0" result="hardAlpha"/>
<feOffset dy="14"/>
<feGaussianBlur stdDeviation="14"/>
<feComposite in2="hardAlpha" operator="out"/>
<feColorMatrix type="matrix" values="0 0 0 0 0.804167 0 0 0 0 0.804167 0 0 0 0 0.804167 0 0 0 0.25 0"/>
<feBlend mode="normal" in2="effect1_backgroundBlur_3_364" result="effect2_dropShadow_3_364"/>
<feBlend mode="normal" in="SourceGraphic" in2="effect2_dropShadow_3_364" result="shape"/>
<feColorMatrix in="SourceAlpha" type="matrix" values="0 0 0 0 0 0 0 0 0 0 0 0 0 0 0 0 0 0 127 0" result="hardAlpha"/>
<feOffset dx="-2.57262" dy="2.57262"/>
<feComposite in2="hardAlpha" operator="arithmetic" k2="-1" k3="1"/>
<feColorMatrix type="matrix" values="0 0 0 0 1 0 0 0 0 1 0 0 0 0 1 0 0 0 1 0"/>
<feBlend mode="normal" in2="shape" result="effect3_innerShadow_3_364"/>
</filter>
<linearGradient id="paint0_linear_3_364" x1="241.207" y1="102.473" x2="38.3186" y2="79.4132" gradientUnits="userSpaceOnUse">
<stop stop-color="#F4F4F4"/>
<stop offset="0.421875" stop-color="#F4F4F4"/>
<stop offset="1" stop-color="white"/>
</linearGradient>
</defs>
</svg>
