<svg width="30" height="27" viewBox="0 0 30 27" fill="none" xmlns="http://www.w3.org/2000/svg">
<g clip-path="url(#clip0_3_1105)">
<path d="M27.0968 0.271973H9.83583C8.235 0.271973 6.9326 1.59065 6.9326 3.21149V6.25842L2.58538 10.66C1.85425 11.4002 1.45161 12.3844 1.45161 13.4313V20.6251C0.598004 21.0038 0 21.8671 0 22.8695V24.278C0 25.6287 1.08532 26.7276 2.41935 26.7276H8.80754C10.1416 26.7276 11.2269 25.6287 11.2269 24.278V22.8695C11.2269 22.0936 10.8683 21.4012 10.3105 20.9521L13.6886 15.9885C14.4742 14.8342 14.3338 13.2769 13.3548 12.2855C12.4152 11.3342 10.9665 11.159 9.83195 11.8594L8.86802 12.4546V3.21149C8.86802 2.67123 9.30218 2.23165 9.83577 2.23165H27.0968C27.6304 2.23165 28.0645 2.67123 28.0645 3.21149V14.7858C28.0645 15.3261 27.6304 15.7657 27.0968 15.7657H15.9476C15.4132 15.7657 14.9799 16.2043 14.9799 16.7455C14.9799 17.2867 15.4132 17.7253 15.9476 17.7253H27.0968C28.6976 17.7253 30 16.4067 30 14.7858V3.21149C30 1.59065 28.6976 0.271973 27.0968 0.271973ZM9.29141 24.278C9.29141 24.5481 9.07433 24.7679 8.80754 24.7679H2.41935C2.15256 24.7679 1.93548 24.5481 1.93548 24.278V22.8695C1.93548 22.5994 2.15256 22.3796 2.41935 22.3796H8.80754C9.07433 22.3796 9.29141 22.5994 9.29141 22.8695V24.278ZM6.14939 14.133C5.6931 14.4147 5.54867 15.0176 5.82696 15.4797C6.10518 15.9417 6.70071 16.0878 7.157 15.8062L10.8396 13.5326C11.6986 13.0019 12.6637 14.0407 12.0949 14.8765L8.32228 20.4199H3.3871V13.4313C3.3871 12.9079 3.58845 12.4158 3.95401 12.0457L6.9326 9.02977V13.6494L6.14939 14.133ZM15.4263 7.52302V3.83411C15.4263 3.29294 14.993 2.85428 14.4585 2.85428H10.8151C10.2807 2.85428 9.84738 3.29294 9.84738 3.83411V7.52302C9.84738 8.0642 10.2807 8.50286 10.8151 8.50286H14.4585C14.993 8.50286 15.4263 8.0642 15.4263 7.52302ZM13.4908 6.54319H11.7829V4.81395H13.4908V6.54319ZM23.9315 11.4541C23.397 11.4541 22.9637 11.0155 22.9637 10.4743C22.9637 9.93312 23.397 9.49446 23.9315 9.49446H25.0245C25.559 9.49446 25.9923 9.93312 25.9923 10.4743C25.9923 11.0155 25.559 11.4541 25.0245 11.4541H23.9315ZM13.4908 10.4743C13.4908 9.93312 13.9241 9.49446 14.4585 9.49446H16.6446C17.1791 9.49446 17.6124 9.93312 17.6124 10.4743C17.6124 11.0155 17.1791 11.4541 16.6446 11.4541H14.4585C13.9241 11.4541 13.4908 11.0155 13.4908 10.4743ZM19.195 11.4541C18.6605 11.4541 18.2272 11.0155 18.2272 10.4743C18.2272 9.93312 18.6605 9.49446 19.195 9.49446H21.381C21.9155 9.49446 22.3488 9.93312 22.3488 10.4743C22.3488 11.0155 21.9155 11.4541 21.381 11.4541H19.195Z" fill="white"/>
</g>
<defs>
<clipPath id="clip0_3_1105">
<rect width="30" height="27" fill="white"/>
</clipPath>
</defs>
</svg>
