<svg width="24" height="22" viewBox="0 0 24 22" fill="none" xmlns="http://www.w3.org/2000/svg">
<path fill-rule="evenodd" clip-rule="evenodd" d="M23.2791 11.0645C23.2791 5.11613 18.1297 0.292969 11.7791 0.292969C5.42838 0.292969 0.279053 5.11613 0.279053 11.0645C0.279053 16.4407 4.48374 20.897 9.98218 21.7058V14.1792H7.06149V11.0645H9.98218V8.69143C9.98218 5.99229 11.6995 4.50013 14.326 4.50013C15.5843 4.50013 16.9007 4.71076 16.9007 4.71076V7.36181H15.4498C14.0221 7.36181 13.5754 8.1918 13.5754 9.04487V11.0645H16.7646L16.2553 14.1792H13.5759V21.7068C19.0744 20.8984 23.2791 16.4422 23.2791 11.0645V11.0645Z" fill="white"/>
</svg>
