<svg width="166" height="94" viewBox="0 0 166 94" fill="none" xmlns="http://www.w3.org/2000/svg">
<path fill-rule="evenodd" clip-rule="evenodd" d="M61.617 49.4623C60.627 48.9923 61.617 47.7863 62.087 47.4193C63.077 46.6863 64.383 46.4243 65.583 46.5193L65.479 48.6673C65.427 49.7673 65.166 49.2973 64.383 49.8723C63.548 50.4483 61.723 51.2863 61.618 49.4523L61.617 49.4623ZM98.61 72.3003C100.02 73.2003 102.627 75.8623 100.488 77.1703C98.453 79.0563 97.305 75.0753 95.478 74.5503C96.261 73.5023 97.252 72.5073 98.608 72.2983L98.61 72.3003ZM73.15 75.3383C71.48 75.6003 70.54 77.1183 69.133 77.9053C67.829 78.6913 67.307 77.6433 67.203 77.4353C66.993 77.3303 66.993 77.5403 66.681 77.2353C65.481 75.2973 67.933 73.8833 69.238 72.9403C71.064 72.5203 72.212 74.0923 73.151 75.3403L73.15 75.3383ZM106.49 49.2003C106.386 51.0333 104.56 50.1953 103.725 49.6203C102.942 49.0443 102.682 49.5153 102.629 48.4153L102.525 46.2673C103.725 46.1623 105.029 46.4243 106.021 47.1673C106.543 47.5873 107.481 48.7373 106.491 49.2103L106.49 49.2003Z" fill="#F6D2A2"/>
<path d="M62.6099 50.7702C62.2449 50.7702 61.5669 50.6132 61.4619 49.5652C61.1489 49.3652 61.0449 49.0952 61.0449 48.9352C60.9929 48.3052 61.6709 47.5732 62.0349 47.3112C62.8699 46.6812 63.9649 46.3682 65.1129 46.3682H65.7909V46.5252C65.8429 47.1012 65.7909 47.6772 65.7389 48.2012C65.7389 48.3582 65.7389 48.5152 65.6869 48.6712C65.6349 49.4572 65.4769 49.5712 65.1129 49.7192C64.9559 49.7712 64.7999 49.8242 64.5389 50.0332C64.2789 50.1902 63.3909 50.7662 62.6089 50.7662L62.6099 50.7702ZM65.1139 46.6842C64.0179 46.6842 63.0269 46.9982 62.2439 47.5842C61.8789 47.8462 61.3569 48.4842 61.4089 48.8842C61.4089 49.0412 61.5129 49.1982 61.7219 49.3042L61.8259 49.3562V49.4612C61.8779 50.2992 62.2959 50.4042 62.6089 50.4042C63.1309 50.4042 63.8609 50.0372 64.3309 49.7242C64.6439 49.5242 64.8529 49.4622 65.0089 49.4102C65.2689 49.3052 65.3219 49.3052 65.3739 48.6772C65.3739 48.5202 65.3739 48.3632 65.4259 48.2072C65.4779 47.7372 65.4779 47.2122 65.4779 46.7402C65.3209 46.6882 65.2179 46.6882 65.1129 46.6882L65.1139 46.6842Z" fill="black"/>
<path fill-rule="evenodd" clip-rule="evenodd" d="M61.6169 49.4622C61.8769 49.3572 62.1909 49.3052 62.3469 49.0422L61.6169 49.4622Z" fill="#C6B198"/>
<path d="M61.617 49.6202C61.565 49.6202 61.46 49.5682 61.46 49.5152C61.408 49.4102 61.46 49.3152 61.564 49.3152C61.616 49.3152 61.668 49.2632 61.668 49.2632C61.878 49.1582 62.085 49.1062 62.19 48.9492C62.242 48.8972 62.347 48.8442 62.45 48.8972C62.502 48.9492 62.554 49.0542 62.502 49.1592C62.3298 49.3715 62.0908 49.5191 61.824 49.5782L61.72 49.6302H61.616L61.617 49.6202Z" fill="black"/>
<path fill-rule="evenodd" clip-rule="evenodd" d="M65.8959 27.3052C58.7999 25.3052 64.0699 16.2532 69.7559 19.9722L65.8959 27.3052Z" fill="#6AD7E5"/>
<path d="M65.9999 27.5143L65.8429 27.4623C62.1909 26.4143 62.2429 23.7953 62.3469 23.0103C62.6069 21.0103 64.4869 18.9243 66.9899 18.9243C67.9799 18.9243 68.9199 19.2383 69.8599 19.8673L70.0169 19.9723L65.9999 27.5143ZM66.9899 19.2903C64.6419 19.2903 62.9199 21.2283 62.6599 23.0603C62.3999 24.9463 63.5469 26.4123 65.7899 27.0933L69.4939 20.0233C68.7109 19.5533 67.8769 19.2903 66.9899 19.2903Z" fill="black"/>
<path fill-rule="evenodd" clip-rule="evenodd" d="M97.3569 19.3002C102.94 15.3702 108.053 24.2762 101.531 26.5302L97.3569 19.3002Z" fill="#6AD7E5"/>
<path d="M101.478 26.7303L97.1479 19.2303L97.3049 19.1253C98.3049 18.4453 99.2879 18.0773 100.279 18.0773C102.679 18.0773 104.401 20.0773 104.766 22.0073C104.923 22.7933 105.079 25.4643 101.636 26.6073L101.479 26.7123L101.478 26.7303ZM97.6179 19.3973L101.635 26.3643C103.67 25.6313 104.713 24.0593 104.4 22.1643C104.087 20.3843 102.47 18.5503 100.278 18.5503C99.3909 18.4983 98.5039 18.7503 97.6179 19.3883V19.3973ZM99.3999 77.8523C98.5649 77.8523 97.8349 77.0143 97.1999 76.2283C96.6259 75.5983 96.0519 74.9283 95.4259 74.7083L95.1659 74.6563L95.3229 74.4563C95.9489 73.5563 96.9929 72.4133 98.5579 72.1513H98.6099L98.6619 72.2033C99.5489 72.7793 101.479 74.4033 101.427 75.9233C101.427 76.4993 101.114 76.9713 100.54 77.3373C100.175 77.7043 99.8099 77.8613 99.3919 77.8613L99.3999 77.8523ZM95.7479 74.4473C96.3739 74.7093 96.8959 75.3903 97.4179 75.9673C98.0439 76.7533 98.6699 77.4343 99.3479 77.4343C99.6609 77.4343 99.9739 77.2773 100.288 76.9643H100.34C100.81 76.6503 101.07 76.2843 101.07 75.8123C101.07 74.6073 99.5569 73.0883 98.5129 72.4073C97.5729 72.6693 96.6349 73.3073 95.7479 74.4503V74.4473ZM100.496 77.3273C100.444 77.3273 100.392 77.2753 100.339 77.2223C100.227 77.006 100.14 76.7779 100.079 76.5423C99.9219 76.1223 99.7659 75.7043 99.4529 75.3903C99.4009 75.3383 99.4009 75.2333 99.4529 75.1283C99.5049 75.0763 99.6099 75.0763 99.7129 75.1283C100.078 75.4953 100.287 75.9663 100.443 76.4283L100.703 77.0583C100.755 77.1633 100.703 77.2583 100.651 77.3203H100.494L100.496 77.3273Z" fill="black"/>
<path d="M68.2429 78.3243C67.5649 78.3243 67.1999 77.7483 67.0949 77.5383H67.0429C66.8859 77.5383 66.7829 77.4863 66.5729 77.2763V77.2243C65.4249 75.3913 67.4079 73.9763 68.7129 73.0243L69.1829 72.7103H69.2869C69.4869 72.6583 69.6519 72.6583 69.8609 72.6583C71.4259 72.6583 72.4179 74.0203 73.2609 75.1203L73.5209 75.4873L73.2079 75.5393C72.2079 75.6963 71.4859 76.3253 70.7559 76.9533C70.2859 77.3733 69.8159 77.7393 69.2959 78.0533C68.8789 78.2103 68.5659 78.3153 68.2529 78.3153L68.2429 78.3243ZM67.0949 77.2243C67.1469 77.2243 67.1989 77.2243 67.2949 77.2763H67.3469L67.3989 77.3283C67.5029 77.4853 67.7639 77.9583 68.2859 77.9583C68.5459 77.9583 68.8079 77.8533 69.0689 77.6963C69.5909 77.4343 70.0689 77.0163 70.4689 76.6483C71.1469 76.0723 71.8689 75.4433 72.8169 75.1813C72.0339 74.1333 71.0949 72.9813 69.7909 72.9813C69.6339 72.9813 69.4779 72.9813 69.3209 73.0333L68.9039 73.3473C67.5469 74.2903 65.8779 75.4953 66.8689 77.0673C66.9209 77.1723 66.9729 77.2243 67.0689 77.2243H67.0949ZM67.1989 77.5913C67.0949 77.5913 66.9989 77.4863 67.0419 77.3913C67.0939 76.8673 67.3549 76.4913 67.6159 76.0913C67.7569 75.8934 67.8791 75.6828 67.9809 75.4623C68.0329 75.3573 68.1379 75.3573 68.1809 75.3573C68.2849 75.4093 68.2849 75.5143 68.2849 75.5573C68.1809 75.8193 68.0249 76.0273 67.8679 76.2373C67.6079 76.6043 67.3979 76.9173 67.3459 77.3373C67.3459 77.5373 67.2939 77.5993 67.1889 77.5993L67.1989 77.5913ZM66.2089 24.8433C65.2689 24.3733 64.5919 23.6913 65.1659 22.5913C65.6879 21.5963 66.6789 21.6913 67.6179 22.1713L66.2179 24.8413L66.2089 24.8433ZM100.069 23.9003C101.009 23.4303 101.686 22.7483 101.112 21.6483C100.59 20.6533 99.5989 20.7483 98.6599 21.2283L100.06 23.8983L100.069 23.9003ZM105.547 50.5003C104.764 50.5003 103.877 49.9243 103.617 49.7673C103.357 49.6103 103.2 49.5053 103.043 49.4533C102.626 49.2963 102.521 49.1913 102.469 48.4053C102.469 48.2483 102.469 48.0913 102.417 47.9353C102.365 47.4113 102.313 46.8353 102.365 46.2593V46.0993H103.043C104.191 46.0993 105.286 46.4133 106.121 47.0423C106.486 47.3043 107.164 48.0373 107.121 48.6663C107.121 48.8663 107.017 49.1363 106.704 49.2963C106.6 50.3443 105.921 50.5013 105.556 50.5013L105.547 50.5003ZM102.677 46.4673L102.729 47.9343C102.729 48.0913 102.729 48.2483 102.781 48.4043C102.833 49.0343 102.885 49.0343 103.146 49.1373C103.303 49.1893 103.511 49.2943 103.824 49.4513C104.294 49.7653 105.024 50.1313 105.546 50.1313C105.859 50.1313 106.276 50.0263 106.329 49.1883V49.0833L106.433 49.0313C106.633 48.9263 106.746 48.8313 106.746 48.6113C106.798 48.1913 106.276 47.5633 105.911 47.3113C105.128 46.7353 104.085 46.4113 103.041 46.4113C102.937 46.4633 102.841 46.4633 102.676 46.4633L102.677 46.4673Z" fill="black"/>
<path fill-rule="evenodd" clip-rule="evenodd" d="M106.487 49.2002C106.227 49.0952 105.913 49.0432 105.757 48.7802L106.487 49.2002Z" fill="#C6B198"/>
<path d="M106.487 49.4002H106.435L106.331 49.3482C106.071 49.2432 105.809 49.1912 105.653 48.9282C105.601 48.8762 105.601 48.7282 105.705 48.6662C105.757 48.6142 105.915 48.6142 105.965 48.7182C106.069 48.8752 106.278 48.9182 106.487 49.0322C106.539 49.0322 106.591 49.0842 106.591 49.0842C106.695 49.1362 106.748 49.2412 106.695 49.2842C106.642 49.3272 106.538 49.3892 106.485 49.3892L106.487 49.4002Z" fill="black"/>
<path fill-rule="evenodd" clip-rule="evenodd" d="M83.374 15.5702C90.47 15.5702 97.096 16.5652 100.591 23.4272C103.721 31.0752 102.574 39.3512 103.095 47.4702C103.512 54.4372 104.399 62.4502 101.217 68.8942C97.827 75.6512 89.374 77.3802 82.434 77.1182C76.956 76.9182 70.382 75.1182 67.251 70.0982C63.651 64.2312 65.321 55.4842 65.581 48.9362C65.894 41.1842 63.494 33.3792 66.051 25.8362C68.608 17.9362 75.703 16.1362 83.373 15.5692" fill="#6AD7E5"/>
<path d="M83.635 77.3302H82.33C80.19 77.2782 76.956 76.9102 73.773 75.6002C70.695 74.3432 68.451 72.5622 66.99 70.2052C64.068 65.4382 64.59 58.8912 65.06 53.0752L65.32 48.9372C65.424 46.2132 65.216 43.3852 64.955 40.7132C64.538 35.7892 64.12 30.7082 65.738 25.7832C66.99 22.1162 69.234 19.4972 72.625 17.8212C75.285 16.5212 78.573 15.7782 83.268 15.4212C90.258 15.3692 97.198 16.3642 100.694 23.3212C102.99 28.9262 102.99 34.9512 103.042 40.7642C103.042 42.9642 103.042 45.2162 103.199 47.4162C103.251 48.0962 103.303 48.7782 103.303 49.4592C103.72 55.8592 104.19 63.0792 101.268 68.9452C99.808 71.9312 97.251 74.1312 93.755 75.5452C90.938 76.6972 87.39 77.3252 83.633 77.3252L83.635 77.3302ZM83.375 15.7302C76.018 16.3062 68.818 17.9302 66.158 25.8922C64.541 30.7622 64.958 35.7922 65.375 40.6622C65.585 43.3862 65.845 46.1622 65.74 48.9382C65.688 50.2382 65.583 51.6082 65.48 53.0762C65.01 58.8382 64.49 65.3332 67.358 69.9962C68.558 71.9342 72.418 76.5442 82.384 76.9102H83.688C95.218 76.9102 99.498 71.7772 101.062 68.7402C103.932 62.9782 103.462 55.7402 103.097 49.4102C103.045 48.7302 102.993 48.0482 102.993 47.3672C102.889 45.1672 102.836 42.9152 102.836 40.7152C102.784 34.9532 102.784 28.9292 100.54 23.3772C98.975 20.2772 96.627 18.1912 93.392 16.9772C90.052 15.8772 86.296 15.7202 83.375 15.7202V15.7302Z" fill="black"/>
<path fill-rule="evenodd" clip-rule="evenodd" d="M84.626 25.1052C84.209 18.2432 94.696 16.3572 96.261 23.0622C97.983 30.5622 85.878 32.5422 84.626 25.1052ZM70.174 26.3002C68.557 18.3382 81.287 16.8702 81.757 24.6242C82.122 31.1192 71.844 32.7442 70.174 26.3002Z" fill="white"/>
<path d="M90.365 29.9763C88.017 29.9763 85.043 28.7193 84.417 25.1563C84.313 23.4803 84.834 21.9613 85.93 20.8083C87.13 19.5083 88.956 18.7653 90.834 18.7653C93.034 18.7653 95.634 19.9173 96.364 23.1133C96.781 24.8933 96.468 26.4653 95.477 27.7133C94.381 29.0753 92.451 29.9653 90.364 29.9653L90.365 29.9763ZM84.782 25.1063C85.042 26.5733 85.722 27.7263 86.817 28.5633C87.757 29.2963 89.06 29.6633 90.365 29.6633C92.295 29.6633 94.165 28.8253 95.217 27.5153C96.157 26.3633 96.417 24.8453 96.052 23.1673C95.374 20.1813 92.922 19.1343 90.835 19.1343C89.061 19.1343 87.339 19.8673 86.192 21.0723C85.192 22.1203 84.679 23.5343 84.792 25.1053L84.782 25.1063ZM89.322 24.7923C89.322 25.8403 88.539 26.6783 87.6 26.6783C86.661 26.6783 85.878 25.8403 85.878 24.7923C85.878 23.7443 86.661 22.9063 87.6 22.9063C88.539 22.9063 89.322 23.7443 89.322 24.7923ZM75.652 30.6053C73.409 30.6053 70.8 29.5053 69.965 26.3623C69.6 24.5293 69.965 22.8623 71.008 21.5953C72.156 20.1813 74.034 19.3433 76.068 19.3433C78.781 19.3433 81.651 20.9673 81.868 24.6433C81.972 26.1633 81.503 27.5233 80.468 28.6233C79.372 29.8283 77.546 30.6233 75.668 30.6233L75.652 30.6053ZM76.07 19.7003C74.14 19.7003 72.366 20.4863 71.27 21.7953C70.27 23.0003 69.966 24.5193 70.33 26.2473C71.06 29.1803 73.565 30.2273 75.652 30.2273C77.426 30.2273 79.148 29.5473 80.252 28.3413C80.7197 27.8485 81.0778 27.2622 81.3026 26.621C81.5273 25.9798 81.6137 25.2982 81.556 24.6213C81.452 22.3693 79.939 19.6973 76.078 19.6973L76.07 19.7003ZM74.766 25.2523C74.766 26.3003 73.983 27.1383 73.044 27.1383C72.105 27.1383 71.322 26.3003 71.322 25.2523C71.322 24.2043 72.105 23.3663 73.044 23.3663C73.983 23.3663 74.766 24.2043 74.766 25.2523Z" fill="black"/>
<path fill-rule="evenodd" clip-rule="evenodd" d="M86.087 34.0002C86.087 34.9432 86.297 36.0432 86.139 37.1002C85.879 37.5702 85.409 37.6242 84.991 37.7802C84.417 37.6752 83.948 37.3102 83.687 36.7852C83.53 35.6332 83.739 34.4802 83.791 33.3282L86.087 34.0082V34.0002Z" fill="white"/>
<path d="M84.9899 38.0003C84.3119 37.8953 83.7899 37.4763 83.5299 36.9003C83.4259 36.0623 83.4779 35.2763 83.5299 34.5003C83.5819 34.1333 83.5819 33.7673 83.5819 33.4003V33.2003L86.2419 34.0383V34.1433C86.2419 34.4573 86.2939 34.7733 86.2939 35.1383C86.3459 35.8183 86.3979 36.5523 86.2939 37.2333V37.2853C86.0839 37.7053 85.7199 37.8093 85.3539 37.9653C85.2499 37.9133 85.1439 37.9653 84.9889 38.0173L84.9899 38.0003ZM83.8419 36.7433C84.0519 37.2133 84.4679 37.5293 84.9379 37.6433C85.0419 37.5913 85.1479 37.5913 85.1979 37.5383C85.5109 37.4333 85.7719 37.3383 85.9279 37.0683C86.0319 36.4383 85.9799 35.7683 85.9279 35.0683C85.9279 34.7543 85.8759 34.4383 85.8759 34.1683L83.8929 33.5383C83.8929 33.8523 83.8409 34.1683 83.8409 34.4383C83.7889 35.2763 83.7369 36.0083 83.8409 36.7433H83.8419Z" fill="black"/>
<path fill-rule="evenodd" clip-rule="evenodd" d="M74.2 25.6802C74.2 25.9422 74 26.1502 73.783 26.1502C73.566 26.1502 73.366 25.9502 73.366 25.6802C73.366 25.4102 73.566 25.2102 73.783 25.2102C74.043 25.2102 74.2 25.4102 74.2 25.6802ZM88.8 25.2002C88.8 25.4622 88.643 25.6702 88.383 25.6702C88.183 25.6702 87.966 25.4702 87.966 25.2002C87.966 24.9302 88.123 24.7302 88.383 24.7302C88.583 24.7302 88.8 24.9302 88.8 25.2002ZM81.078 33.9052C80.295 35.7382 81.495 39.4572 83.582 36.7352C83.425 35.5832 83.634 34.4302 83.686 33.2782L81.086 33.9082L81.078 33.9052Z" fill="white"/>
<path d="M82.1739 37.8862C81.8089 37.8862 81.4439 37.6862 81.1839 37.2562C80.6099 36.4182 80.5059 34.8562 80.9239 33.8512L80.9759 33.7462L83.8459 33.0132V33.2132L83.7939 34.3652C83.7419 35.1512 83.6899 35.8852 83.7939 36.6702V36.7222L83.7419 36.7742C83.2199 37.5072 82.6989 37.8742 82.1769 37.8742L82.1739 37.8862ZM81.2339 34.0622C80.9209 34.9622 81.0239 36.3672 81.4939 37.0482C81.7039 37.3622 81.9109 37.5182 82.1719 37.5182C82.5369 37.5182 82.9549 37.2042 83.3719 36.6802C83.2679 35.8942 83.3199 35.1102 83.4239 34.3752L83.4759 33.4752L81.2329 34.0512L81.2339 34.0622Z" fill="black"/>
<path fill-rule="evenodd" clip-rule="evenodd" d="M81.34 30.3432C79.93 30.4482 78.783 32.1762 79.514 33.4862C80.504 35.2662 82.644 33.3292 84.001 33.4862C85.566 33.5382 86.818 35.1622 88.071 33.8002C89.481 32.2802 87.445 30.8142 85.931 30.1332L81.341 30.3332L81.34 30.3432Z" fill="#F6D2A2"/>
<path d="M86.9739 34.5333C86.5039 34.5333 86.0339 34.3333 85.5639 34.1133C85.0939 33.8933 84.5739 33.6933 83.9989 33.6933H83.8419C83.4249 33.6933 82.9549 33.8503 82.4319 34.0603C81.8579 34.2603 81.2839 34.4273 80.7619 34.4273C80.1359 34.4273 79.6659 34.1653 79.3519 33.5893C78.9869 32.9593 79.0389 32.2273 79.4039 31.5463C79.8209 30.7603 80.5519 30.2893 81.3339 30.1843L86.0299 29.9843C87.1779 30.4543 88.4819 31.3463 88.7429 32.3843C88.8469 32.9083 88.6909 33.4323 88.2729 33.9043C87.8549 34.3763 87.4379 34.5343 86.9689 34.5343L86.9739 34.5333ZM84.0519 33.3813C84.6259 33.3813 85.1999 33.6433 85.7219 33.8513C86.1919 34.0513 86.6089 34.2183 87.0259 34.2183C87.3909 34.2183 87.7039 34.0613 88.0159 33.7483C88.1765 33.5952 88.2982 33.406 88.3707 33.1964C88.4433 32.9868 88.4646 32.7628 88.4329 32.5433C88.2229 31.6433 86.9729 30.8133 85.9809 30.3953L81.4409 30.5953C80.7629 30.6473 80.1369 31.1193 79.7709 31.7473C79.4579 32.3233 79.4579 32.9523 79.7189 33.4773C79.9789 33.9473 80.2929 34.1573 80.8149 34.1573C81.2849 34.1573 81.8049 33.9573 82.3279 33.7903C82.9019 33.5903 83.3709 33.4233 83.8929 33.4233C83.8929 33.3183 83.9449 33.3183 84.0499 33.3713L84.0519 33.3813Z" fill="#231F20"/>
<path d="M81.1829 30.3003C81.0789 27.8383 85.7729 27.5243 86.2959 29.5673C86.8699 31.6623 81.3919 32.1343 81.1829 30.3003Z" fill="black"/>
</svg>
