<svg width="310" height="289" viewBox="0 0 310 289" fill="none" xmlns="http://www.w3.org/2000/svg">
<path d="M154.419 289.009C126.06 289.009 98.2526 281.643 74.0721 267.727C49.8916 253.81 30.2797 233.885 17.4048 210.153C4.52979 186.421 -1.10674 159.808 1.11833 133.255C3.34339 106.703 13.3434 81.2454 30.0127 59.6975L85.9957 97.8977C76.8275 109.749 71.3275 123.751 70.1038 138.355C68.88 152.958 71.9801 167.596 79.0613 180.648C86.1425 193.701 96.929 204.66 110.228 212.314C123.528 219.968 138.822 224.019 154.419 224.019V289.009Z" fill="#FF83BE"/>
<path d="M309.138 140.076C309.784 159.503 306.248 178.854 298.742 196.967C291.236 215.081 279.914 231.585 265.454 245.491C250.994 259.397 233.694 270.419 214.591 277.896C195.487 285.373 174.973 289.151 154.278 289.005L154.8 224.017C166.182 224.097 177.465 222.019 187.972 217.907C198.479 213.795 207.994 207.733 215.947 200.084C223.9 192.436 230.127 183.359 234.255 173.396C238.384 163.434 240.328 152.791 239.973 142.106L309.138 140.076Z" fill="#49BAFD"/>
<path d="M29.4732 60.3994C48.4032 35.6182 75.2005 17.1015 106.024 7.50309C136.848 -2.09529 170.117 -2.28256 201.061 6.96811C232.005 16.2188 259.037 34.4325 278.282 58.9988C297.527 83.565 307.997 113.223 308.192 143.721L238.994 144.111C238.887 127.337 233.128 111.025 222.544 97.5134C211.959 84.0019 197.092 73.9844 180.072 68.8965C163.053 63.8086 144.755 63.9116 127.802 69.1907C110.849 74.4698 96.1104 84.654 85.6989 98.2837L29.4732 60.3994Z" fill="#625FFB"/>
</svg>
