<svg width="35" height="29" viewBox="0 0 35 29" fill="none" xmlns="http://www.w3.org/2000/svg">
<path d="M33.9638 4.41644L28.3104 10.052L24.9235 6.67721L30.5769 1.04377C27.4243 -0.489902 23.0021 -0.496176 20.3841 2.11385C17.9217 4.56772 17.6143 8.43047 18.8127 11.4692L6.24607 23.9352C6.16807 24.0129 6.10619 24.1052 6.06396 24.2069C6.02174 24.3086 6 24.4176 6 24.5277C6 24.6378 6.02174 24.7468 6.06396 24.8485C6.10619 24.9502 6.16807 25.0426 6.24607 25.1203L9.89022 28.753C9.96794 28.831 10.0603 28.8928 10.162 28.9351C10.2637 28.9773 10.3727 28.999 10.4828 28.999C10.5929 28.999 10.702 28.9773 10.8036 28.9351C10.9053 28.8928 10.9977 28.831 11.0754 28.753L23.6246 16.1699C26.6337 17.3 30.457 16.9814 32.879 14.5665C35.4934 11.9558 35.4878 7.57162 33.9638 4.41644Z" fill="#CFCFCF"/>
<path d="M25.2893 18.1684L20.3185 23.1882L25.5454 28.7601C25.6146 28.8343 25.698 28.8937 25.7905 28.9347C25.883 28.9757 25.9827 28.9976 26.0838 28.999C26.1849 29.0003 26.2852 28.9812 26.3787 28.9426C26.4723 28.9041 26.5572 28.847 26.6284 28.7747L30.7806 24.5595C30.8516 24.4871 30.9075 24.4011 30.9452 24.3065C30.9829 24.212 31.0015 24.1109 30.9999 24.0091C30.9984 23.9073 30.9767 23.8068 30.9362 23.7135C30.8957 23.6202 30.8371 23.5359 30.7639 23.4657L25.2893 18.1684ZM8.23427 11.4322C8.23427 11.0927 7.95746 10.7817 7.71871 10.5412L7.70141 10.5245L7.59484 10.422C7.58822 10.4144 7.58321 10.4056 7.58011 10.396C7.57702 10.3864 7.57591 10.3762 7.57684 10.3662C7.77702 10.2527 8.00705 10.204 8.23565 10.2268C8.32354 10.2358 8.64464 10.2895 9.09377 10.5691C9.32768 10.7148 11.3519 12.6767 12.1339 13.4066C11.9967 13.5511 11.921 13.7438 11.9228 13.9437C11.9246 14.1436 12.0038 14.3349 12.1435 14.4768L12.6577 15.0248L17.2016 10.4812L16.6307 9.93464C16.4903 9.79329 16.3002 9.71354 16.1018 9.71275C15.9033 9.71197 15.7126 9.79022 15.5712 9.93046C13.9795 8.2098 13.5643 7.45893 13.4259 6.9709C13.12 5.89235 13.7124 5.01878 14.3947 4.46103C14.7989 4.13893 15.6321 3.8977 16.4016 3.83356C16.6701 3.81762 16.9396 3.83165 17.205 3.87539C17.4452 3.91025 17.641 3.95487 17.7164 3.973C17.9776 4.04391 18.2323 4.13721 18.4777 4.25187L19.3081 2.92721C19.0517 2.47824 18.7402 2.06363 18.3808 1.69319C18.2648 1.57089 18.145 1.4523 18.0216 1.33763C17.4832 0.839139 16.0839 -0.000971609 14.2438 -0.000971609C13.1811 -0.00214953 12.1285 0.206771 11.1456 0.613948C8.55468 1.68343 6.86336 3.14125 6.08622 3.91513L6.08137 3.92001C5.55914 4.44872 5.07597 5.01519 4.63572 5.61487C4.26549 6.13985 4.30563 6.71922 4.33262 7.10267C4.33262 7.12498 4.33262 7.14938 4.33746 7.17239C4.12045 7.01404 3.85941 6.92865 3.59145 6.92837C3.42547 6.92722 3.26094 6.9595 3.10751 7.02331C2.95409 7.08713 2.81488 7.18119 2.69804 7.29997L0.13754 9.8719C0.0494721 9.96067 0 10.081 0 10.2065C0 10.3321 0.0494721 10.4524 0.13754 10.5412L4.49732 14.9181C4.58452 15.0059 4.70275 15.0552 4.82603 15.0552C4.94931 15.0552 5.06754 15.0059 5.15475 14.9181L7.7194 12.3385C7.95746 12.0987 8.23427 11.771 8.23427 11.4322Z" fill="#CFCFCF"/>
</svg>
