<svg width="62" height="58" viewBox="0 0 62 58" fill="none" xmlns="http://www.w3.org/2000/svg">
<rect x="0.648926" y="0.427429" width="61.1026" height="57.3863" rx="16.8327" fill="#56EAFF"/>
<path fill-rule="evenodd" clip-rule="evenodd" d="M38.2578 44.424H24.3017C19.1753 44.424 15.2425 42.685 16.3596 35.6858L17.6603 26.2003C18.349 22.7079 20.7209 21.3713 22.8021 21.3713H39.8187C41.9305 21.3713 44.1646 22.8085 44.9604 26.2003L46.2611 35.6858C47.2099 41.8945 43.3842 44.424 38.2578 44.424Z" stroke="white" stroke-width="1.68327" stroke-linecap="round" stroke-linejoin="round"/>
<path opacity="0.4" d="M38.4891 21.0267C38.4891 17.2802 35.2553 14.243 31.2662 14.243C29.3453 14.2355 27.5002 14.9468 26.139 16.2198C24.7779 17.4928 24.0127 19.2226 24.0127 21.0267" stroke="white" stroke-width="1.68327" stroke-linecap="round" stroke-linejoin="round"/>
<path d="M36.2242 28.0975H36.1479" stroke="white" stroke-width="1.68327" stroke-linecap="round" stroke-linejoin="round"/>
<path d="M26.4757 28.0974H26.3994" stroke="white" stroke-width="1.68327" stroke-linecap="round" stroke-linejoin="round"/>
</svg>
