<svg width="62" height="58" viewBox="0 0 62 58" fill="none" xmlns="http://www.w3.org/2000/svg">
<rect x="0.649414" y="0.396912" width="61.1026" height="57.3863" rx="16.8327" fill="#625FFB"/>
<path d="M26.7373 27.1645V32.7164" stroke="white" stroke-width="1.68327" stroke-linecap="round" stroke-linejoin="round"/>
<path d="M29.7513 29.9407H23.7197" stroke="white" stroke-width="1.68327" stroke-linecap="round" stroke-linejoin="round"/>
<path d="M37.0235 27.3333H36.8547" stroke="white" stroke-width="1.68327" stroke-linecap="round" stroke-linejoin="round"/>
<path d="M39.8878 32.633H39.719" stroke="white" stroke-width="1.68327" stroke-linecap="round" stroke-linejoin="round"/>
<path opacity="0.4" d="M25.5112 11.8742C25.5112 12.972 26.478 13.8619 27.6706 13.8619H29.3383C31.1782 13.868 32.6685 15.2398 32.6769 16.9334V17.9342" stroke="white" stroke-width="1.68327" stroke-linecap="round" stroke-linejoin="round"/>
<path fill-rule="evenodd" clip-rule="evenodd" d="M38.7004 41.4682C33.9568 41.5436 29.3001 41.5405 24.722 41.4682C19.6405 41.4682 15.9255 38.0641 15.9255 33.3867V26.4938C15.9255 21.8164 19.6405 18.4123 24.722 18.4123C29.3252 18.3384 33.9852 18.34 38.7004 18.4123C43.7819 18.4123 47.4952 21.818 47.4952 26.4938V33.3867C47.4952 38.0641 43.7819 41.4682 38.7004 41.4682Z" stroke="white" stroke-width="1.68327" stroke-linecap="round" stroke-linejoin="round"/>
</svg>
