<svg width="23" height="22" viewBox="0 0 23 22" fill="none" xmlns="http://www.w3.org/2000/svg">
<path d="M15.7868 2.07573C17.0156 2.07926 18.193 2.55055 19.0619 3.38667C19.9308 4.22278 20.4206 5.35579 20.4242 6.53823V15.4623C20.4206 16.6447 19.9308 17.7777 19.0619 18.6138C18.193 19.45 17.0156 19.9212 15.7868 19.9248H6.51288C5.28408 19.9212 4.10666 19.45 3.23776 18.6138C2.36887 17.7777 1.8791 16.6447 1.87543 15.4623V6.53823C1.8791 5.35579 2.36887 4.22278 3.23776 3.38667C4.10666 2.55055 5.28408 2.07926 6.51288 2.07573H15.7868V2.07573ZM15.7868 0.291016H6.51288C2.94213 0.291016 0.020752 3.10219 0.020752 6.53823V15.4623C0.020752 18.8983 2.94213 21.7095 6.51288 21.7095H15.7868C19.3575 21.7095 22.2789 18.8983 22.2789 15.4623V6.53823C22.2789 3.10219 19.3575 0.291016 15.7868 0.291016V0.291016Z" fill="white"/>
<path d="M17.1781 6.53864C16.9029 6.53864 16.634 6.46013 16.4052 6.31303C16.1764 6.16594 15.9981 5.95687 15.8928 5.71226C15.7875 5.46766 15.76 5.1985 15.8137 4.93882C15.8673 4.67915 15.9998 4.44063 16.1944 4.25341C16.3889 4.0662 16.6368 3.9387 16.9067 3.88705C17.1765 3.8354 17.4562 3.86191 17.7104 3.96323C17.9646 4.06455 18.1819 4.23613 18.3348 4.45627C18.4876 4.67641 18.5692 4.93522 18.5692 5.19998C18.5696 5.37588 18.5339 5.55013 18.4641 5.71271C18.3943 5.87529 18.2919 6.02302 18.1626 6.1474C18.0334 6.27178 17.8799 6.37037 17.7109 6.43751C17.5419 6.50465 17.3609 6.53902 17.1781 6.53864V6.53864ZM11.15 7.43076C11.8837 7.43076 12.601 7.64013 13.2111 8.03239C13.8212 8.42466 14.2967 8.9822 14.5775 9.63452C14.8582 10.2868 14.9317 11.0046 14.7886 11.6971C14.6454 12.3896 14.2921 13.0257 13.7733 13.525C13.2544 14.0242 12.5934 14.3642 11.8737 14.502C11.1541 14.6397 10.4082 14.569 9.73029 14.2988C9.0524 14.0286 8.473 13.5711 8.06536 12.984C7.65771 12.3969 7.44013 11.7067 7.44013 11.0007C7.44118 10.0542 7.83238 9.14674 8.52789 8.47747C9.22339 7.80821 10.1664 7.43177 11.15 7.43076V7.43076ZM11.15 5.64604C10.0494 5.64604 8.97358 5.96008 8.0585 6.54846C7.14341 7.13683 6.43019 7.97311 6.00903 8.95154C5.58786 9.92997 5.47766 11.0066 5.69237 12.0453C5.90708 13.084 6.43705 14.0381 7.21527 14.7869C7.99348 15.5358 8.98499 16.0458 10.0644 16.2524C11.1438 16.459 12.2627 16.353 13.2794 15.9477C14.2962 15.5424 15.1653 14.8561 15.7767 13.9755C16.3882 13.095 16.7145 12.0597 16.7145 11.0007C16.7145 9.58053 16.1283 8.21856 15.0847 7.21437C14.0412 6.21019 12.6258 5.64604 11.15 5.64604V5.64604Z" fill="white"/>
</svg>
