<svg width="24" height="23" viewBox="0 0 24 23" fill="none" xmlns="http://www.w3.org/2000/svg">
<path d="M16.5263 2.57524C17.7551 2.57877 18.9325 3.05006 19.8014 3.88618C20.6703 4.72229 21.1601 5.8553 21.1637 7.03774V15.9618C21.1601 17.1442 20.6703 18.2772 19.8014 19.1134C18.9325 19.9495 17.7551 20.4208 16.5263 20.4243H7.25238C6.02358 20.4208 4.84616 19.9495 3.97727 19.1134C3.10837 18.2772 2.6186 17.1442 2.61493 15.9618V7.03774C2.6186 5.8553 3.10837 4.72229 3.97727 3.88618C4.84616 3.05006 6.02358 2.57877 7.25238 2.57524H16.5263ZM16.5263 0.790527H7.25238C3.68164 0.790527 0.760254 3.6017 0.760254 7.03774V15.9618C0.760254 19.3978 3.68164 22.209 7.25238 22.209H16.5263C20.097 22.209 23.0184 19.3978 23.0184 15.9618V7.03774C23.0184 3.6017 20.097 0.790527 16.5263 0.790527Z" fill="white"/>
<path d="M17.9176 7.03815C17.6424 7.03815 17.3735 6.95964 17.1447 6.81255C16.9159 6.66545 16.7376 6.45638 16.6323 6.21178C16.527 5.96717 16.4995 5.69801 16.5532 5.43834C16.6068 5.17866 16.7393 4.94014 16.9339 4.75292C17.1284 4.56571 17.3763 4.43821 17.6462 4.38656C17.916 4.33491 18.1957 4.36142 18.4499 4.46274C18.7041 4.56406 18.9214 4.73564 19.0743 4.95578C19.2271 5.17592 19.3087 5.43473 19.3087 5.69949C19.3091 5.8754 19.2734 6.04964 19.2036 6.21222C19.1338 6.37481 19.0314 6.52253 18.9021 6.64691C18.7729 6.77129 18.6194 6.86988 18.4504 6.93702C18.2814 7.00416 18.1004 7.03853 17.9176 7.03815ZM11.8895 7.93027C12.6232 7.93027 13.3405 8.13964 13.9506 8.53191C14.5607 8.92417 15.0362 9.48171 15.317 10.134C15.5977 10.7863 15.6712 11.5041 15.5281 12.1966C15.3849 12.8891 15.0316 13.5252 14.5128 14.0245C13.9939 14.5237 13.3329 14.8637 12.6132 15.0015C11.8936 15.1392 11.1477 15.0685 10.4698 14.7983C9.7919 14.5281 9.2125 14.0706 8.80486 13.4835C8.39721 12.8964 8.17963 12.2062 8.17963 11.5002C8.18069 10.5537 8.57188 9.64625 9.26739 8.97699C9.96289 8.30772 10.9059 7.93128 11.8895 7.93027ZM11.8895 6.14555C10.7889 6.14555 9.71308 6.4596 8.798 7.04797C7.88292 7.63634 7.1697 8.47262 6.74853 9.45105C6.32736 10.4295 6.21717 11.5061 6.43187 12.5448C6.64658 13.5835 7.17655 14.5376 7.95477 15.2865C8.73298 16.0353 9.72449 16.5453 10.8039 16.7519C11.8833 16.9585 13.0022 16.8525 14.0189 16.4472C15.0357 16.0419 15.9048 15.3556 16.5162 14.475C17.1277 13.5945 17.454 12.5592 17.454 11.5002C17.454 10.08 16.8678 8.71807 15.8242 7.71389C14.7807 6.7097 13.3653 6.14555 11.8895 6.14555Z" fill="white"/>
</svg>
