<svg width="166" height="94" viewBox="0 0 166 94" fill="none" xmlns="http://www.w3.org/2000/svg">
<path d="M49.047 61.6522C49.047 61.6522 46.987 62.8472 50.513 63.2522C54.785 63.7382 56.968 63.6682 61.675 62.7802C61.675 62.7802 62.913 63.5542 64.641 64.2252C54.088 68.7372 40.758 63.9652 49.047 61.6532V61.6522ZM47.757 55.7632C47.757 55.7632 45.457 57.4692 48.975 57.8332C53.538 58.3032 57.142 58.3412 63.377 57.1332C63.377 57.1332 64.24 58.0052 65.597 58.4832C52.837 62.2052 38.627 58.7772 47.757 55.7532" fill="#5382A1"/>
<path d="M58.63 45.7752C61.23 48.7622 57.947 51.4502 57.947 51.4502C57.947 51.4502 64.549 48.0502 61.517 43.7902C58.685 39.8202 56.513 37.8462 68.27 31.0432C68.27 31.0432 49.816 35.6412 58.63 45.7752Z" fill="#E76F00"/>
<path d="M72.586 66.0082C72.586 66.0082 74.11 67.2612 70.906 68.2312C64.816 70.0712 45.554 70.6282 40.203 68.3042C38.28 67.4692 41.887 66.3102 43.021 66.0672C44.204 65.8112 44.881 65.8592 44.881 65.8592C42.741 64.3562 31.055 68.8112 38.945 70.0872C60.461 73.5672 78.167 68.5192 72.585 66.0072L72.586 66.0082ZM50.038 49.6622C50.038 49.6622 40.241 51.9842 46.568 52.8272C49.24 53.1842 54.566 53.1032 59.528 52.6872C63.583 52.3472 67.654 51.6202 67.654 51.6202C67.654 51.6202 66.224 52.2302 65.19 52.9352C55.24 55.5452 36.02 54.3312 41.554 51.6612C46.234 49.4042 50.038 49.6612 50.038 49.6612V49.6622ZM67.613 59.4632C77.727 54.2192 73.051 49.1802 69.787 49.8592C68.987 50.0252 68.63 50.1592 68.63 50.1592C68.63 50.1592 68.927 49.6952 69.494 49.4942C75.951 47.2292 80.917 56.1742 67.41 59.7172C67.41 59.7172 67.567 59.5772 67.613 59.4532" fill="#5382A1"/>
<path d="M61.516 20.0582C61.516 20.0582 67.116 25.6582 56.204 34.2452C47.452 41.1412 54.208 45.0722 56.2 49.5652C51.092 44.9652 47.343 40.9182 49.858 37.1512C53.548 31.6212 63.776 28.9392 61.516 20.0592" fill="#E76F00"/>
<path d="M51.032 73.6732C60.74 74.2932 75.647 73.3292 76 68.7462C76 68.7462 75.32 70.4832 67.977 71.8632C59.691 73.4192 49.472 73.2372 43.41 72.2402C43.41 72.2402 44.65 73.2642 51.03 73.6732" fill="#5382A1"/>
<path d="M104.385 55.7622C103.468 56.5492 102.499 56.9922 101.63 56.9922C100.39 56.9922 99.72 56.2562 99.72 55.0742C99.72 53.7962 100.438 52.8622 103.32 52.8622H104.386V55.7622H104.385ZM106.915 58.5882V49.8402C106.915 47.6052 105.627 46.1402 102.522 46.1402C100.709 46.1402 99.122 46.5832 97.832 47.1482L98.204 48.6982C99.22 48.3282 100.534 47.9852 101.826 47.9852C103.616 47.9852 104.384 48.6982 104.384 50.1712V51.2772H103.491C99.145 51.2772 97.185 52.9472 97.185 55.4532C97.185 57.6162 98.477 58.8452 100.909 58.8452C102.472 58.8452 103.639 58.2052 104.731 57.2712L104.929 58.5992H106.914L106.915 58.5882ZM115.361 58.5882H112.205L108.405 46.3522H111.161L113.518 53.8702L114.042 56.1302C115.234 52.8602 116.078 49.5442 116.5 46.3502H119.18C118.46 50.3802 117.17 54.8022 115.358 58.5862L115.361 58.5882ZM127.469 55.7622C126.549 56.5492 125.579 56.9922 124.709 56.9922C123.469 56.9922 122.799 56.2562 122.799 55.0742C122.799 53.7962 123.519 52.8622 126.399 52.8622H127.467V55.7622H127.469ZM129.999 58.5882V49.8402C129.999 47.6052 128.709 46.1402 125.607 46.1402C123.793 46.1402 122.205 46.5832 120.915 47.1482L121.287 48.6982C122.303 48.3282 123.621 47.9852 124.911 47.9852C126.698 47.9852 127.469 48.6982 127.469 50.1712V51.2772H126.575C122.228 51.2772 120.269 52.9472 120.269 55.4532C120.269 57.6162 121.559 58.8452 123.992 58.8452C125.556 58.8452 126.722 58.2052 127.816 57.2712L128.016 58.5992H130L129.999 58.5882ZM94.411 60.6662C93.7 61.7102 92.525 62.5332 91.25 63.0002L90 61.5452C90.97 61.0522 91.804 60.2452 92.19 59.5152C92.525 58.8552 92.663 58.0152 92.663 55.9712V42.0002H95.353V55.7782C95.353 58.4962 95.133 59.5952 94.413 60.6662H94.411Z" fill="#E76F00"/>
</svg>
