<svg width="23" height="23" viewBox="0 0 23 23" fill="none" xmlns="http://www.w3.org/2000/svg">
<path d="M20.4999 0.625H2.34796C1.3561 0.625 0.489502 1.33867 0.489502 2.31887V20.5111C0.489502 21.4967 1.3561 22.3749 2.34796 22.3749H20.4946C21.4918 22.3749 22.2394 21.4909 22.2394 20.5111V2.31887C22.2453 1.33867 21.4918 0.625 20.4999 0.625ZM7.23149 18.7546H4.11562V9.06669H7.23149V18.7546ZM5.78134 7.59372H5.75901C4.76181 7.59372 4.11611 6.8514 4.11611 5.92218C4.11611 4.97596 4.7788 4.25112 5.79833 4.25112C6.81786 4.25112 7.44171 4.97062 7.46404 5.92218C7.46356 6.8514 6.81786 7.59372 5.78134 7.59372ZM18.6191 18.7546H15.5033V13.4575C15.5033 12.1884 15.0498 11.3213 13.9225 11.3213C13.0613 11.3213 12.5515 11.9039 12.3248 12.4714C12.2398 12.6753 12.217 12.953 12.217 13.2366V18.7546H9.10112V9.06669H12.217V10.4149C12.6704 9.7692 13.3788 8.83997 15.027 8.83997C17.0724 8.83997 18.6196 10.1882 18.6196 13.0948L18.6191 18.7546Z" fill="white"/>
</svg>
