<svg width="23" height="22" viewBox="0 0 23 22" fill="none" xmlns="http://www.w3.org/2000/svg">
<path d="M20.7604 0.125H2.60845C1.6166 0.125 0.75 0.83867 0.75 1.81887V20.0111C0.75 20.9967 1.6166 21.8749 2.60845 21.8749H20.7551C21.7523 21.8749 22.4999 20.9909 22.4999 20.0111V1.81887C22.5058 0.83867 21.7523 0.125 20.7604 0.125ZM7.49199 18.2546H4.37612V8.56669H7.49199V18.2546ZM6.04184 7.09372H6.0195C5.02231 7.09372 4.37661 6.3514 4.37661 5.42218C4.37661 4.47596 5.0393 3.75112 6.05883 3.75112C7.07836 3.75112 7.70221 4.47062 7.72454 5.42218C7.72406 6.3514 7.07836 7.09372 6.04184 7.09372ZM18.8796 18.2546H15.7638V12.9575C15.7638 11.6884 15.3103 10.8213 14.183 10.8213C13.3218 10.8213 12.812 11.4039 12.5853 11.9714C12.5003 12.1753 12.4775 12.453 12.4775 12.7366V18.2546H9.36161V8.56669H12.4775V9.9149C12.9309 9.2692 13.6393 8.33997 15.2875 8.33997C17.3329 8.33997 18.8801 9.68817 18.8801 12.5948L18.8796 18.2546Z" fill="white"/>
</svg>
