<svg width="102" height="23" viewBox="0 0 102 23" fill="none" xmlns="http://www.w3.org/2000/svg">
<g clip-path="url(#clip0_3_750)">
<path d="M76.616 9.0288C76.6142 9.0288 76.6106 9.0288 76.6088 9.0288L76.607 9.02754H74.0297V7.18546C74.0297 7.11976 73.9538 7.06543 73.8598 7.06543H71.5175C71.4235 7.06543 71.3458 7.11976 71.3458 7.18546V9.02754H70.2198C70.1258 9.02754 70.0499 9.08187 70.0499 9.14757V10.555C70.0499 10.6207 70.1258 10.6751 70.2198 10.6751H71.3458V14.3163C71.3458 15.7869 72.3941 16.5336 74.4617 16.5336C75.3003 16.5336 75.9979 16.4123 76.654 16.152C76.7082 16.1318 76.7407 16.0914 76.7407 16.0484V14.7079C76.7407 14.6675 76.71 14.6283 76.6594 14.6069C76.6088 14.5841 76.5455 14.5829 76.4931 14.6018C76.0431 14.7597 75.6075 14.833 75.1177 14.833C74.3677 14.833 74.0297 14.5942 74.0297 14.0598V10.6763H76.607C76.701 10.6763 76.7769 10.622 76.7769 10.5563V9.14883C76.7787 9.0844 76.7064 9.03133 76.616 9.0288Z" fill="white"/>
<path d="M41.5944 10.6839L41.589 10.6827C38.9738 10.2468 38.5075 9.94104 38.5075 9.29795C38.5075 8.69024 39.3244 8.28215 40.5426 8.28215C41.7228 8.28215 42.8903 8.59295 44.1175 9.23225C44.1537 9.2512 44.2006 9.25878 44.2458 9.25373C44.291 9.24867 44.3326 9.23099 44.3597 9.20445L45.6375 7.94607C45.6899 7.89427 45.6754 7.82352 45.605 7.78309C44.1446 6.96439 42.5017 6.56641 40.5805 6.56641C37.7556 6.56641 35.782 7.75151 35.782 9.44703C35.782 11.2651 37.4845 11.9082 40.4269 12.406C42.9283 12.809 43.353 13.1464 43.353 13.7503C43.353 14.4199 42.4999 14.8356 41.1245 14.8356C39.5973 14.8356 38.3503 14.4755 36.9586 13.6328C36.9243 13.6126 36.8791 13.6025 36.8339 13.6037C36.7869 13.6063 36.7453 13.6214 36.7164 13.6454L35.2832 14.8368C35.2235 14.8874 35.2308 14.9607 35.2995 15.0036C36.9206 16.0156 38.9142 16.5488 41.0667 16.5488C44.1103 16.5488 46.0767 15.3864 46.0767 13.5873C46.0821 12.0661 44.7808 11.2247 41.5944 10.6839Z" fill="white"/>
<path d="M15.5203 0.904785C7.15408 0.904785 0.371094 5.64645 0.371094 11.4949C0.371094 17.3446 7.15408 22.085 15.5221 22.085C23.8901 22.085 30.6731 17.3433 30.6731 11.4949C30.6713 5.64645 23.8901 0.904785 15.5203 0.904785ZM22.4696 16.1797C22.1984 16.4905 21.6165 16.589 21.1719 16.3995C21.1719 16.3995 21.1701 16.3995 21.1701 16.3983C17.6132 14.8796 13.1346 14.536 7.86075 15.3774C7.35288 15.4583 6.84683 15.2359 6.72935 14.8809C6.61368 14.5259 6.92996 14.1721 7.43783 14.0912H7.43964C13.2105 13.1689 18.1608 13.5669 22.1551 15.2725C22.6015 15.4621 22.7425 15.8689 22.4696 16.1797ZM24.3239 13.2965C23.9823 13.6844 23.2539 13.807 22.6991 13.5682C18.6271 11.8183 12.4189 11.3117 7.6023 12.3338C6.97695 12.4652 6.31727 12.2201 6.1275 11.7842C5.93954 11.3483 6.29197 10.8872 6.9155 10.7545C12.4171 9.58709 19.2579 10.1531 23.9353 12.162C24.4902 12.3995 24.6655 12.9087 24.3239 13.2965ZM26.4258 9.94464C26.4258 9.94591 26.424 9.94591 26.424 9.94717C26.0264 10.4184 25.1535 10.5726 24.4829 10.2934C19.5995 8.26554 11.5441 8.07982 6.88117 9.06909C6.13292 9.22828 5.3413 8.93264 5.11358 8.40957C4.88585 7.88651 5.30877 7.33313 6.05882 7.17394C11.4104 6.03811 20.3062 6.25795 25.9288 8.59025C26.6012 8.86694 26.8253 9.47465 26.4258 9.94464Z" fill="white"/>
<path d="M99.7496 9.01367C98.8225 9.01367 98.0923 9.54052 98.0923 10.1722C98.0923 10.804 98.8134 11.3245 99.7406 11.3245C100.668 11.3245 101.398 10.7976 101.398 10.1659C101.398 9.53421 100.675 9.01367 99.7496 9.01367ZM99.7406 11.2095C98.902 11.2095 98.2658 10.7471 98.2658 10.1722C98.2658 9.59738 98.9038 9.12864 99.7496 9.12864C100.588 9.12864 101.224 9.59106 101.224 10.1659C101.224 10.7408 100.585 11.2095 99.7406 11.2095Z" fill="white"/>
<path d="M79.2221 5.77539C78.2931 5.77539 77.5413 6.30098 77.5413 6.94912C77.5413 7.59852 78.2931 8.12411 79.2221 8.12411C80.1511 8.12411 80.9011 7.59852 80.9011 6.94912C80.9011 6.30098 80.1474 5.77539 79.2221 5.77539Z" fill="white"/>
<path d="M97.5831 9.03491H95.145C95.0709 9.03491 95.0058 9.06776 94.9823 9.11577L92.4845 14.1025L89.75 9.11198C89.7247 9.06523 89.6615 9.03491 89.591 9.03491H85.5895V8.80876C85.5895 8.14293 85.9546 7.84602 86.7733 7.84602C87.2613 7.84602 87.6535 7.91425 88.0945 8.01658C88.1487 8.02795 88.2047 8.0229 88.2481 8.00016C88.2933 7.97742 88.3186 7.94078 88.3186 7.90287V6.52321C88.3186 6.47014 88.2698 6.4234 88.1975 6.40823C87.7348 6.31221 87.1402 6.2124 86.251 6.2124C84.0894 6.2124 82.9435 7.06396 82.9435 8.67483V9.02101H81.8176C81.7236 9.02101 81.6459 9.07534 81.6459 9.14104V10.5561C81.6459 10.6218 81.7236 10.6761 81.8176 10.6761H82.9435V16.2921C82.9435 16.359 83.0213 16.4121 83.1152 16.4121H85.4558C85.5516 16.4121 85.6275 16.359 85.6275 16.2921V10.6748H87.8144L91.1652 16.2908C90.7856 16.8796 90.4115 16.9983 89.9 16.9983C89.488 16.9983 89.0524 16.9124 88.6078 16.7418C88.5662 16.7267 88.5174 16.7242 88.4722 16.733C88.427 16.7444 88.3891 16.7671 88.371 16.7974L87.5776 18.0154C87.5396 18.0735 87.5722 18.1405 87.6517 18.1708C88.4795 18.4841 89.2277 18.618 90.1513 18.618C91.8809 18.618 92.837 18.0546 93.6792 16.5384L97.7421 9.19916C97.7638 9.16252 97.7566 9.12082 97.7241 9.08797C97.6915 9.05512 97.6391 9.03491 97.5831 9.03491Z" fill="white"/>
<path d="M100.117 10.2843C100.353 10.2362 100.518 10.115 100.516 9.9166C100.516 9.67402 100.252 9.53125 99.8491 9.53125H99.0792V10.7404H99.4081V10.3222H99.7678L100.187 10.7404H100.581L100.115 10.2843H100.117ZM99.8365 10.1213H99.4081V9.73845H99.8365C100.05 9.73845 100.178 9.80542 100.178 9.92923C100.178 10.048 100.05 10.1213 99.8365 10.1213Z" fill="white"/>
<path d="M80.3806 9.02832H78.0364C77.9425 9.02832 77.8647 9.08265 77.8647 9.14835V16.2918C77.8647 16.3588 77.9425 16.4118 78.0364 16.4118H80.3788C80.4727 16.4118 80.5505 16.3588 80.5505 16.2918V9.14835C80.5523 9.08138 80.4745 9.02832 80.3806 9.02832Z" fill="white"/>
<path d="M64.2553 8.87793C61.0978 8.87793 58.6254 10.5772 58.6254 12.7466C58.6254 14.8931 61.0816 16.5735 64.2173 16.5735C67.3856 16.5735 69.8653 14.8805 69.8653 12.7188C69.8653 10.5659 67.4001 8.87793 64.2553 8.87793ZM64.2553 14.9121C62.5762 14.9121 61.3093 13.9683 61.3093 12.7188C61.3093 11.4629 62.5329 10.552 64.2173 10.552C65.9072 10.552 67.1814 11.4945 67.1814 12.7466C67.1796 14.0012 65.9506 14.9121 64.2553 14.9121Z" fill="white"/>
<path d="M52.9634 8.87793H52.9616C51.6422 8.87793 50.5614 9.24053 49.6667 9.98596V9.1483C49.6667 9.08261 49.5908 9.02828 49.4968 9.02828H47.1545C47.0605 9.02828 46.9846 9.08261 46.9846 9.1483V18.456C46.9846 18.5217 47.0605 18.576 47.1545 18.576H49.4968C49.5908 18.576 49.6667 18.5217 49.6667 18.456V15.5185C50.5596 16.2185 51.6422 16.5609 52.9616 16.5609C55.4123 16.5609 57.8956 15.2418 57.8956 12.72C57.8992 10.197 55.4177 8.87793 52.9634 8.87793ZM55.1719 12.7188C55.1719 14.0024 54.0405 14.8994 52.4211 14.8994C50.8198 14.8994 49.6107 13.962 49.6107 12.7188C49.6107 11.4755 50.8198 10.5381 52.4211 10.5381C54.0134 10.5393 55.1719 11.4553 55.1719 12.7188Z" fill="white"/>
</g>
<defs>
<clipPath id="clip0_3_750">
<rect width="101.027" height="21.1814" fill="white" transform="translate(0.371094 0.904785)"/>
</clipPath>
</defs>
</svg>
