<svg width="80" height="23" viewBox="0 0 80 23" fill="none" xmlns="http://www.w3.org/2000/svg">
<g clip-path="url(#clip0_3_747)">
<path fill-rule="evenodd" clip-rule="evenodd" d="M68.2123 6.71657C68.3534 6.97073 68.4017 7.19244 68.4481 7.35196C68.4964 7.51013 68.4964 7.66965 68.5428 7.79673C68.6053 7.63991 68.7 7.48985 68.8269 7.35196C68.9216 7.19379 69.111 6.97073 69.3468 6.71657L75.3615 0.904785H80.0001L70.4389 9.41495L73.7999 14.3047H69.2077L68.0713 11.9862C67.9766 11.8267 67.9302 11.6375 67.8355 11.4468C67.8355 11.2873 67.7872 11.0967 67.7872 10.9074C67.6461 11.0981 67.5514 11.2887 67.4083 11.4468C67.2673 11.6375 67.1242 11.8281 66.9832 11.9862L64.7123 14.3047H60.1685L65.9434 9.41495L63.1507 5.15919H67.5534L68.2123 6.71657Z" fill="white"/>
<path fill-rule="evenodd" clip-rule="evenodd" d="M61.5382 5.1607L59.2189 14.3062H55.479L55.8579 12.8138C55.1949 13.4492 54.4373 13.925 53.728 14.2116C52.9704 14.4969 52.1664 14.6564 51.2193 14.6564C49.7041 14.6564 48.5696 14.2116 47.9067 13.3221C47.1954 12.4325 47.0543 11.2253 47.4332 9.7328C47.812 8.24031 48.5696 7.06552 49.7524 6.17597C50.9352 5.31887 52.3558 4.8741 54.0121 4.8741C54.8645 4.8741 55.5738 5.00118 56.142 5.31887C56.6619 5.60412 57.089 6.04889 57.4195 6.65319L57.7983 5.1607H61.5382ZM56.8049 9.7328C56.9943 9.00278 56.8996 8.43093 56.5208 8.01725C56.142 7.60492 55.5274 7.4143 54.7214 7.4143C53.8691 7.4143 53.1598 7.60492 52.5916 8.01725C52.0233 8.43093 51.6445 9.00142 51.4551 9.7328C51.2657 10.4317 51.3604 11.0036 51.7392 11.4159C52.118 11.7971 52.7326 12.0188 53.5366 12.0188C54.3426 12.0188 55.0519 11.7971 55.6664 11.4159C56.2367 11.0036 56.6155 10.4317 56.8049 9.7328ZM36.4051 14.3062H40.429L41.4224 10.5264C41.6118 9.63681 42.0854 8.97033 42.7483 8.46202C43.4112 7.98615 44.2152 7.76309 45.2086 7.76309C45.4464 7.76309 45.6358 7.76309 45.8715 7.79419C46.1073 7.82528 46.3451 7.88882 46.5808 7.95236L47.7173 4.99847C47.5279 4.99847 47.3868 4.96738 47.1974 4.96738H46.7239C45.7768 4.96738 44.8781 5.15799 44.0742 5.53923C43.3165 5.95156 42.6072 6.52341 42.039 7.31697L42.5589 5.15799H38.7243L36.4051 14.3062ZM27.1744 14.3062H31.7182L34.3216 3.63576H68.6853L70.9099 1.03202H12.4528L11.6488 3.63576H29.7294L27.1744 14.3062ZM9.18849 14.3062L11.5077 5.1607H15.2476L14.772 7.00198C15.4813 6.27195 16.239 5.73255 17.045 5.38241C17.849 5.03362 18.7497 4.8741 19.743 4.8741C20.5007 4.8741 21.1153 4.96873 21.6371 5.1607C22.2054 5.35132 22.5842 5.60547 22.8683 5.98671C23.1041 6.27195 23.1988 6.65319 23.2471 7.09796C23.2471 7.54273 23.1524 8.20922 22.9167 9.06632L21.5908 14.3062H17.5205L18.7517 9.41646C18.9411 8.68643 18.9411 8.14568 18.7053 7.82798C18.5159 7.47919 18.0424 7.31967 17.3795 7.31967C16.5271 7.31967 15.8642 7.57383 15.3443 8.04969C14.8244 8.558 14.4456 9.35156 14.1615 10.4628L13.1681 14.3049L9.18849 14.3062ZM4.5963 3.63576L5.44865 0.936035H9.51895L8.71496 3.63576H4.5963ZM1.99293 14.3062L4.31219 5.1607H8.38249L6.06322 14.3062H1.99293ZM1.28365 21.4524L2.04129 21.4199C2.04129 21.547 2.08763 21.6105 2.2307 21.6741C2.3254 21.7376 2.51481 21.7687 2.75057 21.7687C2.98632 21.7687 3.17573 21.7376 3.3188 21.7052C3.45985 21.6416 3.50821 21.5781 3.55455 21.5145C3.55455 21.4834 3.55455 21.451 3.50821 21.4199C3.46186 21.3888 3.36716 21.3564 3.27245 21.3253C3.17775 21.3253 2.98834 21.2942 2.70422 21.2617C2.3254 21.1982 2.04129 21.1347 1.90024 21.0711C1.71083 20.9765 1.66448 20.8494 1.71083 20.7223C1.75717 20.6277 1.85188 20.5317 1.99494 20.4682C2.08965 20.3735 2.27906 20.31 2.51481 20.2776C2.70422 20.214 2.98834 20.214 3.27245 20.214C3.69762 20.214 4.03009 20.2451 4.26584 20.3411C4.45525 20.4682 4.5016 20.5953 4.45525 20.7548H3.69762C3.69762 20.6601 3.69761 20.5953 3.60291 20.5642C3.50821 20.5317 3.3188 20.5006 3.12939 20.5006C2.89363 20.5006 2.75057 20.5317 2.6075 20.5642C2.52287 20.5885 2.45638 20.6345 2.41809 20.6912C2.41809 20.7223 2.41809 20.7548 2.5128 20.7859C2.6075 20.8494 2.79691 20.8805 3.12939 20.9129C3.50821 20.9454 3.74396 21.0089 3.88702 21.04C4.07643 21.1036 4.17114 21.1347 4.26584 21.2306C4.31219 21.2942 4.31219 21.3902 4.31219 21.5159C4.26584 21.6105 4.17114 21.7065 4.02807 21.8011C3.83867 21.8971 3.64926 21.9607 3.45985 21.9918C3.22208 22.0553 2.93796 22.0864 2.6075 22.0864C2.13398 22.0864 1.80352 22.0229 1.56575 21.9269C1.37835 21.7998 1.28365 21.6416 1.28365 21.4524ZM5.40029 20.2451H6.15793L5.77911 21.2293C5.73276 21.3564 5.6844 21.4834 5.6844 21.5145C5.6844 21.5781 5.73075 21.6416 5.87381 21.7052C5.96852 21.7376 6.11158 21.7687 6.34734 21.7687C6.53675 21.7687 6.72616 21.7376 6.82086 21.7052C6.96191 21.6416 7.05863 21.6105 7.10498 21.547C7.15132 21.4834 7.19968 21.3875 7.24603 21.2293L7.57649 20.2451H8.33413L8.00367 21.1968C7.90896 21.3875 7.86262 21.5456 7.7659 21.6416C7.71955 21.7363 7.57649 21.7998 7.48178 21.8633C7.34073 21.9269 7.15132 21.9904 6.96191 22.0229C6.7725 22.0539 6.53675 22.0864 6.25263 22.0864C5.98061 22.0891 5.7106 22.0675 5.44865 22.0229C5.3076 21.9593 5.16453 21.9282 5.06983 21.8633C4.97512 21.7998 4.97512 21.7363 4.92878 21.6416C4.92878 21.547 4.97512 21.3875 5.02348 21.1968L5.40029 20.2451ZM8.47719 21.4524L9.23483 21.4199C9.23483 21.547 9.28118 21.6105 9.42424 21.6741C9.51895 21.7376 9.70836 21.7687 9.94411 21.7687C10.1799 21.7687 10.3693 21.7376 10.5123 21.7052C10.6534 21.6416 10.7017 21.5781 10.7481 21.5145C10.7481 21.4834 10.7481 21.451 10.7017 21.4199C10.6554 21.3888 10.607 21.3564 10.464 21.3253C10.3693 21.3253 10.1799 21.2942 9.89575 21.2617C9.51693 21.1982 9.23282 21.1347 9.13811 21.0711C8.90034 20.9765 8.854 20.8494 8.90034 20.7223C8.94669 20.6277 9.04139 20.5317 9.13811 20.4682C9.27916 20.3735 9.46857 20.31 9.70634 20.2776C9.89575 20.214 10.1315 20.214 10.464 20.214C10.8912 20.214 11.2216 20.2451 11.4574 20.3411C11.6468 20.4682 11.6931 20.5953 11.6468 20.7548H10.8891C10.8891 20.6601 10.8428 20.5953 10.7944 20.5642C10.6997 20.5317 10.5103 20.5006 10.3209 20.5006C10.0852 20.5006 9.9421 20.5317 9.79903 20.5642C9.7144 20.5885 9.64589 20.6345 9.60962 20.6912C9.60962 20.7223 9.60962 20.7548 9.70433 20.7859C9.79903 20.8494 9.98844 20.8805 10.3209 20.9129C10.6997 20.9454 10.9355 21.0089 11.1249 21.04C11.266 21.1036 11.3607 21.1347 11.4554 21.2306C11.5017 21.2942 11.5501 21.3902 11.5017 21.5159C11.4554 21.6105 11.3607 21.7065 11.2176 21.8011C11.0282 21.8971 10.8388 21.9607 10.6494 21.9918C10.4136 22.0553 10.1295 22.0864 9.79702 22.0864C9.32349 22.0864 8.99303 22.0229 8.75526 21.9269C8.5719 21.7998 8.47719 21.6416 8.47719 21.4524ZM11.9329 22.0553L12.5958 20.2451H13.7787C14.2522 20.2451 14.5363 20.2451 14.6773 20.2762C14.8668 20.2762 15.0098 20.3397 15.1509 20.4357C15.2456 20.5304 15.2919 20.6588 15.2456 20.7845C15.2073 20.8927 15.1247 20.9914 15.0098 21.0698C14.8688 21.1333 14.772 21.1968 14.631 21.2604C14.4899 21.2928 14.3469 21.3239 14.2058 21.3239C14.0164 21.355 13.7323 21.355 13.4018 21.355H12.9283L12.6906 22.0539L11.9329 22.0553ZM13.2104 20.5304L13.021 21.0698H13.4462C13.7303 21.0698 13.9681 21.0387 14.0628 21.0387C14.1575 21.0076 14.2522 20.9751 14.3005 20.944C14.3952 20.8805 14.4416 20.8494 14.4416 20.7845C14.4879 20.721 14.4416 20.6899 14.3952 20.625C14.3489 20.5939 14.2542 20.5615 14.1111 20.5615C14.0648 20.529 13.8734 20.529 13.5892 20.529L13.2104 20.5304ZM15.3886 22.0553L16.0516 20.2451H18.796L18.7013 20.5304H16.6661L16.5251 20.944H18.4192L18.2781 21.2293H16.4324L16.243 21.7376H18.3265L18.1855 22.0553H15.3886ZM18.8444 22.0553L19.5073 20.2451H20.2166L21.3047 21.4524L21.7782 20.2451H22.4411L21.7782 22.0553H21.0206L19.9788 20.8805L19.5516 22.0553H18.8444ZM22.5822 21.4524L23.3398 21.4199C23.3398 21.547 23.3862 21.6105 23.5292 21.6741C23.6239 21.7376 23.8133 21.7687 24.0491 21.7687C24.2425 21.7687 24.434 21.7471 24.6173 21.7052C24.7584 21.6416 24.8067 21.5781 24.8531 21.5145C24.8531 21.4834 24.8531 21.451 24.8067 21.4199C24.7604 21.3888 24.712 21.3564 24.571 21.3253C24.4763 21.3253 24.2869 21.2942 24.0028 21.2617C23.6239 21.1982 23.3398 21.1347 23.2451 21.0711C23.0073 20.9765 22.961 20.8494 23.0073 20.7223C23.0577 20.6277 23.1383 20.5398 23.2451 20.4682C23.3862 20.3735 23.5756 20.31 23.8133 20.2776C24.0028 20.214 24.2869 20.214 24.571 20.214C24.9962 20.214 25.3286 20.2451 25.5644 20.3411C25.7538 20.4682 25.8001 20.5953 25.7538 20.7548H24.9962C25.0425 20.6601 24.9498 20.5953 24.9014 20.5642C24.8067 20.5317 24.6637 20.5006 24.4279 20.5006C24.1902 20.5006 24.0491 20.5317 23.9081 20.5642C23.8234 20.5885 23.7549 20.6345 23.7186 20.6912C23.7186 20.7223 23.765 20.7548 23.8133 20.7859C23.9081 20.8494 24.0975 20.8805 24.4763 20.9129C24.8088 20.9454 25.0445 21.0089 25.2339 21.04C25.375 21.1036 25.4697 21.1347 25.5644 21.2306C25.6107 21.2942 25.6591 21.3902 25.6107 21.5159C25.5644 21.6105 25.4697 21.7065 25.3266 21.8011C25.1372 21.8971 24.9478 21.9607 24.7584 21.9918C24.5226 22.0553 24.2385 22.0864 23.906 22.0864C23.4325 22.0864 23.1021 22.0229 22.8643 21.9269C22.6769 21.7998 22.5822 21.6416 22.5822 21.4524ZM25.9916 22.0553L26.6545 20.2451H27.4121L26.7492 22.0553H25.9916ZM27.6479 21.1333C27.6942 20.9738 27.8373 20.8156 27.9804 20.6885C28.1214 20.5939 28.2645 20.4979 28.4055 20.4344C28.5949 20.3708 28.7843 20.3073 28.9738 20.2749C29.2095 20.2438 29.4936 20.2113 29.7777 20.2113C30.346 20.2113 30.7248 20.2749 31.0089 20.4655C31.293 20.625 31.3414 20.8467 31.2467 21.1333C31.152 21.4186 30.9162 21.6416 30.5374 21.8322C30.1122 21.9918 29.6851 22.0864 29.1168 22.0864C28.5486 22.0864 28.1698 21.9918 27.8857 21.8322C27.6479 21.6741 27.5532 21.4524 27.6479 21.1333ZM28.4055 21.1333C28.3592 21.355 28.4055 21.4821 28.5466 21.6092C28.6876 21.7038 28.9254 21.7687 29.2095 21.7687C29.54 21.7687 29.7777 21.7052 30.0135 21.6092C30.2513 21.4821 30.3923 21.355 30.487 21.1333C30.5334 20.9427 30.5334 20.7845 30.3923 20.6574C30.2029 20.5628 30.0135 20.5304 29.683 20.5304C29.3526 20.5304 29.1148 20.5628 28.8791 20.6574C28.6413 20.7845 28.5002 20.944 28.4055 21.1333ZM31.5288 22.0553L32.1917 20.2451H32.901L33.9891 21.4524L34.4143 20.2451H35.1235L34.4606 22.0553H33.703L32.6149 20.8805L32.1897 22.0553H31.5288ZM37.4932 22.0553L38.0614 20.5317H36.9733L37.068 20.2465H40.0018L39.9071 20.5317H38.819L38.2508 22.0553H37.4932ZM39.8588 22.0553L40.5217 20.2451H43.2682L43.1271 20.5304H41.1383L40.9952 20.944H42.841L42.7463 21.2293H40.9005L40.7111 21.7376H42.7946L42.6536 22.0553H39.8588ZM45.9179 21.3875L46.5808 21.4821C46.4398 21.6727 46.1557 21.8309 45.8715 21.9269C45.5874 22.0215 45.2549 22.0864 44.8298 22.0864C44.3563 22.0864 43.9774 21.9918 43.7417 21.8322C43.4576 21.6727 43.4112 21.451 43.5039 21.1644C43.5986 20.8467 43.8364 20.625 44.2152 20.4655C44.594 20.2749 45.0676 20.2113 45.5874 20.2113C46.0146 20.2113 46.3914 20.2749 46.6292 20.4019C46.7702 20.4655 46.8186 20.5926 46.8669 20.7196L46.1093 20.8143C46.1093 20.7196 46.0146 20.6561 45.9199 20.5926C45.7788 20.529 45.6358 20.529 45.4464 20.529C45.1623 20.529 44.9265 20.5615 44.6887 20.6561C44.4993 20.7507 44.3563 20.9102 44.2616 21.132C44.2152 21.3537 44.2152 21.5132 44.3563 21.6078C44.4973 21.7025 44.6887 21.7673 44.9728 21.7673C45.1623 21.7673 45.3517 21.7362 45.4927 21.6727C45.6821 21.6105 45.8232 21.5145 45.9179 21.3875ZM47.0543 22.0553L47.7173 20.2451H48.4749L48.1908 20.944H49.6577L49.9418 20.2451H50.6531L49.9902 22.0553H49.2809L49.565 21.2617H48.0981L47.814 22.0553H47.0543ZM50.7942 22.0553L51.4571 20.2451H52.1664L53.2545 21.4524L53.6797 20.2451H54.3889L53.726 22.0553H52.9684L51.9266 20.8805L51.4531 22.0553H50.7942ZM54.6751 21.1333C54.7698 20.9738 54.8645 20.8156 55.0539 20.6885C55.1607 20.5804 55.3078 20.4939 55.479 20.4344C55.6382 20.3627 55.8135 20.3087 55.9989 20.2749C56.283 20.2438 56.5188 20.2113 56.8513 20.2113C57.3711 20.2113 57.7983 20.2749 58.0341 20.4655C58.3182 20.625 58.4129 20.8467 58.3182 21.1333C58.1771 21.4186 57.9394 21.6416 57.5605 21.8322C57.1817 21.9918 56.7082 22.0864 56.14 22.0864C55.6201 22.0864 55.1929 21.9918 54.9088 21.8322C54.6751 21.6741 54.5804 21.4524 54.6751 21.1333ZM55.479 21.1333C55.3843 21.355 55.4327 21.4821 55.5738 21.6092C55.7632 21.7038 55.9526 21.7687 56.283 21.7687C56.5672 21.7687 56.8513 21.7052 57.0407 21.6092C57.2784 21.4821 57.4658 21.355 57.5142 21.1333C57.6089 20.9427 57.5605 20.7845 57.4195 20.6574C57.2784 20.5628 57.0407 20.5304 56.7082 20.5304C56.4241 20.5304 56.14 20.5628 55.9042 20.6574C55.7168 20.7845 55.5274 20.944 55.479 21.1333ZM58.556 22.0553L59.2189 20.2451H59.9765L59.4083 21.7376H61.3024L61.2077 22.0553H58.556ZM61.8706 21.1333C61.9653 20.9738 62.06 20.8156 62.2494 20.6885C62.3562 20.5804 62.5033 20.4925 62.6766 20.4344C62.866 20.3708 63.0071 20.3073 63.1965 20.2749C63.4766 20.2343 63.7627 20.214 64.0488 20.2113C64.5687 20.2113 64.9959 20.2749 65.28 20.4655C65.5178 20.625 65.6125 20.8467 65.5178 21.1333C65.3767 21.4186 65.139 21.6416 64.7601 21.8322C64.3813 21.9918 63.9078 22.0864 63.3416 22.0864C62.8217 22.0864 62.3945 21.9918 62.1588 21.8322C61.8706 21.6741 61.7759 21.4524 61.8706 21.1333ZM62.6746 21.1333C62.5799 21.355 62.6263 21.4821 62.7693 21.6092C62.9587 21.7038 63.1481 21.7687 63.4806 21.7687C63.7647 21.7687 64.0488 21.7052 64.2382 21.6092C64.476 21.4821 64.6654 21.355 64.7118 21.1333C64.8065 20.9427 64.7581 20.7845 64.6171 20.6574C64.476 20.5628 64.2383 20.5304 63.9541 20.5304C63.6237 20.5304 63.3396 20.5628 63.1018 20.6574C62.9104 20.7845 62.721 20.944 62.6746 21.1333ZM67.6436 21.3875L67.7846 21.0698H69.3946L69.1105 21.7998C68.9211 21.8633 68.6853 21.9269 68.3529 21.9904C68.0627 22.0526 67.7585 22.085 67.4542 22.085C67.0754 22.085 66.7913 22.0215 66.5071 21.958C66.2694 21.8633 66.08 21.7673 65.9873 21.6092C65.8926 21.451 65.8926 21.2915 65.9389 21.1333C66.0336 20.9427 66.1767 20.7845 66.3661 20.625C66.6018 20.4979 66.886 20.3708 67.1701 20.3073C67.4058 20.2438 67.7383 20.2127 68.0688 20.2127C68.5423 20.2127 68.8748 20.2438 69.1105 20.3397C69.3483 20.4344 69.443 20.5628 69.4893 20.721L68.6853 20.8156C68.6853 20.721 68.5906 20.6574 68.4959 20.5939C68.3549 20.5304 68.1635 20.5304 67.9761 20.5304C67.6436 20.5304 67.3595 20.5628 67.1237 20.6574C66.9343 20.7521 66.7933 20.9116 66.7449 21.1022C66.6502 21.3239 66.6986 21.4834 66.8396 21.6105C66.9807 21.7052 67.1721 21.77 67.5025 21.77C67.6436 21.77 67.835 21.739 67.9761 21.7065C68.1655 21.6754 68.3065 21.643 68.4496 21.6119L68.5443 21.3902L67.6436 21.3875ZM70.7205 22.0553L70.9563 21.2928L70.0092 20.2451H70.9079L71.4761 20.944L72.6126 20.2451H73.4649L71.7139 21.2928L71.4298 22.0553H70.7205ZM0.951172 18.6566H73.8438L74.6014 16.4017H1.70881L0.951172 18.6566Z" fill="white"/>
</g>
<defs>
<clipPath id="clip0_3_747">
<rect width="79.0484" height="21.1814" fill="white" transform="translate(0.951172 0.904785)"/>
</clipPath>
</defs>
</svg>
