<svg width="102" height="23" viewBox="0 0 102 23" fill="none" xmlns="http://www.w3.org/2000/svg">
<g clip-path="url(#clip0_3_762)">
<path d="M45.5803 9.00494V9.34384C45.5803 9.34384 44.5965 8.49658 42.5155 8.49658C39.0722 8.49658 36.3983 10.2589 36.3983 12.6905C36.3983 15.1052 39.047 16.8844 42.5155 16.8844C44.6344 16.8844 45.5803 16.0118 45.5803 16.0118V16.3761C45.5803 16.5455 45.7695 16.6726 46.0218 16.6726H48.5821V8.7084H46.0218C45.7695 8.7084 45.5803 8.85243 45.5803 9.00494ZM45.5803 14.1139C45.1137 14.5799 44.1551 14.9866 43.02 14.9866C41.0019 14.9866 39.4506 14.1393 39.4506 12.699C39.4506 11.2586 41.0019 10.4114 43.02 10.4114C44.1299 10.4114 45.1389 10.835 45.5803 11.2841V14.1139Z" fill="white"/>
<path d="M53.5014 8.70801H50.4744V16.6807H53.5014V8.70801Z" fill="white"/>
<path d="M29.1967 15.1982C28.9445 14.8169 28.6922 14.4526 28.4652 14.1137L28.4273 14.0968C26.2454 10.9195 23.912 7.69149 21.4526 4.51428L21.3769 4.37871C21.112 4.04828 20.8598 3.71785 20.6201 3.37895C20.3048 2.99768 19.9895 2.591 19.485 2.20973C18.476 1.36248 17.0255 0.896484 15.4742 0.896484C13.8976 0.896484 12.4724 1.36248 11.4381 2.16737C10.9588 2.54864 10.6183 2.95532 10.303 3.33659C10.0507 3.66702 9.79848 4.00592 9.54623 4.33635L9.44533 4.46344C7.01109 7.64066 4.65253 10.8687 2.47054 14.0459L2.43271 14.0968C2.21829 14.4357 1.95343 14.8 1.70117 15.1813C1.53721 15.4185 1.38586 15.6727 1.23451 15.9438C0.81829 16.7317 0.692163 17.4688 0.856128 18.2314C1.20928 19.8242 2.78586 21.1544 4.95523 21.7475C5.78767 21.9847 6.63271 22.0864 7.5156 22.0864C7.76785 22.0864 8.08317 22.0695 8.33542 22.044C9.38227 21.9593 10.4543 21.7306 11.4886 21.3239C12.7877 20.8325 14.0111 20.1377 15.3985 19.121C16.7859 20.1377 18.0471 20.8409 19.3084 21.3239C20.3553 21.7306 21.4273 21.9593 22.4616 22.044C22.7138 22.0695 23.0291 22.0864 23.2814 22.0864C24.1643 22.0864 25.0472 21.9847 25.8418 21.7475C28.049 21.1544 29.6003 19.7988 29.9409 18.2314C30.1931 17.4858 30.067 16.7487 29.6508 15.9607C29.512 15.7066 29.3607 15.427 29.1967 15.1982ZM15.4363 17.0622C13.7336 15.6218 12.6237 14.2662 12.2453 13.1224C12.0814 12.631 12.0561 12.2074 12.157 11.8261C12.2201 11.4872 12.4093 11.1907 12.6616 10.9365C13.267 10.3604 14.276 10.0045 15.4363 10.0045C16.6093 10.0045 17.6435 10.3434 18.2111 10.9365C18.4634 11.1907 18.6526 11.4872 18.7156 11.8261C18.8039 12.2074 18.7787 12.6564 18.6147 13.1224C18.2489 14.2408 17.139 15.5964 15.4363 17.0622ZM28.0364 18.0619C27.8093 19.1634 26.712 20.1208 25.1607 20.5444C24.4039 20.7562 23.5841 20.824 22.7643 20.7562C21.9697 20.6884 21.1877 20.519 20.3679 20.2055C19.2327 19.7819 18.0976 19.121 16.7733 18.1467C18.8544 16.4267 20.1156 14.8593 20.5949 13.4613C20.8219 12.8005 20.8472 12.2074 20.7463 11.6567C20.6201 11.1229 20.33 10.6399 19.8886 10.2163C18.9048 9.25892 17.2652 8.7082 15.4363 8.7082C13.6075 8.7082 11.9679 9.28434 10.9841 10.2163C10.5426 10.6399 10.2525 11.1314 10.1264 11.6567C10.0003 12.2074 10.0255 12.8259 10.2778 13.4613C10.757 14.8593 12.0435 16.4521 14.0994 18.1721C12.8003 19.1464 11.6399 19.8073 10.5048 20.2309C9.68497 20.5529 8.89038 20.7223 8.10839 20.7816C7.25073 20.8494 6.43091 20.7647 5.71199 20.5698C4.16064 20.1462 3.06334 19.1888 2.83631 18.0873C2.74802 17.5536 2.79847 17.0283 3.1264 16.4352C3.21469 16.2234 3.37865 16.0116 3.54262 15.7574C3.76965 15.4185 4.00929 15.0542 4.27415 14.6983L4.31199 14.656C6.49397 11.4957 8.82731 8.2761 11.2616 5.13277L11.3625 5.00569C11.6147 4.6922 11.867 4.34482 12.1192 4.03134C12.3715 3.69244 12.6616 3.37048 13.0021 3.09935C13.6706 2.591 14.5534 2.3114 15.5246 2.3114C16.5084 2.3114 17.3913 2.591 18.0471 3.09935C18.4003 3.37895 18.6778 3.69244 18.93 4.03134C19.1823 4.3533 19.4345 4.6922 19.6868 5.00569L19.7877 5.13277C22.1841 8.28457 24.4796 11.4618 26.6994 14.6729V14.6898C26.9517 15.0287 27.1787 15.41 27.4309 15.7489C27.5949 16.0031 27.7463 16.2149 27.8472 16.4267C28.0616 16.9774 28.1625 17.5027 28.0364 18.0619Z" fill="white"/>
<path d="M95.7412 8.49638C93.6601 8.49638 92.6763 9.34364 92.6763 9.34364V4.87012H89.6493V16.6809H92.2097C92.4619 16.6809 92.6511 16.5284 92.6511 16.3844V16.02C92.6511 16.02 93.6349 16.8927 95.716 16.8927C99.1592 16.8927 101.833 15.1135 101.833 12.6988C101.82 10.2756 99.1466 8.49638 95.7412 8.49638ZM95.2241 14.961C94.0511 14.961 93.143 14.5543 92.6637 14.0883V11.25C93.143 10.8263 94.152 10.3773 95.2241 10.3773C97.2421 10.3773 98.7935 11.2246 98.7935 12.6649C98.7935 14.1052 97.2547 14.961 95.2241 14.961Z" fill="white"/>
<path d="M51.9882 4.85303C50.8153 4.85303 49.9324 5.47153 49.9324 6.23406C49.9324 6.99659 50.8531 7.61509 51.9882 7.61509C53.1234 7.61509 54.0441 6.99659 54.0441 6.23406C54.0441 5.48847 53.1612 4.86997 51.9882 4.85303Z" fill="white"/>
<path d="M86.5844 9.25911C85.7016 8.75076 84.5916 8.49658 83.2673 8.49658C82.0943 8.49658 80.934 8.73381 80.0511 9.34384V9.00494C80.0511 8.85243 79.8619 8.7084 79.6097 8.7084H77.2133V16.6811H80.2403V11.1231C80.8457 10.6571 81.7916 10.3351 82.6998 10.3351C84.4025 10.3351 85.0331 10.8689 85.0331 12.1822V16.698H88.0601V11.9449C88.0601 10.6147 87.6565 9.85219 86.5844 9.25911Z" fill="white"/>
<path d="M58.3955 9.34352V9.00462C58.3955 8.85211 58.2063 8.70808 57.954 8.70808H55.3937V16.6977H58.4207V11.1228C59.9973 9.91119 62.5198 10.4873 62.5198 10.4873V8.59794C62.5198 8.59794 62.0405 8.48779 61.1324 8.48779C60.1991 8.49627 58.963 8.89448 58.3955 9.34352Z" fill="white"/>
<path d="M69.8475 8.49638C67.7664 8.49638 66.7826 9.34364 66.7826 9.34364V4.87012H63.7556V16.6809H66.316C66.5682 16.6809 66.7574 16.5284 66.7574 16.3844V16.02C66.7574 16.02 67.7412 16.8927 69.8223 16.8927C73.2655 16.8927 75.9394 15.1135 75.9394 12.6988C75.9773 10.2756 73.2908 8.49638 69.8475 8.49638ZM69.343 14.961C68.17 14.961 67.2619 14.5543 66.7826 14.0883V11.25C67.2619 10.8263 68.2709 10.3773 69.343 10.3773C71.361 10.3773 72.9124 11.2246 72.9124 12.6649C72.9124 14.1052 71.3736 14.961 69.343 14.961Z" fill="white"/>
</g>
<defs>
<clipPath id="clip0_3_762">
<rect width="101.027" height="21.1814" fill="white" transform="translate(0.792969 0.904785)"/>
</clipPath>
</defs>
</svg>
