<svg width="97" height="31" viewBox="0 0 97 31" fill="none" xmlns="http://www.w3.org/2000/svg">
<path d="M12.3357 10.6301V13.8164C15.0292 13.8323 17.7226 13.8164 20.4161 13.8164C20.2213 15.3948 19.6204 17.0186 18.3236 18.0875C16.6681 19.6047 14.3 20.2683 12.0269 20.146C9.59237 20.069 7.24094 18.9548 5.69706 17.1748C4.09144 15.3495 3.39313 12.8743 3.73278 10.5214C4.04156 8.13902 5.46905 5.91064 7.57821 4.5949C9.50924 3.34257 11.9913 2.92361 14.2952 3.38786C15.8534 3.66641 17.2809 4.45449 18.4661 5.47583C19.2285 4.71719 20.0242 3.99025 20.8033 3.2316C18.6965 1.20704 15.7584 0.0611445 12.7728 0H11.9129C9.47836 0.138141 7.09368 0.896786 5.12939 2.27367C3.08436 3.66641 1.49536 5.66379 0.666416 7.92161C-0.243282 10.3968 -0.226655 13.1823 0.747172 15.6417C1.7875 18.3184 3.89667 20.5944 6.54263 21.9396C8.74918 23.0855 11.3144 23.5338 13.7965 23.3006C16.3593 23.099 18.8746 22.0777 20.694 20.3453C23.4207 17.9018 24.2639 14.0474 23.6796 10.6278H12.3357V10.6301Z" fill="white"/>
<path d="M76.9863 22.8832C78.1383 22.9149 79.3069 22.8991 80.4588 22.8991V0.803223H76.9863C76.9863 8.16776 77.0006 15.5323 76.9863 22.8832Z" fill="white"/>
<path d="M37.6357 9.73145C35.8662 8.50856 33.5457 8.07602 31.4033 8.46327C28.7098 8.91166 26.3251 10.8139 25.4795 13.305C24.6363 15.6262 25.0093 18.3483 26.5507 20.3298C27.9141 22.1257 30.1539 23.224 32.4578 23.3463C34.9732 23.5003 37.5526 22.4789 39.1274 20.5767C40.5881 18.8737 41.1392 16.523 40.7021 14.3716C40.3625 12.5169 39.2414 10.8162 37.6357 9.73145ZM36.7593 18.1966C36.1418 19.279 35.023 20.0988 33.7404 20.3162C32.3605 20.5789 30.8688 20.1305 29.8784 19.1703C28.1421 17.4991 28.0447 14.5754 29.6195 12.7796C30.2038 12.098 31.0161 11.6201 31.8902 11.4027C33.2868 11.063 34.8283 11.448 35.8829 12.3765C37.5217 13.8168 37.8305 16.3554 36.7593 18.1966Z" fill="white"/>
<path d="M55.5642 10.3036C53.7305 8.664 51.0537 8.01405 48.6025 8.46245C45.9566 8.89499 43.6218 10.7361 42.7287 13.1502C41.8356 15.5168 42.1776 18.3023 43.75 20.3291C45.1466 22.1702 47.4672 23.2844 49.8186 23.3456C52.2841 23.4543 54.7851 22.4329 56.3266 20.5759C58.8752 17.6387 58.5498 12.8558 55.5642 10.3036ZM53.9752 18.1958C53.3576 19.2783 52.2223 20.0845 50.9563 20.3155C49.5288 20.5941 47.9873 20.0981 46.9969 19.0926C45.3248 17.4055 45.2606 14.5294 46.8188 12.7652C47.403 12.0994 48.2154 11.6193 49.0894 11.4042C50.4694 11.0645 52.0109 11.4359 53.0655 12.3644C54.721 13.8002 55.0298 16.3388 53.9752 18.1958Z" fill="white"/>
<path d="M71.2072 10.0567C70.7036 9.6083 70.1859 9.15991 69.5517 8.89722C67.5399 7.93703 65.0578 8.24728 63.1909 9.36146C60.9345 10.6772 59.4429 13.1048 59.393 15.6276C59.2956 17.856 60.3336 20.0979 62.0865 21.5541C63.8227 23.0079 66.3048 23.7507 68.5612 23.1484C69.5992 22.9174 70.459 22.2969 71.2072 21.6016C71.2547 23.0397 71.2547 24.6498 70.25 25.8251C69.3094 26.971 67.6373 27.3107 66.1932 27.0638C64.7491 26.817 63.5971 25.7323 63.0294 24.4641C62.0223 24.8808 61.001 25.2386 60.0272 25.687C61.001 27.8995 63.1909 29.6478 65.7063 30.0033C68.0601 30.343 70.6728 29.8335 72.3758 28.178C73.9339 26.6766 74.4849 24.4958 74.5016 22.4373V8.78852C73.3971 8.77266 72.3116 8.78852 71.2238 8.77266C71.2072 9.2052 71.2238 9.63774 71.2072 10.0567ZM70.7702 18.4108C70.1384 19.4774 68.9531 20.2519 67.6705 20.3765C66.3072 20.5146 64.8963 19.9598 64.0199 18.952C62.4784 17.2491 62.4784 14.4817 64.0032 12.747C64.635 12.0201 65.5614 11.4947 66.5518 11.3385C67.8986 11.1075 69.326 11.5853 70.2191 12.5613C71.6632 14.142 71.8414 16.6014 70.7702 18.4108Z" fill="white"/>
<path d="M92.6931 19.541C91.5079 20.4378 89.8215 20.6076 88.4082 20.1298C87.4012 19.8059 86.6554 18.9997 86.1684 18.1188C89.6909 16.726 93.1943 15.3491 96.7167 13.9563C95.9543 11.7438 94.446 9.59235 92.0756 8.7431C89.5768 7.83045 86.5746 8.41926 84.6269 10.1517C81.5914 12.8285 81.3325 17.8108 84.026 20.782C85.6649 22.6707 88.3584 23.597 90.8903 23.3048C93.1776 23.1033 95.3035 21.8351 96.5694 20.0256C95.6764 19.4527 94.7833 18.8955 93.8926 18.3226C93.5363 18.7529 93.1634 19.2013 92.6931 19.541ZM86.3656 13.012C87.2254 11.8049 88.831 11.0168 90.3749 11.2795C91.3321 11.4177 92.2727 11.9453 92.6622 12.8104C90.3084 13.7548 87.957 14.6833 85.6031 15.6118C85.5865 14.6969 85.8122 13.7706 86.3656 13.012Z" fill="white"/>
</svg>
