<svg width="210" height="865" viewBox="0 0 210 865" fill="none" xmlns="http://www.w3.org/2000/svg">
<g filter="url(#filter0_d_3_994)">
<rect x="47.252" y="41.3878" width="115.764" height="769.836" rx="22.1433" fill="white"/>
</g>
<rect x="74.3769" y="726.002" width="61.0433" height="59.4969" rx="18.6637" stroke="#C5E0F5" stroke-width="0.632667"/>
<path opacity="0.4" d="M109.442 749.17V747.921C109.442 745.195 107.176 742.985 104.38 742.985H97.6823C94.8879 742.985 92.6211 745.195 92.6211 747.921V762.828C92.6211 765.554 94.8879 767.764 97.6823 767.764H104.394C107.181 767.764 109.442 765.561 109.442 762.843V761.58" stroke="black" stroke-width="0.949" stroke-linecap="round" stroke-linejoin="round"/>
<path d="M118.777 755.374H102.234" stroke="black" stroke-width="0.949" stroke-linecap="round" stroke-linejoin="round"/>
<path d="M114.752 751.47L118.775 755.374L114.752 759.28" stroke="black" stroke-width="0.949" stroke-linecap="round" stroke-linejoin="round"/>
<rect x="74.5527" y="443.068" width="61.0433" height="59.4969" rx="18.6637" stroke="#C5E0F5" stroke-width="0.632667"/>
<path fill-rule="evenodd" clip-rule="evenodd" d="M108.93 458.551H99.6381C96.7623 458.551 94.2832 460.824 94.2832 463.629V478.217C94.2832 481.18 96.6003 483.542 99.6381 483.542H110.796C113.674 483.542 116.005 481.023 116.005 478.217V465.736L108.93 458.551Z" stroke="#141414" stroke-width="1.26533" stroke-linecap="round" stroke-linejoin="round"/>
<path d="M108.562 458.535V462.496C108.562 464.43 110.167 465.999 112.149 466.003C113.989 466.007 115.87 466.008 115.997 466" stroke="#141414" stroke-width="1.26533" stroke-linecap="round" stroke-linejoin="round"/>
<path opacity="0.4" d="M108.298 475.975H100.76" stroke="#141414" stroke-width="1.26533" stroke-linecap="round" stroke-linejoin="round"/>
<path opacity="0.4" d="M105.447 469.232H100.76" stroke="#141414" stroke-width="1.26533" stroke-linecap="round" stroke-linejoin="round"/>
<rect x="74.5527" y="367.907" width="61.0433" height="59.4969" rx="18.6637" stroke="#C5E0F5" stroke-width="0.632667"/>
<path fill-rule="evenodd" clip-rule="evenodd" d="M113.798 405.407C110.028 409.082 104.446 409.877 99.8779 407.817C99.2035 407.552 98.6506 407.338 98.125 407.338C96.661 407.347 94.8387 408.731 93.8916 407.809C92.9444 406.885 94.3651 405.107 94.3651 403.671C94.3651 403.159 94.1544 402.629 93.8829 401.97C91.7692 397.518 92.5849 392.073 96.3548 388.399C101.167 383.706 108.986 383.706 113.798 388.398C118.619 393.098 118.61 400.715 113.798 405.407Z" stroke="#141414" stroke-width="1.26533" stroke-linecap="round" stroke-linejoin="round"/>
<path opacity="0.4" d="M109.934 397.402H109.944" stroke="#141414" stroke-width="1.26533" stroke-linecap="round" stroke-linejoin="round"/>
<path opacity="0.4" d="M104.99 397.402H105.001" stroke="#141414" stroke-width="1.26533" stroke-linecap="round" stroke-linejoin="round"/>
<path opacity="0.4" d="M100.045 397.402H100.056" stroke="#141414" stroke-width="1.26533" stroke-linecap="round" stroke-linejoin="round"/>
<rect x="74.5527" y="292.744" width="61.0433" height="59.4969" rx="18.6637" stroke="#C5E0F5" stroke-width="0.632667"/>
<path opacity="0.4" d="M99.7207 320.465V328.199" stroke="#141414" stroke-width="1.26533" stroke-linecap="round" stroke-linejoin="round"/>
<path opacity="0.4" d="M105.117 316.764V328.2" stroke="#141414" stroke-width="1.26533" stroke-linecap="round" stroke-linejoin="round"/>
<path opacity="0.4" d="M110.428 324.552V328.2" stroke="#141414" stroke-width="1.26533" stroke-linecap="round" stroke-linejoin="round"/>
<path fill-rule="evenodd" clip-rule="evenodd" d="M110.493 311.219H99.6553C95.8777 311.219 93.5098 313.825 93.5098 317.515V327.47C93.5098 331.16 95.8667 333.767 99.6553 333.767H110.493C114.281 333.767 116.638 331.16 116.638 327.47V317.515C116.638 313.825 114.281 311.219 110.493 311.219Z" stroke="#141414" stroke-width="1.26533" stroke-linecap="round" stroke-linejoin="round"/>
<rect x="74.5527" y="217.585" width="61.0433" height="59.4969" rx="18.6637" stroke="#C5E0F5" stroke-width="0.632667"/>
<path opacity="0.4" d="M110.934 256.493V240.709" stroke="#141414" stroke-width="1.26533" stroke-linecap="round" stroke-linejoin="round"/>
<path d="M115.78 251.745L110.932 256.493L106.084 251.745" stroke="#141414" stroke-width="1.26533" stroke-linecap="round" stroke-linejoin="round"/>
<path opacity="0.4" d="M99.1289 237.563V253.347" stroke="#141414" stroke-width="1.26533" stroke-linecap="round" stroke-linejoin="round"/>
<path d="M94.2812 242.311L99.1293 237.563L103.977 242.311" stroke="#141414" stroke-width="1.26533" stroke-linecap="round" stroke-linejoin="round"/>
<rect x="74.5527" y="142.422" width="61.0433" height="59.4969" rx="18.6637" stroke="#C5E0F5" stroke-width="0.632667"/>
<path d="M116.637 174.161H111.79C110.01 174.16 108.567 172.755 108.566 171.02C108.566 169.284 110.01 167.879 111.79 167.878H116.637" stroke="#141414" stroke-width="1.26533" stroke-linecap="round" stroke-linejoin="round"/>
<path d="M112.338 170.949H111.965" stroke="#141414" stroke-width="1.26533" stroke-linecap="round" stroke-linejoin="round"/>
<path fill-rule="evenodd" clip-rule="evenodd" d="M100.005 160.86H110.354C113.824 160.86 116.637 163.602 116.637 166.985V175.362C116.637 178.745 113.824 181.488 110.354 181.488H100.005C96.5356 181.488 93.7227 178.745 93.7227 175.362V166.985C93.7227 163.602 96.5356 160.86 100.005 160.86Z" stroke="#141414" stroke-width="1.26533" stroke-linecap="round" stroke-linejoin="round"/>
<path opacity="0.4" d="M99.1523 166.157H105.616" stroke="#141414" stroke-width="1.26533" stroke-linecap="round" stroke-linejoin="round"/>
<rect x="74.2363" y="66.943" width="61.676" height="60.1296" rx="18.98" fill="#FFD546"/>
<path fill-rule="evenodd" clip-rule="evenodd" d="M94.2813 90.2009C94.2813 87.1316 94.315 86.1088 98.4786 86.1088C102.642 86.1088 102.676 87.1316 102.676 90.2009C102.676 93.2703 102.689 94.2931 98.4786 94.2931C94.268 94.2931 94.2813 93.2703 94.2813 90.2009Z" stroke="#141414" stroke-width="1.26533" stroke-linecap="round" stroke-linejoin="round"/>
<path opacity="0.4" fill-rule="evenodd" clip-rule="evenodd" d="M107.475 90.2009C107.475 87.1316 107.508 86.1088 111.672 86.1088C115.836 86.1088 115.869 87.1316 115.869 90.2009C115.869 93.2703 115.883 94.2931 111.672 94.2931C107.461 94.2931 107.475 93.2703 107.475 90.2009Z" stroke="#141414" stroke-width="1.26533" stroke-linecap="round" stroke-linejoin="round"/>
<path fill-rule="evenodd" clip-rule="evenodd" d="M94.2813 103.062C94.2813 99.993 94.315 98.9702 98.4786 98.9702C102.642 98.9702 102.676 99.993 102.676 103.062C102.676 106.132 102.689 107.155 98.4786 107.155C94.268 107.155 94.2813 106.132 94.2813 103.062Z" stroke="#141414" stroke-width="1.26533" stroke-linecap="round" stroke-linejoin="round"/>
<path fill-rule="evenodd" clip-rule="evenodd" d="M107.475 103.061C107.475 99.992 107.508 98.9692 111.672 98.9692C115.836 98.9692 115.869 99.992 115.869 103.061C115.869 106.131 115.883 107.154 111.672 107.154C107.461 107.154 107.475 106.131 107.475 103.061Z" stroke="#141414" stroke-width="1.26533" stroke-linecap="round" stroke-linejoin="round"/>
<defs>
<filter id="filter0_d_3_994" x="0.43462" y="0.89715" width="209.399" height="863.471" filterUnits="userSpaceOnUse" color-interpolation-filters="sRGB">
<feFlood flood-opacity="0" result="BackgroundImageFix"/>
<feColorMatrix in="SourceAlpha" type="matrix" values="0 0 0 0 0 0 0 0 0 0 0 0 0 0 0 0 0 0 127 0" result="hardAlpha"/>
<feMorphology radius="2.53067" operator="dilate" in="SourceAlpha" result="effect1_dropShadow_3_994"/>
<feOffset dy="6.32667"/>
<feGaussianBlur stdDeviation="22.1433"/>
<feColorMatrix type="matrix" values="0 0 0 0 0.501302 0 0 0 0 0.624729 0 0 0 0 0.729167 0 0 0 0.2 0"/>
<feBlend mode="normal" in2="BackgroundImageFix" result="effect1_dropShadow_3_994"/>
<feBlend mode="normal" in="SourceGraphic" in2="effect1_dropShadow_3_994" result="shape"/>
</filter>
</defs>
</svg>
