<svg width="7" height="22" viewBox="0 0 7 22" fill="none" xmlns="http://www.w3.org/2000/svg">
<path d="M6.0173 3.59291C6.0173 4.78263 4.97073 5.8023 3.63757 5.8023C2.30442 5.8023 1.25785 4.78263 1.25785 3.59291C1.25785 2.4032 2.30442 1.38352 3.63757 1.38352C4.97073 1.38352 6.0173 2.4032 6.0173 3.59291ZM1.25785 11.4835C1.25785 10.2938 2.30442 9.27414 3.63757 9.27414C4.97073 9.27414 6.0173 10.2938 6.0173 11.4835C6.0173 12.6732 4.97073 13.6929 3.63757 13.6929C2.30442 13.6929 1.25785 12.6732 1.25785 11.4835ZM1.25785 19.3741C1.25785 18.1844 2.30442 17.1647 3.63757 17.1647C4.97073 17.1647 6.0173 18.1844 6.0173 19.3741C6.0173 20.5639 4.97073 21.5835 3.63757 21.5835C2.30442 21.5835 1.25785 20.5639 1.25785 19.3741Z" stroke="#94ADC2" stroke-width="0.841634"/>
</svg>
