<svg width="210" height="831" viewBox="0 0 210 831" fill="none" xmlns="http://www.w3.org/2000/svg">
<g filter="url(#filter0_d_13_173)">
<rect x="47.75" y="40.5161" width="114.95" height="736.391" rx="22.1433" fill="white"/>
</g>
<rect x="74.6863" y="695.402" width="60.6095" height="56.8846" rx="18.6637" stroke="#C5E0F5" stroke-width="0.632667"/>
<path opacity="0.4" d="M109.502 717.551V716.355C109.502 713.748 107.251 711.634 104.475 711.634H97.8242C95.0495 711.634 92.7986 713.748 92.7986 716.355V730.615C92.7986 733.222 95.0495 735.336 97.8242 735.336H104.488C107.256 735.336 109.502 733.229 109.502 730.629V729.421" stroke="black" stroke-width="0.949" stroke-linecap="round" stroke-linejoin="round"/>
<path d="M118.77 723.485H102.344" stroke="black" stroke-width="0.949" stroke-linecap="round" stroke-linejoin="round"/>
<path d="M114.775 719.75L118.769 723.485L114.775 727.221" stroke="black" stroke-width="0.949" stroke-linecap="round" stroke-linejoin="round"/>
<rect x="74.8613" y="424.76" width="60.6095" height="56.8846" rx="18.6637" stroke="#C5E0F5" stroke-width="0.632667"/>
<path fill-rule="evenodd" clip-rule="evenodd" d="M108.995 439.557H99.7681C96.9125 439.557 94.4508 441.731 94.4508 444.414V458.368C94.4508 461.203 96.7516 463.462 99.7681 463.462H110.848C113.705 463.462 116.019 461.053 116.019 458.368V446.429L108.995 439.557Z" stroke="#141414" stroke-width="1.26533" stroke-linecap="round" stroke-linejoin="round"/>
<path d="M108.63 439.542V443.331C108.63 445.181 110.224 446.681 112.192 446.685C114.018 446.689 115.887 446.69 116.013 446.682" stroke="#141414" stroke-width="1.26533" stroke-linecap="round" stroke-linejoin="round"/>
<path opacity="0.4" d="M108.367 456.224H100.882" stroke="#141414" stroke-width="1.26533" stroke-linecap="round" stroke-linejoin="round"/>
<path opacity="0.4" d="M105.536 449.774H100.882" stroke="#141414" stroke-width="1.26533" stroke-linecap="round" stroke-linejoin="round"/>
<rect x="74.8613" y="352.863" width="60.6095" height="56.8846" rx="18.6637" stroke="#C5E0F5" stroke-width="0.632667"/>
<path fill-rule="evenodd" clip-rule="evenodd" d="M113.827 388.719C110.083 392.236 104.54 392.995 100.004 391.025C99.3348 390.772 98.7858 390.567 98.2639 390.567C96.8101 390.575 95.0007 391.899 94.0602 391.017C93.1198 390.134 94.5304 388.433 94.5304 387.059C94.5304 386.569 94.3212 386.063 94.0516 385.432C91.9528 381.173 92.7628 375.965 96.5061 372.451C101.285 367.961 109.048 367.961 113.827 372.449C118.614 376.946 118.605 384.231 113.827 388.719Z" stroke="#141414" stroke-width="1.26533" stroke-linecap="round" stroke-linejoin="round"/>
<path opacity="0.4" d="M109.989 381.062H110" stroke="#141414" stroke-width="1.26533" stroke-linecap="round" stroke-linejoin="round"/>
<path opacity="0.4" d="M105.081 381.062H105.091" stroke="#141414" stroke-width="1.26533" stroke-linecap="round" stroke-linejoin="round"/>
<path opacity="0.4" d="M100.17 381.062H100.18" stroke="#141414" stroke-width="1.26533" stroke-linecap="round" stroke-linejoin="round"/>
<rect x="74.8613" y="280.967" width="60.6095" height="56.8846" rx="18.6637" stroke="#C5E0F5" stroke-width="0.632667"/>
<path opacity="0.4" d="M99.851 307.47V314.869" stroke="#141414" stroke-width="1.26533" stroke-linecap="round" stroke-linejoin="round"/>
<path opacity="0.4" d="M105.208 303.93V314.869" stroke="#141414" stroke-width="1.26533" stroke-linecap="round" stroke-linejoin="round"/>
<path opacity="0.4" d="M110.481 311.38V314.868" stroke="#141414" stroke-width="1.26533" stroke-linecap="round" stroke-linejoin="round"/>
<path fill-rule="evenodd" clip-rule="evenodd" d="M110.546 298.625H99.7851C96.034 298.625 93.6827 301.118 93.6827 304.648V314.171C93.6827 317.701 96.0231 320.194 99.7851 320.194H110.546C114.308 320.194 116.649 317.701 116.649 314.171V304.648C116.649 301.118 114.308 298.625 110.546 298.625Z" stroke="#141414" stroke-width="1.26533" stroke-linecap="round" stroke-linejoin="round"/>
<rect x="74.8613" y="209.071" width="60.6095" height="56.8846" rx="18.6637" stroke="#C5E0F5" stroke-width="0.632667"/>
<path opacity="0.4" d="M110.984 246.274V231.176" stroke="#141414" stroke-width="1.26533" stroke-linecap="round" stroke-linejoin="round"/>
<path d="M115.796 241.733L110.982 246.275L106.168 241.733" stroke="#141414" stroke-width="1.26533" stroke-linecap="round" stroke-linejoin="round"/>
<path opacity="0.4" d="M99.2625 228.167V243.266" stroke="#141414" stroke-width="1.26533" stroke-linecap="round" stroke-linejoin="round"/>
<path d="M94.4485 232.709L99.2624 228.167L104.076 232.709" stroke="#141414" stroke-width="1.26533" stroke-linecap="round" stroke-linejoin="round"/>
<rect x="74.8613" y="137.174" width="60.6095" height="56.8846" rx="18.6637" stroke="#C5E0F5" stroke-width="0.632667"/>
<path d="M116.649 167.52H111.836C110.069 167.519 108.636 166.175 108.635 164.515C108.635 162.855 110.069 161.511 111.836 161.51H116.649" stroke="#141414" stroke-width="1.26533" stroke-linecap="round" stroke-linejoin="round"/>
<path d="M112.381 164.446H112.01" stroke="#141414" stroke-width="1.26533" stroke-linecap="round" stroke-linejoin="round"/>
<path fill-rule="evenodd" clip-rule="evenodd" d="M100.134 154.796H110.41C113.855 154.796 116.648 157.419 116.648 160.655V168.668C116.648 171.904 113.855 174.528 110.41 174.528H100.134C96.6886 174.528 93.8954 171.904 93.8954 168.668V160.655C93.8954 157.419 96.6886 154.796 100.134 154.796Z" stroke="#141414" stroke-width="1.26533" stroke-linecap="round" stroke-linejoin="round"/>
<path opacity="0.4" d="M99.2861 159.863H105.705" stroke="#141414" stroke-width="1.26533" stroke-linecap="round" stroke-linejoin="round"/>
<rect x="74.5449" y="64.9611" width="61.2421" height="57.5173" rx="18.98" fill="#FFD546"/>
<path fill-rule="evenodd" clip-rule="evenodd" d="M94.4485 87.2088C94.4485 84.2728 94.482 83.2945 98.6164 83.2945C102.751 83.2945 102.784 84.2728 102.784 87.2088C102.784 90.1448 102.797 91.1232 98.6164 91.1232C94.4353 91.1232 94.4485 90.1448 94.4485 87.2088Z" stroke="#141414" stroke-width="1.26533" stroke-linecap="round" stroke-linejoin="round"/>
<path opacity="0.4" fill-rule="evenodd" clip-rule="evenodd" d="M107.548 87.2088C107.548 84.2728 107.582 83.2945 111.716 83.2945C115.85 83.2945 115.884 84.2728 115.884 87.2088C115.884 90.1448 115.897 91.1232 111.716 91.1232C107.535 91.1232 107.548 90.1448 107.548 87.2088Z" stroke="#141414" stroke-width="1.26533" stroke-linecap="round" stroke-linejoin="round"/>
<path fill-rule="evenodd" clip-rule="evenodd" d="M94.4485 99.5113C94.4485 96.5753 94.482 95.5969 98.6164 95.5969C102.751 95.5969 102.784 96.5753 102.784 99.5113C102.784 102.447 102.797 103.426 98.6164 103.426C94.4353 103.426 94.4485 102.447 94.4485 99.5113Z" stroke="#141414" stroke-width="1.26533" stroke-linecap="round" stroke-linejoin="round"/>
<path fill-rule="evenodd" clip-rule="evenodd" d="M107.548 99.5112C107.548 96.5752 107.582 95.5968 111.716 95.5968C115.85 95.5968 115.884 96.5752 115.884 99.5112C115.884 102.447 115.897 103.426 111.716 103.426C107.535 103.426 107.548 102.447 107.548 99.5112Z" stroke="#141414" stroke-width="1.26533" stroke-linecap="round" stroke-linejoin="round"/>
<defs>
<filter id="filter0_d_13_173" x="0.932667" y="0.0254614" width="208.585" height="830.025" filterUnits="userSpaceOnUse" color-interpolation-filters="sRGB">
<feFlood flood-opacity="0" result="BackgroundImageFix"/>
<feColorMatrix in="SourceAlpha" type="matrix" values="0 0 0 0 0 0 0 0 0 0 0 0 0 0 0 0 0 0 127 0" result="hardAlpha"/>
<feMorphology radius="2.53067" operator="dilate" in="SourceAlpha" result="effect1_dropShadow_13_173"/>
<feOffset dy="6.32667"/>
<feGaussianBlur stdDeviation="22.1433"/>
<feColorMatrix type="matrix" values="0 0 0 0 0.501302 0 0 0 0 0.624729 0 0 0 0 0.729167 0 0 0 0.2 0"/>
<feBlend mode="normal" in2="BackgroundImageFix" result="effect1_dropShadow_13_173"/>
<feBlend mode="normal" in="SourceGraphic" in2="effect1_dropShadow_13_173" result="shape"/>
</filter>
</defs>
</svg>
