<svg width="7" height="22" viewBox="0 0 7 22" fill="none" xmlns="http://www.w3.org/2000/svg">
<path d="M6.06258 2.86574C6.06258 4.05545 5.01601 5.07513 3.68286 5.07513C2.34971 5.07513 1.30314 4.05545 1.30314 2.86574C1.30314 1.67602 2.34971 0.656352 3.68286 0.656352C5.01601 0.656352 6.06258 1.67602 6.06258 2.86574ZM1.30314 10.7564C1.30314 9.56664 2.34971 8.54696 3.68286 8.54696C5.01601 8.54696 6.06258 9.56664 6.06258 10.7564C6.06258 11.9461 5.01601 12.9657 3.68286 12.9657C2.34971 12.9657 1.30314 11.9461 1.30314 10.7564ZM1.30314 18.647C1.30314 17.4572 2.34971 16.4376 3.68286 16.4376C5.01601 16.4376 6.06258 17.4572 6.06258 18.647C6.06258 19.8367 5.01601 20.8564 3.68286 20.8564C2.34971 20.8564 1.30314 19.8367 1.30314 18.647Z" stroke="#94ADC2" stroke-width="0.841634"/>
</svg>
