<svg width="7" height="22" viewBox="0 0 7 22" fill="none" xmlns="http://www.w3.org/2000/svg">
<path d="M6.09872 3.40859C6.09872 4.5983 5.05215 5.61797 3.719 5.61797C2.38584 5.61797 1.33927 4.5983 1.33927 3.40859C1.33927 2.21887 2.38584 1.1992 3.719 1.1992C5.05215 1.1992 6.09872 2.21887 6.09872 3.40859ZM1.33927 11.2992C1.33927 10.1095 2.38584 9.08981 3.719 9.08981C5.05215 9.08981 6.09872 10.1095 6.09872 11.2992C6.09872 12.4889 5.05215 13.5086 3.719 13.5086C2.38584 13.5086 1.33927 12.4889 1.33927 11.2992ZM1.33927 19.1898C1.33927 18.0001 2.38584 16.9804 3.719 16.9804C5.05215 16.9804 6.09872 18.0001 6.09872 19.1898C6.09872 20.3795 5.05215 21.3992 3.719 21.3992C2.38584 21.3992 1.33927 20.3795 1.33927 19.1898Z" stroke="#94ADC2" stroke-width="0.841634"/>
</svg>
