<svg width="7" height="22" viewBox="0 0 7 22" fill="none" xmlns="http://www.w3.org/2000/svg">
<path d="M6.00228 3.40828C6.00228 4.598 4.95571 5.61767 3.62256 5.61767C2.28941 5.61767 1.24284 4.598 1.24284 3.40828C1.24284 2.21856 2.28941 1.19889 3.62256 1.19889C4.95571 1.19889 6.00228 2.21856 6.00228 3.40828ZM1.24284 11.2989C1.24284 10.1092 2.28941 9.08951 3.62256 9.08951C4.95571 9.08951 6.00228 10.1092 6.00228 11.2989C6.00228 12.4886 4.95571 13.5083 3.62256 13.5083C2.28941 13.5083 1.24284 12.4886 1.24284 11.2989ZM1.24284 19.1895C1.24284 17.9998 2.28941 16.9801 3.62256 16.9801C4.95571 16.9801 6.00228 17.9998 6.00228 19.1895C6.00228 20.3792 4.95571 21.3989 3.62256 21.3989C2.28941 21.3989 1.24284 20.3792 1.24284 19.1895Z" stroke="#94ADC2" stroke-width="0.841634"/>
</svg>
