<svg width="166" height="94" viewBox="0 0 166 94" fill="none" xmlns="http://www.w3.org/2000/svg">
<path d="M84 79.0002C101.673 79.0002 116 64.6734 116 47.0002C116 29.3271 101.673 15.0002 84 15.0002C66.3269 15.0002 52 29.3271 52 47.0002C52 64.6734 66.3269 79.0002 84 79.0002Z" fill="#5C2D91"/>
<path opacity="0.1" d="M61.82 24.0002C57.471 27.8758 54.2624 32.865 52.5401 38.4298C50.8179 43.9947 50.6474 49.9241 52.0469 55.5787C53.4464 61.2334 56.363 66.3987 60.482 70.5179C64.6011 74.637 69.7664 77.5536 75.421 78.9532C81.0757 80.3529 87.0052 80.1824 92.5702 78.4602C98.1351 76.7379 103.124 73.5293 107 69.1802L61.82 24.0002Z" fill="white"/>
<path d="M59.4 52.2503C59.2133 52.2532 59.0281 52.2174 58.856 52.1451C58.6838 52.0728 58.5286 51.9656 58.4 51.8303C58.2679 51.6997 58.1635 51.5439 58.093 51.3721C58.0226 51.2002 57.9875 51.016 57.99 50.8303C57.9887 50.6447 58.0242 50.4608 58.0946 50.2891C58.165 50.1174 58.2688 49.9615 58.4 49.8303C58.5273 49.6926 58.6821 49.5832 58.8544 49.5091C59.0266 49.4351 59.2125 49.398 59.4 49.4003C59.5872 49.3998 59.7725 49.4377 59.9445 49.5117C60.1165 49.5856 60.2715 49.6941 60.4 49.8303C60.5334 49.9603 60.6394 50.1158 60.7116 50.2876C60.7837 50.4594 60.8206 50.6439 60.82 50.8303C60.8217 51.0168 60.7854 51.2016 60.7132 51.3736C60.6409 51.5455 60.5344 51.7009 60.4 51.8303C60.2703 51.9642 60.1149 52.0704 59.943 52.1426C59.7711 52.2148 59.5864 52.2514 59.4 52.2503ZM79.27 52.0003H76.65L67.28 37.4603C67.0466 37.102 66.8521 36.7198 66.7 36.3203H66.62C66.709 37.1504 66.7424 37.9856 66.72 38.8203V52.0003H64.6V33.7703H67.37L76.49 48.0503L77.23 49.2703H77.28C77.1745 48.381 77.131 47.4855 77.15 46.5903V33.7703H79.28V52.0003H79.27ZM93.7 52.0003H84V33.7703H93.24V35.7003H86.18V41.7603H92.76V43.6803H86.18V50.0003H93.7V52.0003ZM108 35.7003H102.7V52.0003H100.57V35.7003H95.33V33.7703H108V35.7003Z" fill="white"/>
<path d="M78.12 64.4002C77.398 64.7499 76.6017 64.9181 75.8 64.8902C75.2673 64.9142 74.7356 64.824 74.2406 64.6257C73.7456 64.4274 73.2987 64.1255 72.93 63.7402C72.1952 62.9177 71.8081 61.8423 71.85 60.7402C71.8231 60.1435 71.9163 59.5475 72.1242 58.9875C72.332 58.4275 72.6503 57.9149 73.06 57.4802C73.4593 57.0712 73.9393 56.7497 74.4695 56.5362C74.9998 56.3228 75.5687 56.222 76.14 56.2402C76.8237 56.2169 77.5048 56.3361 78.14 56.5902V57.5902C77.5285 57.2517 76.8389 57.0793 76.14 57.0902C75.6994 57.0778 75.2613 57.1608 74.8557 57.3334C74.4501 57.5059 74.0866 57.7641 73.79 58.0902C73.1663 58.8007 72.8436 59.726 72.89 60.6702C72.8433 61.5647 73.1443 62.4426 73.73 63.1202C74.0109 63.4223 74.3539 63.6601 74.7354 63.8172C75.1168 63.9742 75.5278 64.0469 75.94 64.0302C76.7078 64.0503 77.4661 63.8564 78.13 63.4702L78.12 64.4002ZM82.2 64.9002C81.8019 64.9131 81.4057 64.8403 81.0382 64.6868C80.6708 64.5332 80.3405 64.3025 80.07 64.0102C79.5232 63.4 79.2393 62.5986 79.28 61.7802C79.255 61.3515 79.3155 60.9221 79.458 60.5169C79.6005 60.1118 79.8221 59.739 80.11 59.4202C80.4038 59.1335 80.7532 58.9102 81.1368 58.764C81.5204 58.6177 81.9299 58.5518 82.34 58.5702C82.7276 58.5496 83.1151 58.6131 83.4759 58.7564C83.8366 58.8996 84.1621 59.1193 84.43 59.4002C84.9615 60.0408 85.2296 60.8594 85.18 61.6902C85.2219 62.5334 84.9311 63.3594 84.37 63.9902C84.0943 64.2882 83.758 64.5236 83.3837 64.6806C83.0093 64.8375 82.6057 64.9124 82.2 64.9002ZM82.27 59.4302C81.9949 59.4187 81.7208 59.4693 81.468 59.5784C81.2152 59.6875 80.9903 59.8522 80.81 60.0602C80.4252 60.5557 80.2333 61.174 80.27 61.8002C80.2351 62.4079 80.4276 63.0068 80.81 63.4802C80.9921 63.6854 81.2177 63.8474 81.4702 63.9547C81.7227 64.0619 81.9959 64.1116 82.27 64.1002C82.5383 64.1161 82.8068 64.0702 83.0546 63.9662C83.3025 63.8622 83.5233 63.7028 83.7 63.5002C84.0635 63.0035 84.2406 62.3945 84.2 61.7802C84.2395 61.163 84.0627 60.5512 83.7 60.0502C83.5257 59.8434 83.3059 59.6798 83.0578 59.5723C82.8097 59.4647 82.54 59.4161 82.27 59.4302ZM89.87 59.7302C89.654 59.5887 89.3976 59.522 89.14 59.5402C88.9385 59.5476 88.742 59.6043 88.5676 59.7054C88.3932 59.8066 88.2464 59.949 88.14 60.1202C87.8424 60.5915 87.699 61.1438 87.73 61.7002V64.7602H86.73V58.7602H87.73V60.0002C87.8399 59.6135 88.0586 59.2664 88.36 59.0002C88.6208 58.7739 88.9547 58.6496 89.3 58.6502C89.4933 58.6416 89.6865 58.6687 89.87 58.7302V59.7302ZM95.72 62.0002H91.5C91.4716 62.5593 91.6535 63.1087 92.01 63.5402C92.1953 63.7251 92.4176 63.8688 92.6623 63.9618C92.907 64.0549 93.1686 64.0952 93.43 64.0802C94.1079 64.0735 94.7635 63.8373 95.29 63.4102V64.3102C94.6717 64.7178 93.9395 64.9174 93.2 64.8802C92.8268 64.8991 92.4541 64.8353 92.1084 64.6936C91.7627 64.5519 91.4525 64.3356 91.2 64.0602C90.6794 63.4109 90.4192 62.591 90.47 61.7602C90.434 60.9275 90.7165 60.1122 91.26 59.4802C91.5073 59.1945 91.8151 58.9674 92.1609 58.8152C92.5068 58.663 92.8822 58.5896 93.26 58.6002C93.6011 58.5811 93.942 58.6396 94.2573 58.7712C94.5725 58.9029 94.8538 59.1042 95.08 59.3602C95.5404 59.9674 95.7675 60.7197 95.72 61.4802L95.73 62.0002H95.72ZM94.72 61.2002C94.7403 60.7369 94.5989 60.2809 94.32 59.9102C94.1831 59.7556 94.0131 59.634 93.8226 59.5543C93.6322 59.4746 93.4261 59.4391 93.22 59.4502C93.0048 59.4476 92.7914 59.4898 92.5934 59.5742C92.3954 59.6585 92.2171 59.7832 92.07 59.9402C91.7409 60.2884 91.5338 60.7341 91.48 61.2102H94.72V61.2002Z" fill="#F2F2F2"/>
</svg>
