<svg width="166" height="94" viewBox="0 0 166 94" fill="none" xmlns="http://www.w3.org/2000/svg">
<path d="M83.47 75.8362C83.152 75.8362 82.855 75.7522 82.58 75.6062L79.758 73.9492C79.334 73.7192 79.546 73.6342 79.673 73.5922C80.246 73.4022 80.353 73.3622 80.946 73.0262C81.01 72.9842 81.096 73.0062 81.158 73.0462L83.322 74.3262C83.407 74.3682 83.512 74.3682 83.576 74.3262L92.042 69.4802C92.127 69.4382 92.169 69.3542 92.169 69.2502V59.5782C92.169 59.4732 92.126 59.3882 92.042 59.3482L83.576 54.5232C83.491 54.4812 83.386 54.4812 83.322 54.5232L74.856 59.3482C74.771 59.3902 74.729 59.4952 74.729 59.5782V69.2502C74.729 69.3342 74.772 69.4402 74.856 69.4802L77.169 70.8022C78.421 71.4322 79.206 70.6972 79.206 69.9622V60.4162C79.206 60.2902 79.312 60.1642 79.461 60.1642H80.543C80.67 60.1642 80.798 60.2692 80.798 60.4162V69.9622C80.798 71.6192 79.886 72.5852 78.294 72.5852C77.806 72.5852 77.424 72.5852 76.342 72.0602L74.114 70.8002C73.562 70.4852 73.224 69.8982 73.224 69.2682V59.5962C73.224 58.9662 73.564 58.3792 74.114 58.0642L82.58 53.2182C83.11 52.9242 83.832 52.9242 84.363 53.2182L92.829 58.0642C93.381 58.3792 93.719 58.9662 93.719 59.5962V69.2682C93.719 69.8982 93.379 70.4852 92.829 70.8002L84.363 75.6462C84.0825 75.771 83.779 75.8354 83.472 75.8352L83.47 75.8362ZM86.07 69.1862C82.357 69.1862 81.593 67.5082 81.593 66.0812C81.593 65.9552 81.699 65.8292 81.848 65.8292H82.951C83.078 65.8292 83.184 65.9132 83.184 66.0292C83.354 67.1412 83.842 67.6862 86.091 67.6862C87.873 67.6862 88.637 67.2862 88.637 66.3432C88.637 65.7982 88.425 65.3992 85.645 65.1262C83.332 64.8962 81.889 64.3922 81.889 62.5662C81.889 60.8662 83.332 59.8592 85.751 59.8592C88.467 59.8592 89.804 60.7822 89.974 62.7962C89.974 62.8592 89.954 62.9222 89.91 62.9862C89.867 63.0282 89.804 63.0702 89.74 63.0702H88.637C88.531 63.0702 88.425 62.9862 88.404 62.8802C88.149 61.7262 87.492 61.3482 85.752 61.3482C83.8 61.3482 83.566 62.0182 83.566 62.5232C83.566 63.1312 83.842 63.3202 86.473 63.6562C89.073 63.9922 90.313 64.4742 90.313 66.2792C90.293 68.1252 88.763 69.1742 86.069 69.1742L86.07 69.1862Z" fill="#539E43"/>
<path d="M57.2 38.0082C57.2 37.6302 56.988 37.2742 56.648 37.0852L47.651 31.9652C47.501 31.8812 47.333 31.8392 47.163 31.8182H47.078C46.908 31.8182 46.738 31.8812 46.59 31.9652L37.593 37.0852C37.253 37.2752 37.041 37.6302 37.041 38.0082L37.061 51.7712C37.0605 51.8661 37.086 51.9593 37.1346 52.0407C37.1832 52.1222 37.2532 52.1887 37.337 52.2332C37.507 52.3382 37.719 52.3382 37.867 52.2332L43.214 49.2132C43.554 49.0232 43.766 48.6682 43.766 48.2902V41.8502C43.766 41.4722 43.978 41.1162 44.318 40.9272L46.588 39.6272C46.758 39.5222 46.948 39.4802 47.14 39.4802C47.3279 39.4738 47.5132 39.5251 47.671 39.6272L49.941 40.9272C50.281 41.1172 50.493 41.4722 50.493 41.8502V48.2902C50.493 48.6682 50.705 49.0242 51.045 49.2132L56.392 52.2332C56.562 52.3382 56.774 52.3382 56.944 52.2332C57.0278 52.1887 57.0978 52.1222 57.1464 52.0407C57.1951 51.9593 57.2205 51.8661 57.22 51.7712L57.2 38.0082ZM100.445 19.0632C100.363 19.0217 100.272 19.0001 100.18 19.0001C100.087 19.0001 99.9964 19.0217 99.914 19.0632C99.744 19.1682 99.638 19.3362 99.638 19.5232V33.1602C99.638 33.2862 99.574 33.4122 99.448 33.4962C99.3891 33.5272 99.3236 33.5434 99.257 33.5434C99.1905 33.5434 99.1249 33.5272 99.066 33.4962L96.816 32.2162C96.481 32.0262 96.069 32.0262 95.734 32.2162L86.737 37.3562C86.397 37.5462 86.185 37.9012 86.185 38.2792V48.5392C86.185 48.9172 86.397 49.2732 86.737 49.4622L95.734 54.6022C96.069 54.7922 96.481 54.7922 96.816 54.6022L105.813 49.4622C106.153 49.2722 106.365 48.9172 106.365 48.5392V22.9652C106.365 22.5652 106.153 22.2102 105.813 22.0212L100.445 19.0632ZM99.618 45.1632C99.618 45.2682 99.576 45.3532 99.491 45.3932L96.414 47.1552C96.327 47.1972 96.224 47.1972 96.138 47.1552L93.061 45.3932C92.976 45.3512 92.934 45.2462 92.934 45.1632V41.6382C92.934 41.5332 92.976 41.4482 93.061 41.4082L96.138 39.6462C96.225 39.6042 96.328 39.6042 96.414 39.6462L99.491 41.4082C99.576 41.4502 99.618 41.5552 99.618 41.6382V45.1632ZM130.385 41.5532C130.725 41.3632 130.915 41.0082 130.915 40.6302V38.1332C130.913 37.9468 130.863 37.7641 130.77 37.6025C130.677 37.4409 130.544 37.3058 130.384 37.2102L121.451 32.0902C121.116 31.9002 120.704 31.9002 120.369 32.0902L111.372 37.2302C111.032 37.4202 110.82 37.7752 110.82 38.1532V48.4132C110.82 48.7912 111.032 49.1472 111.372 49.3362L120.305 54.3712C120.645 54.5612 121.048 54.5612 121.365 54.3712L126.775 51.3912C126.859 51.3467 126.929 51.2802 126.977 51.1987C127.026 51.1173 127.052 51.0241 127.051 50.9292C127.052 50.8344 127.026 50.7412 126.977 50.6598C126.929 50.5783 126.859 50.5117 126.775 50.4672L117.735 45.3272C117.565 45.2222 117.459 45.0542 117.459 44.8672V41.6672C117.459 41.5724 117.484 41.4792 117.533 41.3978C117.581 41.3163 117.651 41.2497 117.735 41.2052L120.557 39.6102C120.727 39.5052 120.94 39.5052 121.109 39.6102L123.931 41.2052C124.101 41.3102 124.207 41.4782 124.207 41.6672V44.1852C124.207 44.2799 124.232 44.3729 124.281 44.4541C124.329 44.5354 124.399 44.6018 124.483 44.6462C124.653 44.7512 124.865 44.7512 125.035 44.6462L130.382 41.5622L130.385 41.5532Z" fill="#333333"/>
<path d="M120.773 41.0703C120.837 41.0283 120.921 41.0283 120.985 41.0703L122.705 42.0563C122.769 42.0983 122.811 42.1613 122.811 42.2463V44.2183C122.811 44.2562 122.801 44.2936 122.783 44.3267C122.764 44.3598 122.738 44.3876 122.705 44.4073L120.985 45.3933C120.921 45.4353 120.837 45.4353 120.773 45.3933L119.053 44.4073C119.021 44.3876 118.994 44.3598 118.975 44.3267C118.957 44.2936 118.947 44.2562 118.947 44.2183V42.2463C118.947 42.1623 118.989 42.0993 119.053 42.0563L120.773 41.0703Z" fill="#539E43"/>
<path d="M72.244 32.1332C71.909 31.9432 71.497 31.9432 71.162 32.1332L62.229 37.2312C61.889 37.4212 61.699 37.7762 61.699 38.1542V48.3722C61.7012 48.5586 61.7511 48.7414 61.8441 48.903C61.9371 49.0646 62.0699 49.1996 62.23 49.2952L71.163 54.3932C71.498 54.5832 71.91 54.5832 72.245 54.3932L81.178 49.2952C81.518 49.1052 81.708 48.7502 81.708 48.3722V38.1542C81.7058 37.9678 81.6558 37.7851 81.5629 37.6235C81.4699 37.4619 81.337 37.3268 81.177 37.2312L72.244 32.1332Z" fill="url(#paint0_linear_3_885)"/>
<mask id="mask0_3_885" style="mask-type:alpha" maskUnits="userSpaceOnUse" x="61" y="31" width="21" height="24">
<path d="M72.244 32.1332C71.909 31.9432 71.497 31.9432 71.162 32.1332L62.229 37.2312C61.889 37.4212 61.699 37.7762 61.699 38.1542V48.3722C61.7012 48.5586 61.7511 48.7414 61.8441 48.903C61.9371 49.0646 62.0699 49.1996 62.23 49.2952L71.163 54.3932C71.498 54.5832 71.91 54.5832 72.245 54.3932L81.178 49.2952C81.518 49.1052 81.708 48.7502 81.708 48.3722V38.1542C81.7058 37.9678 81.6558 37.7851 81.5629 37.6235C81.4699 37.4619 81.337 37.3268 81.177 37.2312L72.244 32.1332Z" fill="white"/>
</mask>
<g mask="url(#mask0_3_885)">
<path d="M81.199 37.2312L72.214 32.1332C72.134 32.0792 72.044 32.0542 71.948 32.0292L61.89 49.0642C61.973 49.1642 62.074 49.2502 62.187 49.3162L71.163 54.4142C71.418 54.5612 71.715 54.6042 71.99 54.5192L81.434 37.4412C81.3664 37.3605 81.2876 37.2898 81.2 37.2312H81.199Z" fill="url(#paint1_linear_3_885)"/>
</g>
<mask id="mask1_3_885" style="mask-type:alpha" maskUnits="userSpaceOnUse" x="61" y="31" width="21" height="24">
<path d="M72.244 32.1332C71.909 31.9432 71.497 31.9432 71.162 32.1332L62.229 37.2312C61.889 37.4212 61.699 37.7762 61.699 38.1542V48.3722C61.7012 48.5586 61.7511 48.7414 61.8441 48.903C61.9371 49.0646 62.0699 49.1996 62.23 49.2952L71.163 54.3932C71.498 54.5832 71.91 54.5832 72.245 54.3932L81.178 49.2952C81.518 49.1052 81.708 48.7502 81.708 48.3722V38.1542C81.7058 37.9678 81.6558 37.7851 81.5629 37.6235C81.4699 37.4619 81.337 37.3268 81.177 37.2312L72.244 32.1332Z" fill="white"/>
</mask>
<g mask="url(#mask1_3_885)">
<path fill-rule="evenodd" clip-rule="evenodd" d="M81.22 49.2952C81.475 49.1482 81.666 48.8952 81.75 48.6252L71.904 32.0092C71.649 31.9672 71.374 31.9892 71.14 32.1352L62.229 37.2112L71.841 54.5412C71.9806 54.5186 72.1163 54.4761 72.244 54.4152L81.22 49.2952Z" fill="url(#paint2_linear_3_885)"/>
<path d="M81.22 49.2952L72.266 54.3932C72.1395 54.4571 72.0034 54.4996 71.863 54.5192L72.033 54.8342L81.963 49.1492V49.0232L81.708 48.6032C81.666 48.8972 81.475 49.1482 81.22 49.2952Z" fill="url(#paint3_linear_3_885)"/>
<path d="M81.22 49.2952L72.266 54.3932C72.1395 54.4571 72.0034 54.4996 71.863 54.5192L72.033 54.8342L81.963 49.1492V49.0232L81.708 48.6032C81.666 48.8972 81.475 49.1482 81.22 49.2952Z" fill="url(#paint4_linear_3_885)"/>
</g>
<defs>
<linearGradient id="paint0_linear_3_885" x1="74.5708" y1="35.9332" x2="66.8306" y2="51.5433" gradientUnits="userSpaceOnUse">
<stop stop-color="#41873F"/>
<stop offset="0.3288" stop-color="#418B3D"/>
<stop offset="0.6352" stop-color="#419637"/>
<stop offset="0.9319" stop-color="#3FA92D"/>
<stop offset="1" stop-color="#3FAE2A"/>
</linearGradient>
<linearGradient id="paint1_linear_3_885" x1="70.6737" y1="44.4606" x2="89.6748" y2="30.5783" gradientUnits="userSpaceOnUse">
<stop offset="0.1376" stop-color="#41873F"/>
<stop offset="0.4032" stop-color="#54A044"/>
<stop offset="0.7136" stop-color="#66B848"/>
<stop offset="0.9081" stop-color="#6CC04A"/>
</linearGradient>
<linearGradient id="paint2_linear_3_885" x1="61.3722" y1="43.2651" x2="82.0426" y2="43.2651" gradientUnits="userSpaceOnUse">
<stop offset="0.09192" stop-color="#6CC04A"/>
<stop offset="0.2864" stop-color="#66B848"/>
<stop offset="0.5968" stop-color="#54A044"/>
<stop offset="0.8624" stop-color="#41873F"/>
</linearGradient>
<linearGradient id="paint3_linear_3_885" x1="61.3731" y1="51.7358" x2="82.0435" y2="51.7358" gradientUnits="userSpaceOnUse">
<stop offset="0.09192" stop-color="#6CC04A"/>
<stop offset="0.2864" stop-color="#66B848"/>
<stop offset="0.5968" stop-color="#54A044"/>
<stop offset="0.8624" stop-color="#41873F"/>
</linearGradient>
<linearGradient id="paint4_linear_3_885" x1="85.055" y1="45.5273" x2="78.645" y2="58.4565" gradientUnits="userSpaceOnUse">
<stop stop-color="#41873F"/>
<stop offset="0.3288" stop-color="#418B3D"/>
<stop offset="0.6352" stop-color="#419637"/>
<stop offset="0.9319" stop-color="#3FA92D"/>
<stop offset="1" stop-color="#3FAE2A"/>
</linearGradient>
</defs>
</svg>
