<svg width="47" height="45" viewBox="0 0 47 45" fill="none" xmlns="http://www.w3.org/2000/svg">
<rect x="0.606372" y="1.83246" width="45.2989" height="42.5053" rx="12.337" stroke="#C5E0F5" stroke-width="0.632667"/>
<path fill-rule="evenodd" clip-rule="evenodd" d="M23.2558 28.7001C28.652 28.7001 31.1484 28.0499 31.3895 25.4403C31.3895 22.8325 29.649 23.0002 29.649 19.8006C29.649 17.3013 27.1267 14.4577 23.2558 14.4577C19.3849 14.4577 16.8625 17.3013 16.8625 19.8006C16.8625 23.0002 15.1221 22.8325 15.1221 25.4403C15.3641 28.0598 17.8605 28.7001 23.2558 28.7001Z" stroke="#141414" stroke-width="1.26533" stroke-linecap="round" stroke-linejoin="round"/>
<path opacity="0.4" d="M25.5408 31.4046C24.2355 32.7659 22.1992 32.7821 20.8813 31.4046" stroke="#141414" stroke-width="1.26533" stroke-linecap="round" stroke-linejoin="round"/>
<path d="M39.7135 8.21702C41.6604 8.21702 43.3419 6.72074 43.3419 4.75164C43.3419 2.78255 41.6604 1.28626 39.7135 1.28626C37.7666 1.28626 36.0852 2.78255 36.0852 4.75164C36.0852 6.72074 37.7666 8.21702 39.7135 8.21702Z" fill="#F5577A" stroke="white" stroke-width="1.898"/>
</svg>
