<svg width="47" height="47" viewBox="0 0 47 47" fill="none" xmlns="http://www.w3.org/2000/svg">
<rect x="0.455005" y="1.70513" width="45.6243" height="44.4645" rx="12.337" stroke="#C5E0F5" stroke-width="0.632667"/>
<path fill-rule="evenodd" clip-rule="evenodd" d="M23.2656 29.8072C28.7 29.8072 31.2141 29.1275 31.4569 26.3994C31.4569 23.6732 29.7041 23.8485 29.7041 20.5035C29.7041 17.8908 27.1639 14.918 23.2656 14.918C19.3672 14.918 16.827 17.8908 16.827 20.5035C16.827 23.8485 15.0742 23.6732 15.0742 26.3994C15.318 29.1378 17.8321 29.8072 23.2656 29.8072Z" stroke="#141414" stroke-width="1.26533" stroke-linecap="round" stroke-linejoin="round"/>
<path opacity="0.4" d="M25.5675 32.6353C24.2529 34.0584 22.2022 34.0752 20.875 32.6353" stroke="#141414" stroke-width="1.26533" stroke-linecap="round" stroke-linejoin="round"/>
<path d="M39.8409 8.35084C41.8324 8.35084 43.4882 6.77074 43.4882 4.77117C43.4882 2.7716 41.8324 1.1915 39.8409 1.1915C37.8494 1.1915 36.1936 2.7716 36.1936 4.77117C36.1936 6.77074 37.8494 8.35084 39.8409 8.35084Z" fill="#F5577A" stroke="white" stroke-width="1.898"/>
</svg>
