<svg width="619" height="183" viewBox="0 0 619 183" fill="none" xmlns="http://www.w3.org/2000/svg">
<path d="M47.0395 53.3277C32.3749 44.911 11.3963 135.581 2.74011 181.969L617.331 182.925C616.992 181.809 616.109 179.291 615.294 178.143C614.785 174.317 612.239 170.491 603.583 159.014C588.511 147.154 574.899 149.29 569.976 151.841C568.279 152.797 563.255 155.571 556.737 159.014C547.776 161.31 541.801 154.232 539.934 150.406C538.407 147.856 533.824 138.642 527.714 122.191C522.826 105.741 514.814 109.917 511.42 114.062C510.062 115.177 506.124 118.365 501.236 122.191C492.682 124.104 487.148 111.511 485.451 104.975C481.887 93.9763 473.638 69.5872 469.157 60.0228C463.047 50.4584 454.73 55.0812 451.335 58.5881C446.413 65.7614 435.652 81.3513 431.986 86.3248C428.32 91.2983 424.009 91.2664 422.312 90.6288C420.784 89.9912 416.711 87.8551 412.637 84.4119C408.564 82.1165 404.151 83.4555 402.453 84.4119C401.095 85.5278 397.667 88.3333 394.815 90.6288C391.251 90.1506 391.251 90.6288 389.214 88.7159C386.363 87.1856 380.898 71.8188 378.521 64.3267C377.673 61.7762 374.957 54.9537 370.884 48.0673C359.885 39.2681 353.062 67.3555 351.025 82.4991C348.988 96.208 344.813 124.965 344.406 130.321C343.897 137.016 341.351 143.711 339.314 150.406C336.768 155.188 334.731 153.275 332.185 151.841C327.704 143.042 319.795 137.016 316.4 135.103C310.46 132.871 297.255 127.452 291.959 123.626C286.664 119.8 280.927 121.075 278.72 122.191C277.193 123.307 272.814 125.539 267.518 125.539C260.186 125.539 254.619 115.656 252.752 110.714C249.866 105.294 243.586 93.3068 241.55 88.7159C239.004 82.9773 235.949 78.1951 229.838 71.9783C220.164 65.7614 214.053 73.4129 209.471 78.1951C202.851 82.0209 198.778 77.7169 195.213 71.9783C191.14 67.3874 184.011 45.198 180.956 34.6772C179.598 31.1702 175.355 20.9045 169.245 7.8969C160.69 -4.72808 151.084 8.37512 147.35 16.5048C139.203 34.5178 122.196 71.6913 119.344 76.2822C115.78 82.0208 113.743 82.4991 107.633 82.4991C101.115 82.8816 89.9811 71.5 85.2287 65.7614C83.5314 64.6455 79.5258 62.7964 77.0817 64.3267C71.3788 70.4479 66.8979 68.4713 65.3703 66.7178C60.9574 62.7327 51.113 54.4754 47.0395 53.3277Z" fill="url(#paint0_linear_13_143)"/>
<path d="M616.39 182.925C615.34 182.925 614.389 182.312 614.061 181.352C605.601 156.055 589.075 152.27 579.992 152.27C573.795 152.27 568.647 155.042 564.089 157.468C559.728 159.814 555.629 162 551.268 161.413C539.102 159.76 533.692 144.939 528.872 131.851C525.33 122.174 521.691 112.178 516.641 112.338C514.936 112.391 512.837 114.817 510.837 117.136C507.853 120.575 504.476 124.493 499.426 124.493C488.605 124.493 483.424 107.54 477.948 89.5995C473.325 74.4317 468.046 57.2113 460.405 56.7582C454.47 56.3317 448.798 65.9015 443.617 74.2717C437.026 84.8812 430.205 95.8372 420.827 92.8516C418.073 91.9719 416.073 90.2925 414.302 88.8264C412.007 86.9071 410.105 85.3877 407.154 85.5209C404.006 85.6809 402.006 87.4669 399.907 89.3595C397.841 91.2255 395.48 93.3581 392.103 92.9316C385.938 92.1585 382.692 82.722 378.56 70.7797C375.413 61.6097 371.084 49.0543 366.657 49.0543C358.132 49.0543 353.345 84.3747 350.197 107.726C345.868 139.661 343.376 156.295 334.949 155.442C332.031 155.122 330.457 152.723 328.653 149.897C326.62 146.752 323.833 142.433 318.029 138.675C315.865 137.289 314.849 136.942 313.012 136.356C311.209 135.769 308.782 134.996 304.356 132.89C299.011 130.358 295.666 128.252 293.207 126.732C290.092 124.787 288.551 123.8 285.665 123.454C281.894 123.001 279.861 124.12 277.467 125.426C275.566 126.466 273.401 127.665 270.385 127.932C257.826 129.025 250.547 113.484 243.529 98.4495C237.463 85.521 231.2 72.1125 222.904 72.1125C219.035 72.1125 216.936 74.1385 214.543 76.4843C211.985 78.9634 209.132 81.789 204.05 81.789C193.524 81.789 187.425 63.3158 180.342 41.9369C174.866 25.3564 168.046 4.72393 160.865 4.72393C154.733 4.72393 149.191 17.8125 142.141 34.393C137.223 45.9621 131.124 60.3835 122.828 74.9648C119.581 80.6961 115.843 83.8149 111.384 84.4813C106.105 85.3077 100.071 82.5887 92.4638 75.9245C91.2505 74.8582 90.0373 73.552 88.824 72.1925C85.8729 68.9404 83.0201 65.8482 79.7411 66.1147C78.1671 66.2214 77.2162 66.9944 75.9702 67.9541C74.5274 69.0737 72.7239 70.4598 69.9367 70.5931C64.9526 70.6997 60.8866 66.6212 56.9517 62.5694C53.312 58.8374 49.5411 54.9722 45.7046 54.9722C36.1298 54.9722 24.1285 92.665 5.56906 181.033C5.27395 182.312 3.99512 183.112 2.6835 182.872C1.37189 182.632 0.486544 181.459 0.748868 180.233C23.7678 70.5931 33.9656 50.5205 45.6718 50.5205C51.6724 50.5205 56.3943 55.3454 60.5259 59.6105C63.7065 62.8893 67.1495 66.248 69.6744 66.1414C70.7893 66.0881 71.5107 65.5816 72.7895 64.5686C74.2978 63.3957 76.1997 61.9029 79.3148 61.6897C85.1843 61.2898 89.0863 65.5549 92.5293 69.3669C93.6114 70.5664 94.6935 71.766 95.7756 72.7256C102.104 78.2436 106.924 80.6694 110.531 80.1096C113.384 79.6564 115.975 77.3106 118.467 72.9389C126.631 58.5708 132.698 44.2827 137.551 32.7936C145.912 13.2008 151.421 0.245575 160.865 0.245575C171.62 0.245575 177.817 18.9587 184.998 40.6308C190.409 56.9714 197.131 77.3106 204.05 77.3106C206.87 77.3106 208.542 75.8445 211.001 73.4187C213.657 70.833 216.936 67.6342 222.904 67.6342C234.381 67.6342 240.972 81.7357 247.989 96.6635C254.35 110.205 260.875 124.2 269.926 123.454C271.827 123.294 273.303 122.494 274.975 121.561C277.599 120.122 280.845 118.336 286.288 119.002C290.321 119.482 292.682 120.975 295.928 123.027C298.388 124.573 301.47 126.519 306.553 128.918C310.684 130.864 312.881 131.584 314.619 132.144C316.554 132.784 318.128 133.263 320.816 135.023C327.473 139.315 330.719 144.326 332.851 147.631C333.703 148.938 334.982 150.937 335.507 150.99C339.573 149.951 343.081 124.227 345.376 107.193C350.492 69.3669 354.755 44.576 366.69 44.576C374.691 44.576 378.823 56.6515 383.249 69.4468C385.807 76.8841 389.676 88.1067 392.791 88.5065C393.775 88.6132 394.857 87.7068 396.53 86.1607C398.825 84.1081 401.94 81.2825 406.924 81.0426C411.974 80.8027 414.958 83.2818 417.614 85.4943C419.188 86.8005 420.663 88.0267 422.467 88.6132C428.074 90.3992 433.845 81.0426 439.452 72.0326C445.65 62.0629 452.175 51.7733 460.766 52.2798C471.849 52.9196 477.096 70.1399 482.67 88.3732C487.195 103.194 492.31 119.988 499.459 119.988C502.148 119.988 504.64 117.109 507.066 114.31C509.755 111.192 512.542 107.966 516.477 107.833C524.97 107.54 529.003 118.122 533.528 130.411C537.889 142.273 542.808 155.709 552.022 156.961C554.711 157.335 557.924 155.602 561.695 153.576C566.515 150.99 572.516 147.765 580.025 147.765C588.419 147.765 609.012 150.91 618.75 180.02C619.144 181.219 618.423 182.472 617.144 182.845C616.881 182.899 616.619 182.925 616.39 182.925Z" fill="#56EAFF"/>
<defs>
<linearGradient id="paint0_linear_13_143" x1="310.036" y1="2.65198" x2="310.036" y2="182.925" gradientUnits="userSpaceOnUse">
<stop stop-color="#5CE4F8"/>
<stop offset="1" stop-color="#D3EFFF" stop-opacity="0"/>
</linearGradient>
</defs>
</svg>
