<svg width="619" height="230" viewBox="0 0 619 230" fill="none" xmlns="http://www.w3.org/2000/svg">
<path d="M26.1637 195.493C16.3873 196.258 6.13559 218.447 2.23181 229.446C200.985 229.606 602.158 229.924 616.823 229.924C616.823 224.186 615.804 214.781 615.295 210.796C614.786 209.042 613.36 204.292 611.731 199.318C607.657 190.137 601.208 187.522 598.492 187.363C596.455 187.044 591.465 186.12 587.799 184.972C581.689 182.676 575.409 172.857 573.032 168.234L567.941 156.279C564.546 149.105 557.248 133.802 555.211 129.977C552.156 125.194 551.137 124.716 547.573 123.282C540.648 121.751 532.467 138.903 529.242 147.671L520.077 171.103L513.457 189.276C510.742 195.174 504.903 207.448 503.274 209.361C501.237 211.752 500.218 211.274 497.672 208.883C491.97 203.909 487.149 204.579 485.452 205.535C484.773 205.854 482.6 206.779 479.342 207.926C475.268 210.222 470.855 204.738 469.158 201.709C466.951 198.203 461.316 189.85 456.428 184.494C450.318 177.799 446.244 178.755 443.698 178.755C439.218 178.755 432.327 184.494 429.441 187.363C428.762 188.16 425.673 190.806 418.748 195.014C411.823 199.223 403.303 193.261 399.908 189.754L389.215 175.886C388.027 174.61 384.734 171.486 381.068 169.191C372.921 164.408 365.283 173.016 361.21 177.799C359.173 181.624 355.269 181.305 353.572 180.668C352.554 180.349 349.397 177.99 344.916 171.103C339.62 161.922 334.223 143.686 332.186 135.715L320.475 86.9369L309.782 41.5061C308.933 37.521 306.319 26.8726 302.653 16.1605C298.07 2.77039 295.525 3.72682 292.469 2.77039C286.359 2.77039 281.098 18.0734 279.23 25.7249C275.157 41.9843 266.501 76.6074 264.464 85.024C262.835 93.0581 256.996 108.457 254.28 115.152C254.111 115.63 252.549 118.404 247.661 125.673C240.532 134.281 237.477 129.977 231.876 125.673C222.1 116.873 212.866 125.194 209.472 130.455L200.306 146.714C199.458 147.83 196.946 151.018 193.687 154.844C185.132 160.583 178.241 155.322 175.865 151.975L159.571 129.02C158.213 127.426 154.479 123.282 150.406 119.456C144.295 116.108 140.222 118.021 137.167 119.456C128.001 122.325 116.799 151.018 112.726 159.626C109.467 166.513 104.239 174.929 102.033 178.277C101.693 178.596 99.9961 180.285 95.9225 184.494C91.849 188.702 86.4177 187.841 84.2112 186.885C83.0231 186.247 78.8138 184.015 71.4815 180.19C61.2977 177.799 55.1874 196.449 51.6231 200.753C47.5496 205.057 46.022 203.144 42.4577 201.231C31.2556 194.058 30.7464 195.493 26.1637 195.493Z" fill="url(#paint0_linear_13_146)"/>
<path d="M3.12438 229.894C2.82923 229.894 2.5013 229.835 2.20616 229.715C0.959997 229.175 0.369711 227.706 0.894409 226.417C9.97825 203.483 18.7997 192.331 27.8836 192.331C34.0488 192.331 38.148 195.239 41.4602 197.578C44.2148 199.526 45.8217 200.606 47.5598 200.186C50.544 199.496 52.2821 195.869 54.3153 191.702C56.5124 187.145 59.0048 181.989 63.9894 179.201C69.9906 175.873 74.7785 178.691 78.9761 181.179C81.6652 182.768 84.2231 184.297 87.2073 184.477C97.7013 185.197 105.834 167.989 113.672 151.321C122.165 133.274 130.2 116.246 142.858 115.287C153.582 114.447 160.763 125.719 167.781 136.572C174.274 146.644 180.407 156.177 187.949 154.409C193.655 153.06 197.624 146.165 201.821 138.85C207.035 129.736 212.446 120.323 222.448 119.754C228.154 119.394 231.499 122.302 234.221 124.61C236.353 126.439 237.763 127.548 239.632 127.548H239.665C251.143 127.548 260.784 88.666 268.523 57.4284C277.476 21.0945 283.018 0.529287 292.233 0.379395C292.266 0.379395 292.299 0.379395 292.332 0.379395C303.186 0.379395 310.237 29.8182 321.747 81.7709C330.7 122.302 342.998 177.792 355.459 177.792C355.492 177.792 355.525 177.792 355.525 177.792C357.689 177.762 359.624 175.693 361.887 173.325C365.297 169.728 369.462 165.201 376.742 165.531C385.695 165.861 390.68 173.025 395.468 179.95C399.764 186.126 403.797 191.942 410.422 193.471C417.702 195.149 422.916 190.263 428.458 185.077C434.197 179.711 440.723 173.595 449.643 176.803C457.218 179.531 462.432 187.505 467.056 194.55C472.106 202.254 475.451 206.841 479.026 205.792C479.78 205.552 480.567 205.102 481.485 204.593C483.715 203.304 486.503 201.745 490.602 202.374C494.472 202.974 496.702 205.162 498.341 206.751C498.899 207.291 499.587 207.95 499.883 208.07C503.195 209.059 512.377 184.207 516.804 172.216C528.216 141.278 536.513 120.923 546.777 120.923C546.876 120.923 547.007 120.923 547.105 120.923C555.041 121.253 560.682 134.113 567.208 149.013C573.931 164.362 581.572 181.719 591.213 183.428C591.475 183.458 591.869 183.488 592.393 183.548C595.378 183.788 601.576 184.267 605.904 187.865C611.807 192.781 618.858 203.603 618.858 227.406C618.858 228.815 617.776 229.924 616.431 229.924C615.087 229.924 614.004 228.785 614.004 227.406C614.004 205.642 607.97 196.049 602.887 191.822C599.706 189.184 594.525 188.794 592.033 188.614C591.311 188.554 590.754 188.524 590.393 188.434C578.194 186.306 570.356 168.409 562.781 151.141C557.665 139.449 551.828 126.199 546.909 125.989C546.876 125.989 546.81 125.989 546.777 125.989C539.071 125.989 528.839 153.749 521.362 174.045C511.328 201.235 505.753 215.325 498.407 212.927C497.062 212.477 496.013 211.458 494.996 210.498C493.619 209.179 492.242 207.8 489.848 207.441C487.388 207.051 485.716 208.01 483.814 209.089C482.732 209.689 481.617 210.349 480.37 210.708C473.123 212.867 468.237 205.402 463.055 197.458C458.891 191.072 454.168 183.818 448.101 181.659C441.871 179.441 437.181 183.818 431.77 188.914C425.867 194.43 419.145 200.695 409.438 198.477C401.01 196.528 395.992 189.334 391.565 182.978C387.072 176.473 383.17 170.897 376.611 170.657C371.627 170.507 368.544 173.625 365.363 176.953C362.608 179.86 359.788 182.858 355.623 182.918C340.473 183.068 330.405 143.527 317.025 82.9701C309.778 50.2636 299.907 5.50571 292.364 5.50571H292.332C286.363 5.59565 278.755 36.3535 273.18 58.7774C263.768 96.7901 254.848 132.704 239.599 132.704C239.567 132.704 239.567 132.704 239.534 132.704C235.861 132.674 233.303 130.516 231.073 128.627C228.581 126.499 226.416 124.7 222.645 124.91C215.266 125.33 210.741 133.214 205.953 141.548C201.428 149.462 196.738 157.616 188.999 159.445C178.21 161.963 170.864 150.542 163.715 139.509C157.484 129.856 151.089 119.963 143.186 120.443C133.315 121.193 125.543 137.681 118.033 153.659C109.474 171.796 100.653 190.623 86.8794 189.633C82.8129 189.364 79.5008 187.385 76.5821 185.676C72.3518 183.158 69.7939 181.839 66.2849 183.758C62.6776 185.766 60.6444 189.963 58.6768 194.04C56.3157 198.927 53.8889 203.963 48.642 205.192C44.8051 206.092 41.7225 203.933 38.7383 201.835C35.6885 199.676 32.5403 197.458 27.8836 197.458C24.0467 197.458 16.0451 201.475 5.38714 228.426C4.99362 229.295 4.07539 229.894 3.12438 229.894Z" fill="#FF83BE"/>
<defs>
<linearGradient id="paint0_linear_13_146" x1="309.527" y1="2.77039" x2="309.527" y2="229.924" gradientUnits="userSpaceOnUse">
<stop stop-color="#F064A7"/>
<stop offset="1" stop-color="#FFF8DE" stop-opacity="0"/>
</linearGradient>
</defs>
</svg>
