<svg width="1701" height="574" viewBox="0 0 1701 574" fill="none" xmlns="http://www.w3.org/2000/svg">
<circle cx="68" cy="514" r="17" stroke="#F5DEBA" stroke-width="4"/>
<circle cx="1682" cy="73" r="17" stroke="white" stroke-opacity="0.65" stroke-width="4"/>
<path d="M622.957 16.9233C627.088 13.624 633.244 15.9185 634.208 21.1164L638.117 42.1956C639.109 47.5444 633.888 51.931 628.79 50.0312L608.13 42.3317C603.033 40.432 601.955 33.6981 606.206 30.303L622.957 16.9233Z" stroke="#DFDAFF" stroke-width="5"/>
<path d="M766.715 536.564C768.028 535.849 769.633 536.776 769.671 538.271L770.249 561.312C770.288 562.874 768.602 563.876 767.25 563.095L746.427 551.073C745.075 550.292 745.099 548.331 746.471 547.584L766.715 536.564Z" fill="#CFE8EA"/>
<line x1="816.184" y1="317.977" x2="806.684" y2="301.523" stroke="#E1E1E1" stroke-width="3" stroke-linecap="round"/>
<line x1="802.524" y1="314.317" x2="818.978" y2="304.817" stroke="#E1E1E1" stroke-width="3" stroke-linecap="round"/>
<line x1="11.5254" y1="28.5264" x2="11.5254" y2="9.52637" stroke="#E1E1E1" stroke-width="3" stroke-linecap="round"/>
<line x1="1.52539" y1="18.5264" x2="20.5254" y2="18.5264" stroke="#E1E1E1" stroke-width="3" stroke-linecap="round"/>
</svg>
