<svg width="58" height="44" viewBox="0 0 58 44" fill="none" xmlns="http://www.w3.org/2000/svg">
<path d="M4.49552 2.2V41.8C4.49552 42.3835 4.2587 42.9431 3.83716 43.3556C3.41563 43.7682 2.8439 44 2.24776 44C1.65162 44 1.07989 43.7682 0.658354 43.3556C0.236817 42.9431 0 42.3835 0 41.8V2.2C0 1.61652 0.236817 1.05695 0.658354 0.644365C1.07989 0.231785 1.65162 0 2.24776 0C2.8439 0 3.41563 0.231785 3.83716 0.644365C4.2587 1.05695 4.49552 1.61652 4.49552 2.2ZM28.097 17.1875L22.4776 18.975V13.2C22.4776 12.6165 22.2408 12.0569 21.8192 11.6444C21.3977 11.2318 20.826 11 20.2298 11C19.6337 11 19.062 11.2318 18.6404 11.6444C18.2189 12.0569 17.9821 12.6165 17.9821 13.2V18.975L12.3627 17.1875C12.0843 17.0937 11.7896 17.0558 11.4959 17.0759C11.2023 17.0961 10.9158 17.1739 10.6536 17.3048C10.3913 17.4357 10.1587 17.617 9.96963 17.8378C9.78054 18.0586 9.63884 18.3144 9.55297 18.59C9.45679 18.8643 9.41769 19.1546 9.43797 19.4439C9.45824 19.7332 9.53749 20.0156 9.67104 20.2745C9.80458 20.5334 9.98973 20.7634 10.2156 20.9511C10.4414 21.1389 10.7033 21.2804 10.9859 21.3675L16.6053 23.155L13.1213 27.83C12.9471 28.0645 12.822 28.3303 12.7531 28.6123C12.6842 28.8942 12.673 29.1867 12.72 29.4729C12.767 29.7591 12.8713 30.0334 13.027 30.2801C13.1826 30.5267 13.3866 30.7408 13.627 30.91C14.1133 31.2472 14.7154 31.3842 15.3038 31.2917C15.8922 31.1991 16.42 30.8844 16.7739 30.415L20.2298 25.74L23.6858 30.415C24.0396 30.8844 24.5675 31.1991 25.1559 31.2917C25.7443 31.3842 26.3463 31.2472 26.8326 30.91C27.0731 30.7408 27.277 30.5267 27.4327 30.2801C27.5883 30.0334 27.6927 29.7591 27.7397 29.4729C27.7867 29.1867 27.7754 28.8942 27.7065 28.6123C27.6377 28.3303 27.5126 28.0645 27.3384 27.83L23.8543 23.155L29.4737 21.3675C29.7563 21.2804 30.0183 21.1389 30.2441 20.9511C30.4699 20.7634 30.6551 20.5334 30.7886 20.2745C30.9222 20.0156 31.0014 19.7332 31.0217 19.4439C31.042 19.1546 31.0029 18.8643 30.9067 18.59C30.8208 18.3144 30.6791 18.0586 30.49 17.8378C30.3009 17.617 30.0683 17.4357 29.8061 17.3048C29.5439 17.1739 29.2574 17.0961 28.9637 17.0759C28.6701 17.0558 28.3753 17.0937 28.097 17.1875ZM57.8798 18.59C57.7939 18.3144 57.6522 18.0586 57.4631 17.8378C57.274 17.617 57.0414 17.4357 56.7792 17.3048C56.517 17.1739 56.2305 17.0961 55.9368 17.0759C55.6432 17.0558 55.3484 17.0937 55.0701 17.1875L49.4507 18.975V13.2C49.4507 12.6165 49.2139 12.0569 48.7923 11.6444C48.3708 11.2318 47.7991 11 47.2029 11C46.6068 11 46.0351 11.2318 45.6135 11.6444C45.192 12.0569 44.9552 12.6165 44.9552 13.2V18.975L39.3358 17.1875C39.0574 17.0937 38.7627 17.0558 38.469 17.0759C38.1754 17.0961 37.8889 17.1739 37.6267 17.3048C37.3644 17.4357 37.1318 17.617 36.9427 17.8378C36.7536 18.0586 36.6119 18.3144 36.5261 18.59C36.4299 18.8643 36.3908 19.1546 36.4111 19.4439C36.4313 19.7332 36.5106 20.0156 36.6441 20.2745C36.7777 20.5334 36.9628 20.7634 37.1887 20.9511C37.4145 21.1389 37.6764 21.2804 37.959 21.3675L43.5784 23.155L40.0944 27.83C39.9202 28.0645 39.7951 28.3303 39.7262 28.6123C39.6573 28.8942 39.6461 29.1867 39.6931 29.4729C39.7401 29.7591 39.8444 30.0334 40.0001 30.2801C40.1557 30.5267 40.3597 30.7408 40.6001 30.91C41.0864 31.2472 41.6885 31.3842 42.2769 31.2917C42.8653 31.1991 43.3931 30.8844 43.747 30.415L47.2029 25.74L50.6589 30.415C51.0127 30.8844 51.5406 31.1991 52.129 31.2917C52.7174 31.3842 53.3194 31.2472 53.8057 30.91C54.0462 30.7408 54.2501 30.5267 54.4058 30.2801C54.5615 30.0334 54.6658 29.7591 54.7128 29.4729C54.7598 29.1867 54.7485 28.8942 54.6796 28.6123C54.6108 28.3303 54.4857 28.0645 54.3115 27.83L50.8274 23.155L56.4468 21.3675C56.7294 21.2804 56.9914 21.1389 57.2172 20.9511C57.443 20.7634 57.6282 20.5334 57.7617 20.2745C57.8953 20.0156 57.9745 19.7332 57.9948 19.4439C58.0151 19.1546 57.976 18.8643 57.8798 18.59Z" fill="#47CFFF"/>
</svg>
