<svg width="166" height="94" viewBox="0 0 166 94" fill="none" xmlns="http://www.w3.org/2000/svg">
<path d="M75.076 60.6372C75.076 60.6372 79.926 60.2172 79.926 53.9032C79.926 47.5892 74.05 47.0002 74.05 47.0002H63.466V66.9232H68.786V62.1172L73.386 66.9232H81.256L75.076 60.6362V60.6372ZM73.026 56.5572H68.786V52.0022H73.053C73.053 52.0022 74.253 52.4492 74.253 54.2652C74.253 56.0812 73.033 56.5652 73.033 56.5652L73.026 56.5572ZM93.06 47.1402H87.657C83.807 47.1402 82.503 50.6602 82.503 52.3372V66.9232H87.906V63.4302H92.976V66.9232H98.213V52.3382C98.213 48.0912 94.389 47.1412 93.059 47.1412L93.06 47.1402ZM92.977 57.7862H87.879V52.9522C87.879 52.9522 87.879 51.8522 89.579 51.8522H91.435C92.931 51.8522 92.959 52.9522 92.959 52.9522V57.7862H92.987H92.977ZM100.68 47.1402H106.305V66.9242H100.68V47.1402ZM114.2 61.8002V47.1402H108.603V66.9242H121.763V61.8002H114.2ZM123.62 61.8562V66.9142H132.68C134.536 66.9142 137.723 65.5442 137.834 61.7172V59.7702C137.834 56.5002 135.174 54.5732 132.68 54.5732H128.164V52.2262H137.114V47.1402H128.514C126.297 47.1402 123.334 48.9842 123.334 52.4202V54.1802C123.334 57.6172 126.271 59.3772 128.514 59.3772C134.748 59.4052 127.018 59.3772 132.781 59.3772V61.8372L123.611 61.8652L123.62 61.8562ZM29.94 66.8862H51.84C51.84 66.8862 47.656 47.6332 61.51 39.8362C64.53 38.3562 74.145 32.8222 89.883 44.5582C90.383 44.1382 90.853 43.8042 90.853 43.8042C90.853 43.8042 76.453 29.3022 60.41 30.9242C52.347 31.6512 42.428 39.0542 36.61 48.8242C30.792 58.5942 29.96 66.8742 29.96 66.8742L29.94 66.8862ZM75.547 32.5002L75.647 30.6282C75.397 30.4882 74.705 30.1532 72.959 29.6502L72.859 31.4942C73.7656 31.8004 74.6621 32.1359 75.547 32.5002ZM72.915 38.4242L72.815 40.1842C73.729 40.2122 74.645 40.3242 75.558 40.5192L75.658 38.7872C74.716 38.5912 73.802 38.4802 72.915 38.4242ZM62.663 29.7062H62.94L62.385 28.0002C61.525 28.0002 60.639 28.0562 59.725 28.1682L60.251 29.8182C61.0518 29.739 61.8562 29.7017 62.661 29.7062H62.663ZM63.993 39.9892L64.63 41.9172C65.434 41.5172 66.237 41.1902 67.03 40.9392L66.43 39.0952C65.5989 39.3404 64.7845 39.639 63.992 39.9892H63.993ZM51.413 32.6392L50.166 30.6992C49.4345 31.0796 48.7139 31.4804 48.005 31.9012L49.28 33.8572C50 33.4102 50.693 32.9912 51.414 32.6272L51.413 32.6392ZM57.093 45.2132L58.423 47.2252C58.893 46.5252 59.448 45.8852 60.058 45.2412L58.811 43.3412C58.1878 43.9169 57.6131 44.543 57.093 45.2132ZM53.076 54.2002L55.32 56.0002C55.4319 54.8972 55.6264 53.8041 55.902 52.7302L53.907 51.1372C53.547 52.1712 53.307 53.2052 53.077 54.2112L53.076 54.2002ZM40.94 40.9382L38.973 39.2062C38.253 39.9062 37.56 40.6032 36.923 41.3022L39.057 43.1462C39.639 42.3922 40.277 41.6462 40.941 40.9392L40.94 40.9382ZM32.572 53.4382L29.386 52.2642C28.86 53.4662 28.278 54.8642 28.001 55.6172L31.187 56.7912C31.547 55.8412 32.129 54.4712 32.572 53.4382ZM52.66 61.3182C52.698 62.4973 52.8089 63.6729 52.992 64.8382L56.317 66.0402C56.067 64.9402 55.817 63.7202 55.652 62.4072L52.66 61.3072V61.3182Z" fill="#CC0000"/>
</svg>
