<svg width="32" height="32" viewBox="0 0 32 32" fill="none" xmlns="http://www.w3.org/2000/svg">
<path d="M32 6.85608C32 5.64366 31.5184 4.4809 30.6611 3.62359C29.8038 2.76627 28.641 2.28464 27.4286 2.28464H26.2857V1.17392C26.2857 0.558921 25.8129 0.0310621 25.1979 0.000347713C25.0433 -0.00709746 24.8889 0.0169078 24.7439 0.0709092C24.599 0.124911 24.4665 0.207784 24.3545 0.314507C24.2425 0.42123 24.1533 0.549581 24.0924 0.691782C24.0314 0.833984 24 0.987075 24 1.14178V2.28464H8V1.17392C8 0.558921 7.52714 0.0310621 6.91214 0.000347713C6.75762 -0.00709746 6.60319 0.0169078 6.45822 0.0709092C6.31324 0.124911 6.18074 0.207784 6.06874 0.314507C5.95675 0.42123 5.86758 0.549581 5.80665 0.691782C5.74572 0.833984 5.7143 0.987075 5.71429 1.14178V2.28464H4.57143C3.35901 2.28464 2.19625 2.76627 1.33894 3.62359C0.481631 4.4809 0 5.64366 0 6.85608V7.71323C0 7.78901 0.030102 7.86168 0.0836838 7.91526C0.137266 7.96884 0.209938 7.99895 0.285714 7.99895H31.7143C31.7901 7.99895 31.8627 7.96884 31.9163 7.91526C31.9699 7.86168 32 7.78901 32 7.71323V6.85608ZM0 27.4276C0 28.64 0.481631 29.8028 1.33894 30.6601C2.19625 31.5174 3.35901 31.999 4.57143 31.999H27.4286C28.641 31.999 29.8038 31.5174 30.6611 30.6601C31.5184 29.8028 32 28.64 32 27.4276V10.5704C32 10.4946 31.9699 10.4219 31.9163 10.3684C31.8627 10.3148 31.7901 10.2847 31.7143 10.2847H0.285714C0.209938 10.2847 0.137266 10.3148 0.0836838 10.3684C0.030102 10.4219 0 10.4946 0 10.5704V27.4276Z" fill="#CFCFCF"/>
</svg>
