<svg width="34" height="34" viewBox="0 0 34 34" fill="none" xmlns="http://www.w3.org/2000/svg">
<path d="M17 -0.000976562C7.6263 -0.000976562 0 7.62532 0 16.999C0 26.3727 7.6263 33.999 17 33.999C26.3737 33.999 34 26.3727 34 16.999C34 7.62532 26.3737 -0.000976562 17 -0.000976562ZM25.8474 11.3016L14.8627 24.3785C14.7422 24.522 14.5923 24.638 14.4231 24.7185C14.2539 24.799 14.0693 24.8422 13.882 24.8452H13.8599C13.6766 24.8451 13.4954 24.8065 13.328 24.7319C13.1606 24.6573 13.0107 24.5483 12.8881 24.412L8.18043 19.1812C8.06087 19.0544 7.96787 18.905 7.90689 18.7417C7.8459 18.5785 7.81817 18.4047 7.82532 18.2305C7.83246 18.0564 7.87435 17.8854 7.94851 17.7277C8.02267 17.57 8.12761 17.4287 8.25715 17.3121C8.3867 17.1955 8.53825 17.106 8.70289 17.0488C8.86752 16.9917 9.04193 16.968 9.21585 16.9792C9.38977 16.9903 9.55971 17.0362 9.71566 17.114C9.87162 17.1918 10.0104 17.3 10.124 17.4322L13.8256 21.5449L23.845 9.61955C24.0697 9.35971 24.3877 9.19875 24.7301 9.17146C25.0726 9.14417 25.412 9.25275 25.6751 9.47372C25.9382 9.69468 26.1037 10.0103 26.1359 10.3523C26.1682 10.6944 26.0645 11.0353 25.8474 11.3016Z" fill="#2FCF3F"/>
</svg>
