<svg width="22" height="18" viewBox="0 0 22 18" fill="none" xmlns="http://www.w3.org/2000/svg">
<path d="M21.7501 2.4518C20.9447 2.80151 20.0925 3.0319 19.2206 3.1357C20.1369 2.59948 20.8261 1.74759 21.1588 0.739812C20.2924 1.24607 19.346 1.60129 18.3604 1.79025C17.9453 1.35556 17.4461 1.00975 16.8931 0.773848C16.3402 0.537943 15.745 0.416866 15.1437 0.417976C12.7095 0.417976 10.7395 2.35793 10.7395 4.74935C10.7378 5.08199 10.7759 5.41363 10.8531 5.73721C9.10754 5.65543 7.39829 5.21046 5.83468 4.43076C4.27108 3.65105 2.88756 2.55379 1.77263 1.20916C1.38149 1.86808 1.17463 2.61989 1.17368 3.38602C1.17368 4.88792 1.95782 6.21549 3.14186 6.99326C2.44035 6.97662 1.75322 6.79108 1.13879 6.4524V6.50603C1.13879 8.60691 2.65966 10.3547 4.67257 10.7525C4.29404 10.8533 3.90398 10.9044 3.51224 10.9045C3.23427 10.9049 2.95693 10.878 2.68426 10.824C3.24385 12.5449 4.87252 13.7965 6.80178 13.8323C5.23412 15.0396 3.30943 15.6921 1.33024 15.6873C0.978928 15.6868 0.627942 15.6659 0.279053 15.6247C2.29249 16.9095 4.63296 17.589 7.02186 17.5825C15.1343 17.5825 19.5663 10.9804 19.5663 5.25445C19.5663 5.06671 19.5614 4.87898 19.5525 4.69571C20.4127 4.08425 21.1569 3.32438 21.7501 2.4518V2.4518Z" fill="white"/>
</svg>
