<svg width="22" height="19" viewBox="0 0 22 19" fill="none" xmlns="http://www.w3.org/2000/svg">
<path d="M21.4894 2.95131C20.684 3.30102 19.8318 3.53141 18.9598 3.63521C19.8762 3.09899 20.5654 2.2471 20.898 1.23932C20.0316 1.74559 19.0853 2.1008 18.0996 2.28976C17.6846 1.85507 17.1854 1.50927 16.6324 1.27336C16.0794 1.03745 15.4842 0.916378 14.883 0.917488C12.4487 0.917488 10.4787 2.85744 10.4787 5.24886C10.477 5.5815 10.5152 5.91314 10.5924 6.23672C8.8468 6.15494 7.13754 5.70997 5.57394 4.93027C4.01033 4.15056 2.62681 3.0533 1.51189 1.70867C1.12075 2.36759 0.913892 3.1194 0.912938 3.88553C0.912938 5.38743 1.69708 6.715 2.88112 7.49277C2.17961 7.47613 1.49247 7.2906 0.878048 6.95191V7.00555C0.878048 9.10642 2.39891 10.8542 4.41183 11.252C4.0333 11.3528 3.64324 11.4039 3.25149 11.404C2.97352 11.4045 2.69619 11.3775 2.42352 11.3235C2.98311 13.0444 4.61178 14.296 6.54104 14.3318C4.97337 15.5391 3.04869 16.1916 1.0695 16.1868C0.718186 16.1863 0.3672 16.1654 0.0183105 16.1242C2.03175 17.409 4.37221 18.0886 6.76112 18.0821C14.8736 18.0821 19.3056 11.48 19.3056 5.75396C19.3056 5.56623 19.3007 5.37849 19.2917 5.19522C20.1519 4.58376 20.8961 3.82389 21.4894 2.95131Z" fill="white"/>
</svg>
