<svg width="27" height="20" viewBox="0 0 27 20" fill="none" xmlns="http://www.w3.org/2000/svg">
<path d="M26.3329 4.69522C26.3329 2.46872 24.6519 0.677625 22.5747 0.677625C19.761 0.549478 16.8915 0.5 13.959 0.5H13.0449C10.1195 0.5 7.24491 0.549478 4.43127 0.67812C2.35914 0.67812 0.678066 2.47911 0.678066 4.70561C0.551097 6.46653 0.497262 8.22794 0.500309 9.98935C0.49523 11.7508 0.552789 13.5138 0.672987 15.2785C0.672987 17.505 2.35406 19.311 4.42619 19.311C7.38204 19.4446 10.4141 19.5039 13.4969 19.499C16.5848 19.5089 19.6083 19.4462 22.5675 19.311C24.6448 19.311 26.3258 17.505 26.3258 15.2785C26.4477 13.5122 26.5036 11.7508 26.4985 9.9844C26.51 8.22299 26.4548 6.45993 26.3329 4.69522ZM11.0134 14.8431V5.12073L18.3776 9.97946L11.0134 14.8431Z" fill="white"/>
</svg>
