<svg width="27" height="19" viewBox="0 0 27 19" fill="none" xmlns="http://www.w3.org/2000/svg">
<path d="M26.0724 4.19522C26.0724 1.96872 24.3914 0.177625 22.3142 0.177625C19.5005 0.0494777 16.631 0 13.6985 0H12.7844C9.85899 0 6.98441 0.0494778 4.17078 0.17812C2.09864 0.17812 0.417568 1.97911 0.417568 4.20562C0.290598 5.96653 0.236764 7.72794 0.239811 9.48935C0.234732 11.2508 0.292291 13.0138 0.412489 14.7785C0.412489 17.005 2.09356 18.811 4.1657 18.811C7.12154 18.9446 10.1536 19.0039 13.2364 18.999C16.3243 19.0089 19.3478 18.9462 22.307 18.811C24.3843 18.811 26.0653 17.005 26.0653 14.7785C26.1872 13.0122 26.2431 11.2508 26.238 9.4844C26.2495 7.72299 26.1943 5.95993 26.0724 4.19522ZM10.7529 14.3431V4.62073L18.1171 9.47946L10.7529 14.3431Z" fill="white"/>
</svg>
